  0
SECTION
  2
HEADER
  9
$ACADVER
  1
AC1009
  9
$EXTMIN
 10
-161.70641065
 20
-184.39145246
 30
0.0
  9
$EXTMAX
 10
138.29358935
 20
215.60854754
 30
0.0
  0
ENDSEC
  0
SECTION
  2
TABLES
  0
TABLE
  2
LAYER
 70
1
 0
LAYER
 2
Default_Layer
 70
0
 62
18
 6
CONTINUOUS
 0
ENDTAB
 0
ENDSEC
  0
SECTION
  2
ENTITIES
  0
POLYLINE
  8
Default_Layer
 62
256
 66
   1
 39
0.000000
 70
    1
  0
VERTEX
  8
0
 10
-134.99603643
 20
-179.06845644
  0
VERTEX
  8
0
 10
-26.99603643
 20
-179.06845644
  0
VERTEX
  8
0
 10
-26.68728441
 20
-179.06064963
  0
VERTEX
  8
0
 10
-26.38258537
 20
-179.03748051
  0
VERTEX
  8
0
 10
-26.08231627
 20
-178.99932603
  0
VERTEX
  8
0
 10
-25.78685411
 20
-178.94656316
  0
VERTEX
  8
0
 10
-25.21185843
 20
-178.79872008
  0
VERTEX
  8
0
 10
-24.66061414
 20
-178.59696697
  0
VERTEX
  8
0
 10
-24.13613700
 20
-178.34431950
  0
VERTEX
  8
0
 10
-23.64144282
 20
-178.04379336
  0
VERTEX
  8
0
 10
-23.17954737
 20
-177.69840425
  0
VERTEX
  8
0
 10
-22.75346645
 20
-177.31116784
  0
VERTEX
  8
0
 10
-22.36621584
 20
-176.88509983
  0
VERTEX
  8
0
 10
-22.02081133
 20
-176.42321589
  0
VERTEX
  8
0
 10
-21.72026870
 20
-175.92853173
  0
VERTEX
  8
0
 10
-21.46760375
 20
-175.40406301
  0
VERTEX
  8
0
 10
-21.26583226
 20
-174.85282544
  0
VERTEX
  8
0
 10
-21.11797002
 20
-174.27783470
  0
VERTEX
  8
0
 10
-21.06519730
 20
-173.98237429
  0
VERTEX
  8
0
 10
-21.02703281
 20
-173.68210647
  0
VERTEX
  8
0
 10
-21.00385353
 20
-173.37740820
  0
VERTEX
  8
0
 10
-20.99603643
 20
-173.06865644
  0
VERTEX
  8
0
 10
-20.99563643
 20
-97.46865644
  0
VERTEX
  8
0
 10
-21.01951353
 20
-96.93139994
  0
VERTEX
  8
0
 10
-21.08989658
 20
-96.40605988
  0
VERTEX
  8
0
 10
-21.20490462
 20
-95.89489684
  0
VERTEX
  8
0
 10
-21.36265665
 20
-95.40017142
  0
VERTEX
  8
0
 10
-21.56127170
 20
-94.92414421
  0
VERTEX
  8
0
 10
-21.79886879
 20
-94.46907581
  0
VERTEX
  8
0
 10
-22.07356694
 20
-94.03722681
  0
VERTEX
  8
0
 10
-22.38348517
 20
-93.63085779
  0
VERTEX
  8
0
 10
-22.72674250
 20
-93.25222936
  0
VERTEX
  8
0
 10
-23.10145796
 20
-92.90360211
  0
VERTEX
  8
0
 10
-23.50575055
 20
-92.58723662
  0
VERTEX
  8
0
 10
-23.93773932
 20
-92.30539349
  0
VERTEX
  8
0
 10
-24.39554326
 20
-92.06033332
  0
VERTEX
  8
0
 10
-24.87728142
 20
-91.85431669
  0
VERTEX
  8
0
 10
-25.38107280
 20
-91.68960420
  0
VERTEX
  8
0
 10
-25.90503643
 20
-91.56845644
  0
VERTEX
  8
0
 10
-122.04603643
 20
-73.79245644
  0
VERTEX
  8
0
 10
-122.66923881
 20
-73.70157011
  0
VERTEX
  8
0
 10
-123.29065785
 20
-73.66017843
  0
VERTEX
  8
0
 10
-123.90782063
 20
-73.66714467
  0
VERTEX
  8
0
 10
-124.51825422
 20
-73.72133207
  0
VERTEX
  8
0
 10
-125.11948569
 20
-73.82160390
  0
VERTEX
  8
0
 10
-125.70904214
 20
-73.96682340
  0
VERTEX
  8
0
 10
-126.28445062
 20
-74.15585384
  0
VERTEX
  8
0
 10
-126.84323822
 20
-74.38755845
  0
VERTEX
  8
0
 10
-127.38293201
 20
-74.66080051
  0
VERTEX
  8
0
 10
-127.90105907
 20
-74.97444325
  0
VERTEX
  8
0
 10
-128.39514648
 20
-75.32734994
  0
VERTEX
  8
0
 10
-128.86272132
 20
-75.71838383
  0
VERTEX
  8
0
 10
-129.30131065
 20
-76.14640817
  0
VERTEX
  8
0
 10
-129.70844157
 20
-76.61028621
  0
VERTEX
  8
0
 10
-130.08164113
 20
-77.10888122
  0
VERTEX
  8
0
 10
-130.41843643
 20
-77.64105644
  0
VERTEX
  8
0
 10
-140.18423643
 20
-94.45505644
  0
VERTEX
  8
0
 10
-140.37178192
 20
-94.80392765
  0
VERTEX
  8
0
 10
-140.53540223
 20
-95.16322371
  0
VERTEX
  8
0
 10
-140.67476415
 20
-95.53170772
  0
VERTEX
  8
0
 10
-140.78953451
 20
-95.90814282
  0
VERTEX
  8
0
 10
-140.87938010
 20
-96.29129212
  0
VERTEX
  8
0
 10
-140.94396774
 20
-96.67991875
  0
VERTEX
  8
0
 10
-140.98296425
 20
-97.07278581
  0
VERTEX
  8
0
 10
-140.99603643
 20
-97.46865644
  0
VERTEX
  8
0
 10
-140.99583643
 20
-173.06865644
  0
VERTEX
  8
0
 10
-140.98802952
 20
-173.37740535
  0
VERTEX
  8
0
 10
-140.96486014
 20
-173.68210114
  0
VERTEX
  8
0
 10
-140.92670524
 20
-173.98236682
  0
VERTEX
  8
0
 10
-140.87394181
 20
-174.27782541
  0
VERTEX
  8
0
 10
-140.72609729
 20
-174.85281343
  0
VERTEX
  8
0
 10
-140.52434240
 20
-175.40404937
  0
VERTEX
  8
0
 10
-140.27169297
 20
-175.92851739
  0
VERTEX
  8
0
 10
-139.97116482
 20
-176.42320168
  0
VERTEX
  8
0
 10
-139.62577378
 20
-176.88508639
  0
VERTEX
  8
0
 10
-139.23853569
 20
-177.31115571
  0
VERTEX
  8
0
 10
-138.81246637
 20
-177.69839380
  0
VERTEX
  8
0
 10
-138.35058166
 20
-178.04378483
  0
VERTEX
  8
0
 10
-137.85589738
 20
-178.34431298
  0
VERTEX
  8
0
 10
-137.33142935
 20
-178.59696242
  0
VERTEX
  8
0
 10
-136.78019341
 20
-178.79871731
  0
VERTEX
  8
0
 10
-136.20520540
 20
-178.94656183
  0
VERTEX
  8
0
 10
-135.90974680
 20
-178.99932526
  0
VERTEX
  8
0
 10
-135.60948112
 20
-179.03748015
  0
VERTEX
  8
0
 10
-135.30478534
 20
-179.06064954
  0
VERTEX
  8
0
 10
-134.99603643
 20
-179.06845644
  0
SEQEND
  0
POLYLINE
  8
Default_Layer
 62
256
 66
   1
 39
0.000000
 70
    1
  0
VERTEX
  8
0
 10
-147.18823789
 20
160.75728558
  0
VERTEX
  8
0
 10
-145.42979593
 20
158.61202823
  0
VERTEX
  8
0
 10
-143.47419593
 20
156.64482823
  0
VERTEX
  8
0
 10
-142.29122795
 20
156.90111677
  0
VERTEX
  8
0
 10
-141.74660897
 20
157.04055448
  0
VERTEX
  8
0
 10
-141.23356087
 20
157.18756412
  0
VERTEX
  8
0
 10
-140.75236117
 20
157.34216144
  0
VERTEX
  8
0
 10
-140.30322257
 20
157.50429784
  0
VERTEX
  8
0
 10
-139.88628290
 20
157.67387607
  0
VERTEX
  8
0
 10
-139.50143252
 20
157.85066505
  0
VERTEX
  8
0
 10
-139.14838658
 20
158.03434760
  0
VERTEX
  8
0
 10
-138.82639573
 20
158.22439321
  0
VERTEX
  8
0
 10
-138.53442189
 20
158.42014449
  0
VERTEX
  8
0
 10
-138.27071442
 20
158.62064288
  0
VERTEX
  8
0
 10
-138.03308233
 20
158.82474953
  0
VERTEX
  8
0
 10
-137.81841693
 20
159.03095732
  0
VERTEX
  8
0
 10
-137.44326826
 20
159.44275156
  0
VERTEX
  8
0
 10
-137.11195593
 20
159.84072250
  0
VERTEX
  8
0
 10
-136.78944812
 20
160.20915792
  0
VERTEX
  8
0
 10
-136.62135862
 20
160.37784580
  0
VERTEX
  8
0
 10
-136.44433280
 20
160.53431898
  0
VERTEX
  8
0
 10
-136.25572709
 20
160.67749544
  0
VERTEX
  8
0
 10
-136.05377899
 20
160.80671560
  0
VERTEX
  8
0
 10
-135.83711573
 20
160.92150186
  0
VERTEX
  8
0
 10
-135.60496717
 20
161.02164552
  0
VERTEX
  8
0
 10
-135.35679546
 20
161.10703498
  0
VERTEX
  8
0
 10
-135.09241457
 20
161.17769296
  0
VERTEX
  8
0
 10
-134.81175247
 20
161.23367679
  0
VERTEX
  8
0
 10
-134.51484349
 20
161.27505073
  0
VERTEX
  8
0
 10
-133.70485617
 20
160.78744537
  0
VERTEX
  8
0
 10
-132.87244388
 20
160.33919516
  0
VERTEX
  8
0
 10
-131.15701997
 20
178.68823986
  0
VERTEX
  8
0
 10
-131.11401968
 20
179.05091102
  0
VERTEX
  8
0
 10
-131.05369672
 20
179.40734569
  0
VERTEX
  8
0
 10
-130.97651361
 20
179.75714890
  0
VERTEX
  8
0
 10
-130.88293287
 20
180.09992569
  0
VERTEX
  8
0
 10
-130.77341703
 20
180.43528109
  0
VERTEX
  8
0
 10
-130.64842860
 20
180.76282012
  0
VERTEX
  8
0
 10
-130.50843010
 20
181.08214782
  0
VERTEX
  8
0
 10
-130.35388406
 20
181.39286923
  0
VERTEX
  8
0
 10
-130.18525300
 20
181.69458937
  0
VERTEX
  8
0
 10
-130.00299945
 20
181.98691327
  0
VERTEX
  8
0
 10
-129.80758591
 20
182.26944597
  0
VERTEX
  8
0
 10
-129.59947492
 20
182.54179249
  0
VERTEX
  8
0
 10
-129.37912900
 20
182.80355788
  0
VERTEX
  8
0
 10
-129.14701066
 20
183.05434716
  0
VERTEX
  8
0
 10
-128.90358243
 20
183.29376536
  0
VERTEX
  8
0
 10
-128.64930683
 20
183.52141751
  0
VERTEX
  8
0
 10
-128.38464639
 20
183.73690865
  0
VERTEX
  8
0
 10
-128.11006361
 20
183.93984381
  0
VERTEX
  8
0
 10
-127.82602104
 20
184.12982801
  0
VERTEX
  8
0
 10
-127.53298118
 20
184.30646630
  0
VERTEX
  8
0
 10
-127.23140655
 20
184.46936370
  0
VERTEX
  8
0
 10
-126.92175969
 20
184.61812524
  0
VERTEX
  8
0
 10
-126.60450311
 20
184.75235596
  0
VERTEX
  8
0
 10
-126.28009934
 20
184.87166089
  0
VERTEX
  8
0
 10
-125.94901089
 20
184.97564505
  0
VERTEX
  8
0
 10
-125.61170028
 20
185.06391349
  0
VERTEX
  8
0
 10
-125.26863004
 20
185.13607122
  0
VERTEX
  8
0
 10
-124.92026270
 20
185.19172329
  0
VERTEX
  8
0
 10
-124.56706076
 20
185.23047473
  0
VERTEX
  8
0
 10
-124.20948676
 20
185.25193056
  0
VERTEX
  8
0
 10
-123.84800321
 20
185.25569582
  0
VERTEX
  8
0
 10
-123.48307264
 20
185.24137554
  0
VERTEX
  8
0
 10
-105.12656955
 20
184.06462036
  0
VERTEX
  8
0
 10
-105.37068861
 20
184.77707211
  0
VERTEX
  8
0
 10
-105.64166458
 20
185.47945566
  0
VERTEX
  8
0
 10
-105.93918798
 20
186.17101219
  0
VERTEX
  8
0
 10
-106.26294936
 20
186.85098292
  0
VERTEX
  8
0
 10
-106.18419293
 20
187.13810734
  0
VERTEX
  8
0
 10
-106.09322984
 20
187.40795444
  0
VERTEX
  8
0
 10
-105.99000285
 20
187.66048527
  0
VERTEX
  8
0
 10
-105.87445113
 20
187.89576757
  0
VERTEX
  8
0
 10
-105.74653553
 20
188.11398537
  0
VERTEX
  8
0
 10
-105.60630982
 20
188.31568356
  0
VERTEX
  8
0
 10
-105.45389709
 20
188.50164599
  0
VERTEX
  8
0
 10
-105.28961609
 20
188.67327749
  0
VERTEX
  8
0
 10
-105.11391975
 20
188.83238510
  0
VERTEX
  8
0
 10
-104.92757477
 20
188.98168593
  0
VERTEX
  8
0
 10
-104.52694420
 20
189.26438616
  0
VERTEX
  8
0
 10
-104.09766543
 20
189.55373048
  0
VERTEX
  8
0
 10
-103.65119286
 20
189.88582887
  0
VERTEX
  8
0
 10
-103.42508177
 20
190.07889830
  0
VERTEX
  8
0
 10
-103.19875988
 20
190.29504628
  0
VERTEX
  8
0
 10
-102.97334995
 20
190.53748557
  0
VERTEX
  8
0
 10
-102.74971547
 20
190.80848616
  0
VERTEX
  8
0
 10
-102.52859212
 20
191.10986534
  0
VERTEX
  8
0
 10
-102.31049998
 20
191.44270716
  0
VERTEX
  8
0
 10
-102.09586711
 20
191.80779827
  0
VERTEX
  8
0
 10
-101.88496502
 20
192.20544608
  0
VERTEX
  8
0
 10
-101.67800087
 20
192.63577688
  0
VERTEX
  8
0
 10
-101.47507933
 20
193.09866015
  0
VERTEX
  8
0
 10
-101.27626646
 20
193.59388711
  0
VERTEX
  8
0
 10
-101.08157387
 20
194.12117960
  0
VERTEX
  8
0
 10
-100.70452185
 20
195.27097089
  0
VERTEX
  8
0
 10
-102.46296381
 20
197.41622823
  0
VERTEX
  8
0
 10
-104.41856381
 20
199.38342823
  0
VERTEX
  8
0
 10
-105.60070049
 20
199.12508522
  0
VERTEX
  8
0
 10
-106.14503796
 20
198.98494498
  0
VERTEX
  8
0
 10
-106.65789408
 20
198.83744953
  0
VERTEX
  8
0
 10
-107.13899093
 20
198.68258220
  0
VERTEX
  8
0
 10
-107.58811411
 20
198.52038749
  0
VERTEX
  8
0
 10
-108.00512315
 20
198.35095628
  0
VERTEX
  8
0
 10
-108.39012264
 20
198.17450749
  0
VERTEX
  8
0
 10
-108.74339085
 20
197.99134243
  0
VERTEX
  8
0
 10
-109.06566686
 20
197.80196685
  0
VERTEX
  8
0
 10
-109.35797633
 20
197.60700820
  0
VERTEX
  8
0
 10
-109.62205244
 20
197.40738291
  0
VERTEX
  8
0
 10
-109.86006576
 20
197.20418053
  0
VERTEX
  8
0
 10
-110.07509843
 20
196.99884427
  0
VERTEX
  8
0
 10
-110.45081879
 20
196.58840389
  0
VERTEX
  8
0
 10
-110.78226008
 20
196.19072680
  0
VERTEX
  8
0
 10
-111.10418245
 20
195.82087512
  0
VERTEX
  8
0
 10
-111.27163458
 20
195.65065475
  0
VERTEX
  8
0
 10
-111.44776143
 20
195.49202384
  0
VERTEX
  8
0
 10
-111.63518822
 20
195.34602104
  0
VERTEX
  8
0
 10
-111.83566665
 20
195.21328044
  0
VERTEX
  8
0
 10
-112.05056192
 20
195.09426183
  0
VERTEX
  8
0
 10
-112.28064132
 20
194.98916722
  0
VERTEX
  8
0
 10
-112.52644148
 20
194.89810546
  0
VERTEX
  8
0
 10
-112.78814944
 20
194.82105629
  0
VERTEX
  8
0
 10
-113.06583877
 20
194.75796606
  0
VERTEX
  8
0
 10
-113.35947654
 20
194.70877388
  0
VERTEX
  8
0
 10
-113.87218530
 20
195.02307650
  0
VERTEX
  8
0
 10
-114.39385204
 20
195.32143681
  0
VERTEX
  8
0
 10
-114.92410062
 20
195.60367609
  0
VERTEX
  8
0
 10
-115.46255490
 20
195.86961561
  0
VERTEX
  8
0
 10
-116.00883873
 20
196.11907665
  0
VERTEX
  8
0
 10
-116.56257597
 20
196.35188050
  0
VERTEX
  8
0
 10
-117.12339048
 20
196.56784844
  0
VERTEX
  8
0
 10
-117.69090611
 20
196.76680174
  0
VERTEX
  8
0
 10
-117.83824453
 20
197.02551857
  0
VERTEX
  8
0
 10
-117.96473463
 20
197.28064990
  0
VERTEX
  8
0
 10
-118.07030839
 20
197.53220866
  0
VERTEX
  8
0
 10
-118.15497070
 20
197.78028578
  0
VERTEX
  8
0
 10
-118.21882399
 20
198.02503905
  0
VERTEX
  8
0
 10
-118.26229160
 20
198.26681576
  0
VERTEX
  8
0
 10
-118.28601482
 20
198.50608313
  0
VERTEX
  8
0
 10
-118.29121240
 20
198.74360914
  0
VERTEX
  8
0
 10
-118.27948240
 20
198.98035128
  0
VERTEX
  8
0
 10
-118.25328823
 20
199.21768871
  0
VERTEX
  8
0
 10
-118.16989889
 20
199.70087655
  0
VERTEX
  8
0
 10
-118.07095030
 20
200.20901981
  0
VERTEX
  8
0
 10
-117.99007554
 20
200.75955262
  0
VERTEX
  8
0
 10
-117.96671156
 20
201.05595801
  0
VERTEX
  8
0
 10
-117.95951751
 20
201.36883145
  0
VERTEX
  8
0
 10
-117.97155909
 20
201.69965081
  0
VERTEX
  8
0
 10
-118.00505198
 20
202.04941062
  0
VERTEX
  8
0
 10
-118.06180143
 20
202.41887570
  0
VERTEX
  8
0
 10
-118.14294170
 20
202.80844485
  0
VERTEX
  8
0
 10
-118.24933175
 20
203.21837160
  0
VERTEX
  8
0
 10
-118.38138092
 20
203.64868136
  0
VERTEX
  8
0
 10
-118.53932498
 20
204.09931694
  0
VERTEX
  8
0
 10
-118.72314569
 20
204.57011203
  0
VERTEX
  8
0
 10
-118.93274210
 20
205.06087231
  0
VERTEX
  8
0
 10
-119.16792574
 20
205.57139285
  0
VERTEX
  8
0
 10
-119.71433492
 20
206.65103411
  0
VERTEX
  8
0
 10
-122.47466717
 20
206.92455389
  0
VERTEX
  8
0
 10
-125.24850565
 20
206.93275633
  0
VERTEX
  8
0
 10
-125.90172642
 20
205.91418337
  0
VERTEX
  8
0
 10
-126.18753702
 20
205.43018454
  0
VERTEX
  8
0
 10
-126.44588603
 20
204.96324547
  0
VERTEX
  8
0
 10
-126.67656513
 20
204.51355089
  0
VERTEX
  8
0
 10
-126.87945420
 20
204.08128386
  0
VERTEX
  8
0
 10
-127.05451817
 20
203.66660798
  0
VERTEX
  8
0
 10
-127.20198578
 20
203.26960410
  0
VERTEX
  8
0
 10
-127.32226686
 20
202.89028849
  0
VERTEX
  8
0
 10
-127.41624166
 20
202.52849618
  0
VERTEX
  8
0
 10
-127.48507908
 20
202.18394559
  0
VERTEX
  8
0
 10
-127.53065271
 20
201.85605919
  0
VERTEX
  8
0
 10
-127.55526776
 20
201.54407257
  0
VERTEX
  8
0
 10
-127.56212415
 20
201.24682685
  0
VERTEX
  8
0
 10
-127.53757338
 20
200.69092726
  0
VERTEX
  8
0
 10
-127.49073761
 20
200.17536271
  0
VERTEX
  8
0
 10
-127.45684646
 20
199.68620459
  0
VERTEX
  8
0
 10
-127.45488902
 20
199.44743407
  0
VERTEX
  8
0
 10
-127.46726052
 20
199.21072459
  0
VERTEX
  8
0
 10
-127.49655170
 20
198.97495427
  0
VERTEX
  8
0
 10
-127.54444959
 20
198.73933283
  0
VERTEX
  8
0
 10
-127.61224462
 20
198.50322006
  0
VERTEX
  8
0
 10
-127.70062222
 20
198.26621625
  0
VERTEX
  8
0
 10
-127.81003878
 20
198.02801890
  0
VERTEX
  8
0
 10
-127.94061227
 20
197.78848143
  0
VERTEX
  8
0
 10
-128.09235675
 20
197.54751390
  0
VERTEX
  8
0
 10
-128.26520588
 20
197.30509652
  0
VERTEX
  8
0
 10
-128.84999124
 20
197.16480220
  0
VERTEX
  8
0
 10
-129.42983792
 20
197.00690070
  0
VERTEX
  8
0
 10
-130.00435359
 20
196.83153164
  0
VERTEX
  8
0
 10
-130.57314590
 20
196.63883460
  0
VERTEX
  8
0
 10
-131.13582250
 20
196.42894920
  0
VERTEX
  8
0
 10
-131.69199104
 20
196.20201502
  0
VERTEX
  8
0
 10
-132.24125918
 20
195.95817167
  0
VERTEX
  8
0
 10
-132.78323456
 20
195.69755875
  0
VERTEX
  8
0
 10
-133.07035898
 20
195.77631517
  0
VERTEX
  8
0
 10
-133.34020608
 20
195.86727827
  0
VERTEX
  8
0
 10
-133.59273691
 20
195.97050525
  0
VERTEX
  8
0
 10
-133.82801921
 20
196.08605697
  0
VERTEX
  8
0
 10
-134.04623701
 20
196.21397258
  0
VERTEX
  8
0
 10
-134.24793520
 20
196.35419828
  0
VERTEX
  8
0
 10
-134.43389763
 20
196.50661101
  0
VERTEX
  8
0
 10
-134.60552913
 20
196.67089202
  0
VERTEX
  8
0
 10
-134.76463673
 20
196.84658835
  0
VERTEX
  8
0
 10
-134.91393757
 20
197.03293333
  0
VERTEX
  8
0
 10
-135.19663780
 20
197.43356390
  0
VERTEX
  8
0
 10
-135.48598212
 20
197.86284267
  0
VERTEX
  8
0
 10
-135.81808051
 20
198.30931524
  0
VERTEX
  8
0
 10
-136.01114994
 20
198.53542633
  0
VERTEX
  8
0
 10
-136.22729792
 20
198.76174822
  0
VERTEX
  8
0
 10
-136.46973721
 20
198.98715815
  0
VERTEX
  8
0
 10
-136.74073780
 20
199.21079264
  0
VERTEX
  8
0
 10
-137.04211698
 20
199.43191598
  0
VERTEX
  8
0
 10
-137.37495880
 20
199.65000813
  0
VERTEX
  8
0
 10
-137.74004991
 20
199.86464099
  0
VERTEX
  8
0
 10
-138.13769772
 20
200.07554308
  0
VERTEX
  8
0
 10
-138.56802852
 20
200.28250724
  0
VERTEX
  8
0
 10
-139.03091178
 20
200.48542877
  0
VERTEX
  8
0
 10
-139.52613875
 20
200.68424164
  0
VERTEX
  8
0
 10
-140.05343123
 20
200.87893423
  0
VERTEX
  8
0
 10
-141.20322252
 20
201.25598625
  0
VERTEX
  8
0
 10
-143.34847987
 20
199.49754429
  0
VERTEX
  8
0
 10
-145.31567987
 20
197.54194429
  0
VERTEX
  8
0
 10
-145.05733686
 20
196.35980761
  0
VERTEX
  8
0
 10
-144.91719661
 20
195.81547014
  0
VERTEX
  8
0
 10
-144.76970117
 20
195.30261402
  0
VERTEX
  8
0
 10
-144.61483384
 20
194.82151718
  0
VERTEX
  8
0
 10
-144.45263913
 20
194.37239400
  0
VERTEX
  8
0
 10
-144.28320792
 20
193.95538495
  0
VERTEX
  8
0
 10
-144.10675913
 20
193.57038546
  0
VERTEX
  8
0
 10
-143.92359407
 20
193.21711726
  0
VERTEX
  8
0
 10
-143.73421848
 20
192.89484124
  0
VERTEX
  8
0
 10
-143.53925983
 20
192.60253178
  0
VERTEX
  8
0
 10
-143.33963455
 20
192.33845566
  0
VERTEX
  8
0
 10
-143.13643217
 20
192.10044234
  0
VERTEX
  8
0
 10
-142.93109590
 20
191.88540967
  0
VERTEX
  8
0
 10
-142.52065552
 20
191.50968932
  0
VERTEX
  8
0
 10
-142.12297844
 20
191.17824802
  0
VERTEX
  8
0
 10
-141.75312676
 20
190.85632566
  0
VERTEX
  8
0
 10
-141.58290638
 20
190.68887353
  0
VERTEX
  8
0
 10
-141.42427548
 20
190.51274667
  0
VERTEX
  8
0
 10
-141.27827268
 20
190.32531988
  0
VERTEX
  8
0
 10
-141.14553208
 20
190.12484145
  0
VERTEX
  8
0
 10
-141.02651347
 20
189.90994618
  0
VERTEX
  8
0
 10
-140.92141886
 20
189.67986678
  0
VERTEX
  8
0
 10
-140.83035709
 20
189.43406662
  0
VERTEX
  8
0
 10
-140.75330793
 20
189.17235866
  0
VERTEX
  8
0
 10
-140.69021770
 20
188.89466933
  0
VERTEX
  8
0
 10
-140.64102552
 20
188.60103156
  0
VERTEX
  8
0
 10
-140.95532814
 20
188.08832281
  0
VERTEX
  8
0
 10
-141.25368845
 20
187.56665607
  0
VERTEX
  8
0
 10
-141.53592772
 20
187.03640748
  0
VERTEX
  8
0
 10
-141.80186724
 20
186.49795321
  0
VERTEX
  8
0
 10
-142.05132829
 20
185.95166937
  0
VERTEX
  8
0
 10
-142.28413214
 20
185.39793213
  0
VERTEX
  8
0
 10
-142.50010007
 20
184.83711762
  0
VERTEX
  8
0
 10
-142.69905337
 20
184.26960199
  0
VERTEX
  8
0
 10
-142.95777020
 20
184.12226357
  0
VERTEX
  8
0
 10
-143.21290154
 20
183.99577348
  0
VERTEX
  8
0
 10
-143.46446030
 20
183.89019971
  0
VERTEX
  8
0
 10
-143.71253742
 20
183.80553741
  0
VERTEX
  8
0
 10
-143.95729069
 20
183.74168411
  0
VERTEX
  8
0
 10
-144.19906740
 20
183.69821650
  0
VERTEX
  8
0
 10
-144.43833477
 20
183.67449328
  0
VERTEX
  8
0
 10
-144.67586078
 20
183.66929570
  0
VERTEX
  8
0
 10
-144.91260292
 20
183.68102570
  0
VERTEX
  8
0
 10
-145.14994035
 20
183.70721987
  0
VERTEX
  8
0
 10
-145.63312819
 20
183.79060921
  0
VERTEX
  8
0
 10
-146.14127145
 20
183.88955781
  0
VERTEX
  8
0
 10
-146.69180425
 20
183.97043257
  0
VERTEX
  8
0
 10
-146.98820964
 20
183.99379655
  0
VERTEX
  8
0
 10
-147.30108309
 20
184.00099059
  0
VERTEX
  8
0
 10
-147.63190245
 20
183.98894901
  0
VERTEX
  8
0
 10
-147.98166226
 20
183.95545612
  0
VERTEX
  8
0
 10
-148.35112734
 20
183.89870667
  0
VERTEX
  8
0
 10
-148.74069648
 20
183.81756640
  0
VERTEX
  8
0
 10
-149.15062324
 20
183.71117636
  0
VERTEX
  8
0
 10
-149.58093300
 20
183.57912719
  0
VERTEX
  8
0
 10
-150.03156858
 20
183.42118312
  0
VERTEX
  8
0
 10
-150.50236367
 20
183.23736242
  0
VERTEX
  8
0
 10
-150.99312394
 20
183.02776600
  0
VERTEX
  8
0
 10
-151.50364449
 20
182.79258236
  0
VERTEX
  8
0
 10
-152.58328574
 20
182.24617318
  0
VERTEX
  8
0
 10
-152.85680553
 20
179.48584093
  0
VERTEX
  8
0
 10
-152.86500797
 20
176.71200245
  0
VERTEX
  8
0
 10
-151.84643501
 20
176.05878168
  0
VERTEX
  8
0
 10
-151.36243617
 20
175.77297109
  0
VERTEX
  8
0
 10
-150.89549711
 20
175.51462207
  0
VERTEX
  8
0
 10
-150.44580253
 20
175.28394297
  0
VERTEX
  8
0
 10
-150.01353550
 20
175.08105391
  0
VERTEX
  8
0
 10
-149.59885962
 20
174.90598994
  0
VERTEX
  8
0
 10
-149.20185573
 20
174.75852232
  0
VERTEX
  8
0
 10
-148.82254013
 20
174.63824124
  0
VERTEX
  8
0
 10
-148.46074782
 20
174.54426644
  0
VERTEX
  8
0
 10
-148.11619723
 20
174.47542902
  0
VERTEX
  8
0
 10
-147.78831082
 20
174.42985540
  0
VERTEX
  8
0
 10
-147.47632421
 20
174.40524035
  0
VERTEX
  8
0
 10
-147.17907849
 20
174.39838395
  0
VERTEX
  8
0
 10
-146.62317890
 20
174.42293472
  0
VERTEX
  8
0
 10
-146.10761434
 20
174.46977050
  0
VERTEX
  8
0
 10
-145.61845623
 20
174.50366164
  0
VERTEX
  8
0
 10
-145.37968571
 20
174.50561908
  0
VERTEX
  8
0
 10
-145.14297623
 20
174.49324758
  0
VERTEX
  8
0
 10
-144.90720590
 20
174.46395640
  0
VERTEX
  8
0
 10
-144.67158447
 20
174.41605851
  0
VERTEX
  8
0
 10
-144.43547170
 20
174.34826348
  0
VERTEX
  8
0
 10
-144.19846788
 20
174.25988589
  0
VERTEX
  8
0
 10
-143.96027053
 20
174.15046932
  0
VERTEX
  8
0
 10
-143.72073307
 20
174.01989583
  0
VERTEX
  8
0
 10
-143.47976553
 20
173.86815136
  0
VERTEX
  8
0
 10
-143.23734816
 20
173.69530222
  0
VERTEX
  8
0
 10
-143.09705383
 20
173.11051687
  0
VERTEX
  8
0
 10
-142.93915234
 20
172.53067018
  0
VERTEX
  8
0
 10
-142.76378328
 20
171.95615451
  0
VERTEX
  8
0
 10
-142.57108624
 20
171.38736220
  0
VERTEX
  8
0
 10
-142.36120084
 20
170.82468560
  0
VERTEX
  8
0
 10
-142.13426666
 20
170.26851706
  0
VERTEX
  8
0
 10
-141.89042331
 20
169.71924892
  0
VERTEX
  8
0
 10
-141.62981039
 20
169.17727355
  0
VERTEX
  8
0
 10
-141.70856681
 20
168.89014912
  0
VERTEX
  8
0
 10
-141.79952990
 20
168.62030203
  0
VERTEX
  8
0
 10
-141.90275689
 20
168.36777119
  0
VERTEX
  8
0
 10
-142.01830861
 20
168.13248889
  0
VERTEX
  8
0
 10
-142.14622421
 20
167.91427110
  0
VERTEX
  8
0
 10
-142.28644992
 20
167.71257290
  0
VERTEX
  8
0
 10
-142.43886265
 20
167.52661047
  0
VERTEX
  8
0
 10
-142.60314365
 20
167.35497898
  0
VERTEX
  8
0
 10
-142.77883999
 20
167.19587137
  0
VERTEX
  8
0
 10
-142.96518497
 20
167.04657054
  0
VERTEX
  8
0
 10
-143.36581554
 20
166.76387030
  0
VERTEX
  8
0
 10
-143.79509431
 20
166.47452598
  0
VERTEX
  8
0
 10
-144.24156688
 20
166.14242760
  0
VERTEX
  8
0
 10
-144.46767797
 20
165.94935816
  0
VERTEX
  8
0
 10
-144.69399986
 20
165.73321019
  0
VERTEX
  8
0
 10
-144.91940979
 20
165.49077089
  0
VERTEX
  8
0
 10
-145.14304428
 20
165.21977030
  0
VERTEX
  8
0
 10
-145.36416762
 20
164.91839113
  0
VERTEX
  8
0
 10
-145.58225977
 20
164.58554930
  0
VERTEX
  8
0
 10
-145.79689263
 20
164.22045820
  0
VERTEX
  8
0
 10
-146.00779472
 20
163.82281038
  0
VERTEX
  8
0
 10
-146.21475887
 20
163.39247958
  0
VERTEX
  8
0
 10
-146.41768041
 20
162.92959632
  0
VERTEX
  8
0
 10
-146.61649328
 20
162.43436935
  0
VERTEX
  8
0
 10
-146.81118587
 20
161.90707687
  0
VERTEX
  8
0
 10
-147.18823789
 20
160.75728558
  0
SEQEND
  0
POLYLINE
  8
Default_Layer
 62
256
 66
   1
 39
0.000000
 70
    0
  0
VERTEX
  8
0
 10
-88.63924570
 20
-57.91442984
  0
VERTEX
  8
0
 10
-88.62935009
 20
-58.51377231
  0
VERTEX
  8
0
 10
-88.58978783
 20
-59.10924043
  0
VERTEX
  8
0
 10
-88.52096905
 20
-59.69982776
  0
VERTEX
  8
0
 10
-88.42330389
 20
-60.28452786
  0
VERTEX
  8
0
 10
-88.29720248
 20
-60.86233427
  0
VERTEX
  8
0
 10
-88.14307496
 20
-61.43224056
  0
VERTEX
  8
0
 10
-87.96133145
 20
-61.99324028
  0
VERTEX
  8
0
 10
-87.75238210
 20
-62.54432699
  0
VERTEX
  8
0
 10
-87.51663704
 20
-63.08449423
  0
VERTEX
  8
0
 10
-87.25450640
 20
-63.61273557
  0
VERTEX
  8
0
 10
-86.96640031
 20
-64.12804456
  0
VERTEX
  8
0
 10
-86.65272892
 20
-64.62941476
  0
VERTEX
  8
0
 10
-86.31390235
 20
-65.11583971
  0
VERTEX
  8
0
 10
-85.95033073
 20
-65.58631299
  0
VERTEX
  8
0
 10
-85.56242421
 20
-66.03982813
  0
VERTEX
  8
0
 10
-85.15059291
 20
-66.47537871
  0
VERTEX
  8
0
 10
-84.71754666
 20
-66.88984253
  0
VERTEX
  8
0
 10
-84.26639115
 20
-67.28049091
  0
VERTEX
  8
0
 10
-83.79813031
 20
-67.64690763
  0
VERTEX
  8
0
 10
-83.31376809
 20
-67.98867644
  0
VERTEX
  8
0
 10
-82.81430843
 20
-68.30538114
  0
VERTEX
  8
0
 10
-82.30075526
 20
-68.59660548
  0
VERTEX
  8
0
 10
-81.77411253
 20
-68.86193325
  0
VERTEX
  8
0
 10
-81.23538418
 20
-69.10094821
  0
VERTEX
  8
0
 10
-80.68557415
 20
-69.31323414
  0
VERTEX
  8
0
 10
-80.12568638
 20
-69.49837481
  0
VERTEX
  8
0
 10
-79.55672481
 20
-69.65595399
  0
VERTEX
  8
0
 10
-78.97969337
 20
-69.78555547
  0
VERTEX
  8
0
 10
-78.39559602
 20
-69.88676300
  0
VERTEX
  8
0
 10
-77.80543668
 20
-69.95916036
  0
VERTEX
  8
0
 10
-77.21021930
 20
-70.00233133
  0
VERTEX
  8
0
 10
-76.61094783
 20
-70.01585968
  0
VERTEX
  8
0
 10
-76.01174761
 20
-69.99947616
  0
VERTEX
  8
0
 10
-75.41674269
 20
-69.95346967
  0
VERTEX
  8
0
 10
-74.82693500
 20
-69.87826122
  0
VERTEX
  8
0
 10
-74.24332650
 20
-69.77427181
  0
VERTEX
  8
0
 10
-73.66691912
 20
-69.64192245
  0
VERTEX
  8
0
 10
-73.09871482
 20
-69.48163414
  0
VERTEX
  8
0
 10
-72.53971553
 20
-69.29382790
  0
VERTEX
  8
0
 10
-71.99092321
 20
-69.07892472
  0
VERTEX
  8
0
 10
-71.45333980
 20
-68.83734561
  0
VERTEX
  8
0
 10
-70.92796725
 20
-68.56951159
  0
VERTEX
  8
0
 10
-70.41580750
 20
-68.27584364
  0
VERTEX
  8
0
 10
-69.91786249
 20
-67.95676279
  0
VERTEX
  8
0
 10
-69.43513418
 20
-67.61269003
  0
VERTEX
  8
0
 10
-68.96862451
 20
-67.24404637
  0
VERTEX
  8
0
 10
-68.51933543
 20
-66.85125282
  0
VERTEX
  8
0
 10
-68.08826887
 20
-66.43473038
  0
VERTEX
  8
0
 10
-67.67851750
 20
-65.99722251
  0
VERTEX
  8
0
 10
-67.29277623
 20
-65.54186427
  0
VERTEX
  8
0
 10
-66.93145039
 20
-65.06966404
  0
VERTEX
  8
0
 10
-66.59494531
 20
-64.58163021
  0
VERTEX
  8
0
 10
-66.28366634
 20
-64.07877117
  0
VERTEX
  8
0
 10
-65.99801879
 20
-63.56209530
  0
VERTEX
  8
0
 10
-65.73840802
 20
-63.03261099
  0
VERTEX
  8
0
 10
-65.50523935
 20
-62.49132664
  0
VERTEX
  8
0
 10
-65.29891811
 20
-61.93925061
  0
VERTEX
  8
0
 10
-65.11984964
 20
-61.37739132
  0
VERTEX
  8
0
 10
-64.96843928
 20
-60.80675713
  0
VERTEX
  8
0
 10
-64.84509235
 20
-60.22835645
  0
VERTEX
  8
0
 10
-64.75021420
 20
-59.64319765
  0
VERTEX
  8
0
 10
-64.68421015
 20
-59.05228912
  0
VERTEX
  8
0
 10
-64.64748554
 20
-58.45663926
  0
VERTEX
  8
0
 10
-64.64044570
 20
-57.85725644
  0
SEQEND
  0
POLYLINE
  8
Default_Layer
 62
256
 66
   1
 39
0.000000
 70
    1
  0
VERTEX
  8
0
 10
-119.19867782
 20
140.37214356
  0
VERTEX
  8
0
 10
-120.95711978
 20
142.51740090
  0
VERTEX
  8
0
 10
-120.58006776
 20
143.66719219
  0
VERTEX
  8
0
 10
-120.38537517
 20
144.19448468
  0
VERTEX
  8
0
 10
-120.18656230
 20
144.68971164
  0
VERTEX
  8
0
 10
-119.98364076
 20
145.15259491
  0
VERTEX
  8
0
 10
-119.77667661
 20
145.58292570
  0
VERTEX
  8
0
 10
-119.56577452
 20
145.98057352
  0
VERTEX
  8
0
 10
-119.35114166
 20
146.34566463
  0
VERTEX
  8
0
 10
-119.13304951
 20
146.67850645
  0
VERTEX
  8
0
 10
-118.91192617
 20
146.97988563
  0
VERTEX
  8
0
 10
-118.68829168
 20
147.25088622
  0
VERTEX
  8
0
 10
-118.46288175
 20
147.49332551
  0
VERTEX
  8
0
 10
-118.23655986
 20
147.70947349
  0
VERTEX
  8
0
 10
-118.01044877
 20
147.90254292
  0
VERTEX
  8
0
 10
-117.56397620
 20
148.23464131
  0
VERTEX
  8
0
 10
-117.13469743
 20
148.52398563
  0
VERTEX
  8
0
 10
-116.73406686
 20
148.80668586
  0
VERTEX
  8
0
 10
-116.54772188
 20
148.95598669
  0
VERTEX
  8
0
 10
-116.37202554
 20
149.11509430
  0
VERTEX
  8
0
 10
-116.20774454
 20
149.28672580
  0
VERTEX
  8
0
 10
-116.05533181
 20
149.47268823
  0
VERTEX
  8
0
 10
-115.91510611
 20
149.67438642
  0
VERTEX
  8
0
 10
-115.78719050
 20
149.89260422
  0
VERTEX
  8
0
 10
-115.67163878
 20
150.12788652
  0
VERTEX
  8
0
 10
-115.56841179
 20
150.38041735
  0
VERTEX
  8
0
 10
-115.47744870
 20
150.65026445
  0
VERTEX
  8
0
 10
-115.39869228
 20
150.93738887
  0
VERTEX
  8
0
 10
-115.65930520
 20
151.47936425
  0
VERTEX
  8
0
 10
-115.90314855
 20
152.02863238
  0
VERTEX
  8
0
 10
-116.13008273
 20
152.58480092
  0
VERTEX
  8
0
 10
-116.33996813
 20
153.14747752
  0
VERTEX
  8
0
 10
-116.53266517
 20
153.71626983
  0
VERTEX
  8
0
 10
-116.70803423
 20
154.29078551
  0
VERTEX
  8
0
 10
-116.86593572
 20
154.87063219
  0
VERTEX
  8
0
 10
-117.00623005
 20
155.45541755
  0
VERTEX
  8
0
 10
-117.24864742
 20
155.62826668
  0
VERTEX
  8
0
 10
-117.48961496
 20
155.78001116
  0
VERTEX
  8
0
 10
-117.72915242
 20
155.91058464
  0
VERTEX
  8
0
 10
-117.96734977
 20
156.02000121
  0
VERTEX
  8
0
 10
-118.20435359
 20
156.10837881
  0
VERTEX
  8
0
 10
-118.44046636
 20
156.17617384
  0
VERTEX
  8
0
 10
-118.67608779
 20
156.22407172
  0
VERTEX
  8
0
 10
-118.91185812
 20
156.25336291
  0
VERTEX
  8
0
 10
-119.14856760
 20
156.26573441
  0
VERTEX
  8
0
 10
-119.38733812
 20
156.26377697
  0
VERTEX
  8
0
 10
-119.87649623
 20
156.22988582
  0
VERTEX
  8
0
 10
-120.39206079
 20
156.18305005
  0
VERTEX
  8
0
 10
-120.94796038
 20
156.15849928
  0
VERTEX
  8
0
 10
-121.24520610
 20
156.16535567
  0
VERTEX
  8
0
 10
-121.55719271
 20
156.18997072
  0
VERTEX
  8
0
 10
-121.88507912
 20
156.23554434
  0
VERTEX
  8
0
 10
-122.22962971
 20
156.30438177
  0
VERTEX
  8
0
 10
-122.59142202
 20
156.39835657
  0
VERTEX
  8
0
 10
-122.97073762
 20
156.51863765
  0
VERTEX
  8
0
 10
-123.36774151
 20
156.66610526
  0
VERTEX
  8
0
 10
-123.78241739
 20
156.84116923
  0
VERTEX
  8
0
 10
-124.21468442
 20
157.04405829
  0
VERTEX
  8
0
 10
-124.66437900
 20
157.27473740
  0
VERTEX
  8
0
 10
-125.13131807
 20
157.53308641
  0
VERTEX
  8
0
 10
-125.61531690
 20
157.81889701
  0
VERTEX
  8
0
 10
-126.63388986
 20
158.47211777
  0
VERTEX
  8
0
 10
-126.62568742
 20
161.24595626
  0
VERTEX
  8
0
 10
-126.35216763
 20
164.00628851
  0
VERTEX
  8
0
 10
-125.27252638
 20
164.55269768
  0
VERTEX
  8
0
 10
-124.76200583
 20
164.78788133
  0
VERTEX
  8
0
 10
-124.27124556
 20
164.99747774
  0
VERTEX
  8
0
 10
-123.80045047
 20
165.18129845
  0
VERTEX
  8
0
 10
-123.34981489
 20
165.33924251
  0
VERTEX
  8
0
 10
-122.91950513
 20
165.47129168
  0
VERTEX
  8
0
 10
-122.50957837
 20
165.57768173
  0
VERTEX
  8
0
 10
-122.12000923
 20
165.65882200
  0
VERTEX
  8
0
 10
-121.75054415
 20
165.71557144
  0
VERTEX
  8
0
 10
-121.40078434
 20
165.74906434
  0
VERTEX
  8
0
 10
-121.06996498
 20
165.76110592
  0
VERTEX
  8
0
 10
-120.75709153
 20
165.75391187
  0
VERTEX
  8
0
 10
-120.46068614
 20
165.73054789
  0
VERTEX
  8
0
 10
-119.91015334
 20
165.64967313
  0
VERTEX
  8
0
 10
-119.40201008
 20
165.55072454
  0
VERTEX
  8
0
 10
-118.91882224
 20
165.46733519
  0
VERTEX
  8
0
 10
-118.68148481
 20
165.44114103
  0
VERTEX
  8
0
 10
-118.44474267
 20
165.42941102
  0
VERTEX
  8
0
 10
-118.20721666
 20
165.43460861
  0
VERTEX
  8
0
 10
-117.96794929
 20
165.45833183
  0
VERTEX
  8
0
 10
-117.72617258
 20
165.50179944
  0
VERTEX
  8
0
 10
-117.48141931
 20
165.56565273
  0
VERTEX
  8
0
 10
-117.23334219
 20
165.65031503
  0
VERTEX
  8
0
 10
-116.98178343
 20
165.75588880
  0
VERTEX
  8
0
 10
-116.72665209
 20
165.88237889
  0
VERTEX
  8
0
 10
-116.46793526
 20
166.02971732
  0
VERTEX
  8
0
 10
-116.26898196
 20
166.59723295
  0
VERTEX
  8
0
 10
-116.05301403
 20
167.15804745
  0
VERTEX
  8
0
 10
-115.82021018
 20
167.71178470
  0
VERTEX
  8
0
 10
-115.57074913
 20
168.25806853
  0
VERTEX
  8
0
 10
-115.30480961
 20
168.79652281
  0
VERTEX
  8
0
 10
-115.02257034
 20
169.32677139
  0
VERTEX
  8
0
 10
-114.72421003
 20
169.84843813
  0
VERTEX
  8
0
 10
-114.40990741
 20
170.36114689
  0
VERTEX
  8
0
 10
-114.45909959
 20
170.65478466
  0
VERTEX
  8
0
 10
-114.52218982
 20
170.93247398
  0
VERTEX
  8
0
 10
-114.59923898
 20
171.19418195
  0
VERTEX
  8
0
 10
-114.69030075
 20
171.43998210
  0
VERTEX
  8
0
 10
-114.79539536
 20
171.67006150
  0
VERTEX
  8
0
 10
-114.91441397
 20
171.88495677
  0
VERTEX
  8
0
 10
-115.04715457
 20
172.08543521
  0
VERTEX
  8
0
 10
-115.19315737
 20
172.27286200
  0
VERTEX
  8
0
 10
-115.35178827
 20
172.44898885
  0
VERTEX
  8
0
 10
-115.52200865
 20
172.61644098
  0
VERTEX
  8
0
 10
-115.89186033
 20
172.93836334
  0
VERTEX
  8
0
 10
-116.28953741
 20
173.26980464
  0
VERTEX
  8
0
 10
-116.69997779
 20
173.64552500
  0
VERTEX
  8
0
 10
-116.90531406
 20
173.86055767
  0
VERTEX
  8
0
 10
-117.10851644
 20
174.09857098
  0
VERTEX
  8
0
 10
-117.30814172
 20
174.36264710
  0
VERTEX
  8
0
 10
-117.50310037
 20
174.65495657
  0
VERTEX
  8
0
 10
-117.69247596
 20
174.97723258
  0
VERTEX
  8
0
 10
-117.87564102
 20
175.33050079
  0
VERTEX
  8
0
 10
-118.05208981
 20
175.71550028
  0
VERTEX
  8
0
 10
-118.22152102
 20
176.13250932
  0
VERTEX
  8
0
 10
-118.38371573
 20
176.58163250
  0
VERTEX
  8
0
 10
-118.53858306
 20
177.06272935
  0
VERTEX
  8
0
 10
-118.68607850
 20
177.57558547
  0
VERTEX
  8
0
 10
-118.82621875
 20
178.11992294
  0
VERTEX
  8
0
 10
-119.08456176
 20
179.30205961
  0
VERTEX
  8
0
 10
-117.11736176
 20
181.25765961
  0
VERTEX
  8
0
 10
-114.97210442
 20
183.01610157
  0
VERTEX
  8
0
 10
-113.82231312
 20
182.63904956
  0
VERTEX
  8
0
 10
-113.29502064
 20
182.44435696
  0
VERTEX
  8
0
 10
-112.79979367
 20
182.24554409
  0
VERTEX
  8
0
 10
-112.33691041
 20
182.04262256
  0
VERTEX
  8
0
 10
-111.90657961
 20
181.83565840
  0
VERTEX
  8
0
 10
-111.50893180
 20
181.62475632
  0
VERTEX
  8
0
 10
-111.14384069
 20
181.41012345
  0
VERTEX
  8
0
 10
-110.81099887
 20
181.19203130
  0
VERTEX
  8
0
 10
-110.50961969
 20
180.97090796
  0
VERTEX
  8
0
 10
-110.23861910
 20
180.74727348
  0
VERTEX
  8
0
 10
-109.99617981
 20
180.52186355
  0
VERTEX
  8
0
 10
-109.78003183
 20
180.29554166
  0
VERTEX
  8
0
 10
-109.58696240
 20
180.06943056
  0
VERTEX
  8
0
 10
-109.25486401
 20
179.62295800
  0
VERTEX
  8
0
 10
-108.96551969
 20
179.19367923
  0
VERTEX
  8
0
 10
-108.68281946
 20
178.79304866
  0
VERTEX
  8
0
 10
-108.53351862
 20
178.60670368
  0
VERTEX
  8
0
 10
-108.37441102
 20
178.43100734
  0
VERTEX
  8
0
 10
-108.20277952
 20
178.26672634
  0
VERTEX
  8
0
 10
-108.01681709
 20
178.11431360
  0
VERTEX
  8
0
 10
-107.81511890
 20
177.97408790
  0
VERTEX
  8
0
 10
-107.59690110
 20
177.84617230
  0
VERTEX
  8
0
 10
-107.36161880
 20
177.73062057
  0
VERTEX
  8
0
 10
-107.10908797
 20
177.62739359
  0
VERTEX
  8
0
 10
-106.83924087
 20
177.53643050
  0
VERTEX
  8
0
 10
-106.55211645
 20
177.45767407
  0
VERTEX
  8
0
 10
-106.01014107
 20
177.71828700
  0
VERTEX
  8
0
 10
-105.46087293
 20
177.96213035
  0
VERTEX
  8
0
 10
-104.90470439
 20
178.18906452
  0
VERTEX
  8
0
 10
-104.34202780
 20
178.39894993
  0
VERTEX
  8
0
 10
-103.77323548
 20
178.59164696
  0
VERTEX
  8
0
 10
-103.19871981
 20
178.76701603
  0
VERTEX
  8
0
 10
-102.61887313
 20
178.92491752
  0
VERTEX
  8
0
 10
-102.03408777
 20
179.06521184
  0
VERTEX
  8
0
 10
-101.86123864
 20
179.30762922
  0
VERTEX
  8
0
 10
-101.70949416
 20
179.54859676
  0
VERTEX
  8
0
 10
-101.57892067
 20
179.78813422
  0
VERTEX
  8
0
 10
-101.46950411
 20
180.02633157
  0
VERTEX
  8
0
 10
-101.38112651
 20
180.26333539
  0
VERTEX
  8
0
 10
-101.31333148
 20
180.49944816
  0
VERTEX
  8
0
 10
-101.26543359
 20
180.73506959
  0
VERTEX
  8
0
 10
-101.23614241
 20
180.97083992
  0
VERTEX
  8
0
 10
-101.22377091
 20
181.20754940
  0
VERTEX
  8
0
 10
-101.22572835
 20
181.44631992
  0
VERTEX
  8
0
 10
-101.25961950
 20
181.93547803
  0
VERTEX
  8
0
 10
-101.30645527
 20
182.45104259
  0
VERTEX
  8
0
 10
-101.33100604
 20
183.00694217
  0
VERTEX
  8
0
 10
-101.32414965
 20
183.30418790
  0
VERTEX
  8
0
 10
-101.29953460
 20
183.61617451
  0
VERTEX
  8
0
 10
-101.25396097
 20
183.94406091
  0
VERTEX
  8
0
 10
-101.18512355
 20
184.28861150
  0
VERTEX
  8
0
 10
-101.09114875
 20
184.65040382
  0
VERTEX
  8
0
 10
-100.97086767
 20
185.02971942
  0
VERTEX
  8
0
 10
-100.82340006
 20
185.42672331
  0
VERTEX
  8
0
 10
-100.64833609
 20
185.84139918
  0
VERTEX
  8
0
 10
-100.44544702
 20
186.27366621
  0
VERTEX
  8
0
 10
-100.21476792
 20
186.72336079
  0
VERTEX
  8
0
 10
-99.95641891
 20
187.19029986
  0
VERTEX
  8
0
 10
-99.67060831
 20
187.67429870
  0
VERTEX
  8
0
 10
-99.01738754
 20
188.69287165
  0
VERTEX
  8
0
 10
-96.24354906
 20
188.68466921
  0
VERTEX
  8
0
 10
-93.48321681
 20
188.41114943
  0
VERTEX
  8
0
 10
-92.93680763
 20
187.33150817
  0
VERTEX
  8
0
 10
-92.70162399
 20
186.82098763
  0
VERTEX
  8
0
 10
-92.49202758
 20
186.33022736
  0
VERTEX
  8
0
 10
-92.30820687
 20
185.85943227
  0
VERTEX
  8
0
 10
-92.15026281
 20
185.40879669
  0
VERTEX
  8
0
 10
-92.01821364
 20
184.97848692
  0
VERTEX
  8
0
 10
-91.91182359
 20
184.56856017
  0
VERTEX
  8
0
 10
-91.83068332
 20
184.17899102
  0
VERTEX
  8
0
 10
-91.77393387
 20
183.80952595
  0
VERTEX
  8
0
 10
-91.74044098
 20
183.45976614
  0
VERTEX
  8
0
 10
-91.72839940
 20
183.12894678
  0
VERTEX
  8
0
 10
-91.73559345
 20
182.81607333
  0
VERTEX
  8
0
 10
-91.75895743
 20
182.51966794
  0
VERTEX
  8
0
 10
-91.83983219
 20
181.96913514
  0
VERTEX
  8
0
 10
-91.93878078
 20
181.46099188
  0
VERTEX
  8
0
 10
-92.02217012
 20
180.97780404
  0
VERTEX
  8
0
 10
-92.04836429
 20
180.74046660
  0
VERTEX
  8
0
 10
-92.06009429
 20
180.50372446
  0
VERTEX
  8
0
 10
-92.05489671
 20
180.26619846
  0
VERTEX
  8
0
 10
-92.03117349
 20
180.02693108
  0
VERTEX
  8
0
 10
-91.98770588
 20
179.78515438
  0
VERTEX
  8
0
 10
-91.92385259
 20
179.54040111
  0
VERTEX
  8
0
 10
-91.83919028
 20
179.29232399
  0
VERTEX
  8
0
 10
-91.73361652
 20
179.04076522
  0
VERTEX
  8
0
 10
-91.60712643
 20
178.78563389
  0
VERTEX
  8
0
 10
-91.45978800
 20
178.52691706
  0
VERTEX
  8
0
 10
-90.89227237
 20
178.32796376
  0
VERTEX
  8
0
 10
-90.33145786
 20
178.11199583
  0
VERTEX
  8
0
 10
-89.77772062
 20
177.87919198
  0
VERTEX
  8
0
 10
-89.23143679
 20
177.62973093
  0
VERTEX
  8
0
 10
-88.69298251
 20
177.36379141
  0
VERTEX
  8
0
 10
-88.16273393
 20
177.08155214
  0
VERTEX
  8
0
 10
-87.64106719
 20
176.78319183
  0
VERTEX
  8
0
 10
-87.12835843
 20
176.46888921
  0
VERTEX
  8
0
 10
-86.83472066
 20
176.51808138
  0
VERTEX
  8
0
 10
-86.55703133
 20
176.58117161
  0
VERTEX
  8
0
 10
-86.29532337
 20
176.65822078
  0
VERTEX
  8
0
 10
-86.04952321
 20
176.74928255
  0
VERTEX
  8
0
 10
-85.81944381
 20
176.85437715
  0
VERTEX
  8
0
 10
-85.60454854
 20
176.97339577
  0
VERTEX
  8
0
 10
-85.40407011
 20
177.10613636
  0
VERTEX
  8
0
 10
-85.21664332
 20
177.25213916
  0
VERTEX
  8
0
 10
-85.04051647
 20
177.41077007
  0
VERTEX
  8
0
 10
-84.87306434
 20
177.58099044
  0
VERTEX
  8
0
 10
-84.55114197
 20
177.95084212
  0
VERTEX
  8
0
 10
-84.21970068
 20
178.34851921
  0
VERTEX
  8
0
 10
-83.84398032
 20
178.75895959
  0
VERTEX
  8
0
 10
-83.62894765
 20
178.96429586
  0
VERTEX
  8
0
 10
-83.39093433
 20
179.16749824
  0
VERTEX
  8
0
 10
-83.12685822
 20
179.36712352
  0
VERTEX
  8
0
 10
-82.83454875
 20
179.56208217
  0
VERTEX
  8
0
 10
-82.51227274
 20
179.75145775
  0
VERTEX
  8
0
 10
-82.15900453
 20
179.93462282
  0
VERTEX
  8
0
 10
-81.77400504
 20
180.11107161
  0
VERTEX
  8
0
 10
-81.35699600
 20
180.28050281
  0
VERTEX
  8
0
 10
-80.90787282
 20
180.44269753
  0
VERTEX
  8
0
 10
-80.42677597
 20
180.59756486
  0
VERTEX
  8
0
 10
-79.91391985
 20
180.74506030
  0
VERTEX
  8
0
 10
-79.36958238
 20
180.88520055
  0
VERTEX
  8
0
 10
-78.18744570
 20
181.14354356
  0
VERTEX
  8
0
 10
-76.23184570
 20
179.17634356
  0
VERTEX
  8
0
 10
-74.47340374
 20
177.03108621
  0
VERTEX
  8
0
 10
-74.85045576
 20
175.88129492
  0
VERTEX
  8
0
 10
-75.04514835
 20
175.35400244
  0
VERTEX
  8
0
 10
-75.24396122
 20
174.85877547
  0
VERTEX
  8
0
 10
-75.44688276
 20
174.39589221
  0
VERTEX
  8
0
 10
-75.65384691
 20
173.96556141
  0
VERTEX
  8
0
 10
-75.86474900
 20
173.56791359
  0
VERTEX
  8
0
 10
-76.07938187
 20
173.20282249
  0
VERTEX
  8
0
 10
-76.29747401
 20
172.86998066
  0
VERTEX
  8
0
 10
-76.51859736
 20
172.56860149
  0
VERTEX
  8
0
 10
-76.74223184
 20
172.29760090
  0
VERTEX
  8
0
 10
-76.96764177
 20
172.05516160
  0
VERTEX
  8
0
 10
-77.19396366
 20
171.83901363
  0
VERTEX
  8
0
 10
-77.42007475
 20
171.64594419
  0
VERTEX
  8
0
 10
-77.86654732
 20
171.31384581
  0
VERTEX
  8
0
 10
-78.29582609
 20
171.02450149
  0
VERTEX
  8
0
 10
-78.69645666
 20
170.74180126
  0
VERTEX
  8
0
 10
-78.88280164
 20
170.59250042
  0
VERTEX
  8
0
 10
-79.05849798
 20
170.43339281
  0
VERTEX
  8
0
 10
-79.22277898
 20
170.26176132
  0
VERTEX
  8
0
 10
-79.37519171
 20
170.07579889
  0
VERTEX
  8
0
 10
-79.51541742
 20
169.87410069
  0
VERTEX
  8
0
 10
-79.64333302
 20
169.65588290
  0
VERTEX
  8
0
 10
-79.75888474
 20
169.42060060
  0
VERTEX
  8
0
 10
-79.86211173
 20
169.16806976
  0
VERTEX
  8
0
 10
-79.95307482
 20
168.89822267
  0
VERTEX
  8
0
 10
-80.03183125
 20
168.61109824
  0
VERTEX
  8
0
 10
-79.70259136
 20
167.91902229
  0
VERTEX
  8
0
 10
-79.40053302
 20
167.21497113
  0
VERTEX
  8
0
 10
-79.12598130
 20
166.49974485
  0
VERTEX
  8
0
 10
-78.87926124
 20
165.77414356
  0
VERTEX
  8
0
 10
-67.11504570
 20
165.77414356
  0
VERTEX
  8
0
 10
-66.52201942
 20
165.74478356
  0
VERTEX
  8
0
 10
-65.93903768
 20
165.65778998
  0
VERTEX
  8
0
 10
-65.37003479
 20
165.51479250
  0
VERTEX
  8
0
 10
-64.81894511
 20
165.31742075
  0
VERTEX
  8
0
 10
-64.28970296
 20
165.06730440
  0
VERTEX
  8
0
 10
-63.78624267
 20
164.76607310
  0
VERTEX
  8
0
 10
-63.31249858
 20
164.41535649
  0
VERTEX
  8
0
 10
-62.87240502
 20
164.01678424
  0
VERTEX
  8
0
 10
-62.47383277
 20
163.57669068
  0
VERTEX
  8
0
 10
-62.12311617
 20
163.10294659
  0
VERTEX
  8
0
 10
-61.82188486
 20
162.59948630
  0
VERTEX
  8
0
 10
-61.57176851
 20
162.07024415
  0
VERTEX
  8
0
 10
-61.37439676
 20
161.51915447
  0
VERTEX
  8
0
 10
-61.23139928
 20
160.95015159
  0
VERTEX
  8
0
 10
-61.14440571
 20
160.36716984
  0
VERTEX
  8
0
 10
-61.11504570
 20
159.77414356
  0
VERTEX
  8
0
 10
-61.14440571
 20
159.18111728
  0
VERTEX
  8
0
 10
-61.23139928
 20
158.59813553
  0
VERTEX
  8
0
 10
-61.37439676
 20
158.02913265
  0
VERTEX
  8
0
 10
-61.57176851
 20
157.47804296
  0
VERTEX
  8
0
 10
-61.82188486
 20
156.94880081
  0
VERTEX
  8
0
 10
-62.12311617
 20
156.44534052
  0
VERTEX
  8
0
 10
-62.47383277
 20
155.97159643
  0
VERTEX
  8
0
 10
-62.87240502
 20
155.53150287
  0
VERTEX
  8
0
 10
-63.31249858
 20
155.13293062
  0
VERTEX
  8
0
 10
-63.78624267
 20
154.78221402
  0
VERTEX
  8
0
 10
-64.28970296
 20
154.48098272
  0
VERTEX
  8
0
 10
-64.81894511
 20
154.23086636
  0
VERTEX
  8
0
 10
-65.37003479
 20
154.03349462
  0
VERTEX
  8
0
 10
-65.93903768
 20
153.89049713
  0
VERTEX
  8
0
 10
-66.52201942
 20
153.80350356
  0
VERTEX
  8
0
 10
-67.11504570
 20
153.77414356
  0
VERTEX
  8
0
 10
-78.87932495
 20
153.77414356
  0
VERTEX
  8
0
 10
-79.06129221
 20
153.23025000
  0
VERTEX
  8
0
 10
-79.25827212
 20
152.69359488
  0
VERTEX
  8
0
 10
-79.47002547
 20
152.16442723
  0
VERTEX
  8
0
 10
-79.69631306
 20
151.64299607
  0
VERTEX
  8
0
 10
-79.93689569
 20
151.12955044
  0
VERTEX
  8
0
 10
-80.19153417
 20
150.62433936
  0
VERTEX
  8
0
 10
-80.45998929
 20
150.12761185
  0
VERTEX
  8
0
 10
-80.74202186
 20
149.63961694
  0
VERTEX
  8
0
 10
-81.03739267
 20
149.16060366
  0
VERTEX
  8
0
 10
-81.34586253
 20
148.69082103
  0
VERTEX
  8
0
 10
-81.66719223
 20
148.23051808
  0
VERTEX
  8
0
 10
-82.00114257
 20
147.77994383
  0
VERTEX
  8
0
 10
-82.34747436
 20
147.33934732
  0
VERTEX
  8
0
 10
-82.70594839
 20
146.90897757
  0
VERTEX
  8
0
 10
-83.07632547
 20
146.48908360
  0
VERTEX
  8
0
 10
-83.45836639
 20
146.07991444
  0
VERTEX
  8
0
 10
-83.85183196
 20
145.68171912
  0
VERTEX
  8
0
 10
-84.25648297
 20
145.29474667
  0
VERTEX
  8
0
 10
-84.67208023
 20
144.91924610
  0
VERTEX
  8
0
 10
-85.09838453
 20
144.55546645
  0
VERTEX
  8
0
 10
-85.53515668
 20
144.20365674
  0
VERTEX
  8
0
 10
-85.98215747
 20
143.86406600
  0
VERTEX
  8
0
 10
-86.43914771
 20
143.53694325
  0
VERTEX
  8
0
 10
-86.90588819
 20
143.22253753
  0
VERTEX
  8
0
 10
-87.38213973
 20
142.92109785
  0
VERTEX
  8
0
 10
-87.86766310
 20
142.63287325
  0
VERTEX
  8
0
 10
-88.36221913
 20
142.35811274
  0
VERTEX
  8
0
 10
-88.86556860
 20
142.09706536
  0
VERTEX
  8
0
 10
-89.37747231
 20
141.84998014
  0
VERTEX
  8
0
 10
-89.89769107
 20
141.61710609
  0
VERTEX
  8
0
 10
-90.42598568
 20
141.39869225
  0
VERTEX
  8
0
 10
-90.96211694
 20
141.19498764
  0
VERTEX
  8
0
 10
-91.50391996
 20
141.00688720
  0
VERTEX
  8
0
 10
-92.04916049
 20
140.83509498
  0
VERTEX
  8
0
 10
-92.59749525
 20
140.67957367
  0
VERTEX
  8
0
 10
-93.14858095
 20
140.54028597
  0
VERTEX
  8
0
 10
-93.70207434
 20
140.41719456
  0
VERTEX
  8
0
 10
-94.25763212
 20
140.31026214
  0
VERTEX
  8
0
 10
-94.81491103
 20
140.21945139
  0
VERTEX
  8
0
 10
-95.37356778
 20
140.14472500
  0
VERTEX
  8
0
 10
-95.93325910
 20
140.08604568
  0
VERTEX
  8
0
 10
-96.49364172
 20
140.04337610
  0
VERTEX
  8
0
 10
-97.05437235
 20
140.01667896
  0
VERTEX
  8
0
 10
-97.61510773
 20
140.00591695
  0
VERTEX
  8
0
 10
-98.17550457
 20
140.01105276
  0
VERTEX
  8
0
 10
-98.73521959
 20
140.03204908
  0
VERTEX
  8
0
 10
-99.29390953
 20
140.06886860
  0
VERTEX
  8
0
 10
-99.85123110
 20
140.12147402
  0
VERTEX
  8
0
 10
-100.40684104
 20
140.18982802
  0
VERTEX
  8
0
 10
-100.96039605
 20
140.27389330
  0
VERTEX
  8
0
 10
-101.51155287
 20
140.37363254
  0
VERTEX
  8
0
 10
-102.05996822
 20
140.48900844
  0
VERTEX
  8
0
 10
-102.60529882
 20
140.61998368
  0
VERTEX
  8
0
 10
-103.14720140
 20
140.76652097
  0
VERTEX
  8
0
 10
-103.68533268
 20
140.92858298
  0
VERTEX
  8
0
 10
-104.21934938
 20
141.10613242
  0
VERTEX
  8
0
 10
-104.74890823
 20
141.29913196
  0
VERTEX
  8
0
 10
-105.27366595
 20
141.50754431
  0
VERTEX
  8
0
 10
-105.79327927
 20
141.73133214
  0
VERTEX
  8
0
 10
-106.30740490
 20
141.97045817
  0
VERTEX
  8
0
 10
-106.81569958
 20
142.22488506
  0
VERTEX
  8
0
 10
-107.31782002
 20
142.49457552
  0
VERTEX
  8
0
 10
-107.81342295
 20
142.77949224
  0
VERTEX
  8
0
 10
-108.30216509
 20
143.07959791
  0
VERTEX
  8
0
 10
-108.59580286
 20
143.03040573
  0
VERTEX
  8
0
 10
-108.87349219
 20
142.96731550
  0
VERTEX
  8
0
 10
-109.13520015
 20
142.89026633
  0
VERTEX
  8
0
 10
-109.38100031
 20
142.79920457
  0
VERTEX
  8
0
 10
-109.61107971
 20
142.69410996
  0
VERTEX
  8
0
 10
-109.82597498
 20
142.57509135
  0
VERTEX
  8
0
 10
-110.02645341
 20
142.44235075
  0
VERTEX
  8
0
 10
-110.21388020
 20
142.29634795
  0
VERTEX
  8
0
 10
-110.39000705
 20
142.13771704
  0
VERTEX
  8
0
 10
-110.55745918
 20
141.96749667
  0
VERTEX
  8
0
 10
-110.87938155
 20
141.59764499
  0
VERTEX
  8
0
 10
-111.21082284
 20
141.19996791
  0
VERTEX
  8
0
 10
-111.58654320
 20
140.78952752
  0
VERTEX
  8
0
 10
-111.80157587
 20
140.58419126
  0
VERTEX
  8
0
 10
-112.03958919
 20
140.38098888
  0
VERTEX
  8
0
 10
-112.30366530
 20
140.18136359
  0
VERTEX
  8
0
 10
-112.59597477
 20
139.98640494
  0
VERTEX
  8
0
 10
-112.91825079
 20
139.79702936
  0
VERTEX
  8
0
 10
-113.27151899
 20
139.61386430
  0
VERTEX
  8
0
 10
-113.65651848
 20
139.43741551
  0
VERTEX
  8
0
 10
-114.07352752
 20
139.26798430
  0
VERTEX
  8
0
 10
-114.52265070
 20
139.10578959
  0
VERTEX
  8
0
 10
-115.00374755
 20
138.95092226
  0
VERTEX
  8
0
 10
-115.51660367
 20
138.80342681
  0
VERTEX
  8
0
 10
-116.06094114
 20
138.66328657
  0
VERTEX
  8
0
 10
-117.24307782
 20
138.40494356
  0
VERTEX
  8
0
 10
-119.19867782
 20
140.37214356
  0
SEQEND
  0
POLYLINE
  8
Default_Layer
 62
256
 66
   1
 39
0.000000
 70
    0
  0
VERTEX
  8
0
 10
-64.64044570
 20
-58.17425644
  0
VERTEX
  8
0
 10
-64.64044570
 20
90.31932727
  0
VERTEX
  8
0
 10
-64.62791821
 20
90.63569625
  0
VERTEX
  8
0
 10
-64.59063832
 20
90.94862261
  0
VERTEX
  8
0
 10
-64.52905996
 20
91.25671332
  0
VERTEX
  8
0
 10
-64.44363702
 20
91.55857533
  0
VERTEX
  8
0
 10
-64.33482344
 20
91.85281564
  0
VERTEX
  8
0
 10
-64.20307310
 20
92.13804121
  0
VERTEX
  8
0
 10
-64.04883992
 20
92.41285901
  0
VERTEX
  8
0
 10
-63.87257782
 20
92.67587601
  0
VERTEX
  8
0
 10
-63.55294416
 20
93.13080015
  0
VERTEX
  8
0
 10
-63.25089237
 20
93.59438370
  0
VERTEX
  8
0
 10
-62.96646088
 20
94.06614620
  0
VERTEX
  8
0
 10
-62.69968812
 20
94.54560714
  0
VERTEX
  8
0
 10
-62.45061250
 20
95.03228604
  0
VERTEX
  8
0
 10
-62.21927246
 20
95.52570243
  0
VERTEX
  8
0
 10
-62.00570642
 20
96.02537580
  0
VERTEX
  8
0
 10
-61.80995280
 20
96.53082569
  0
VERTEX
  8
0
 10
-61.63205004
 20
97.04157159
  0
VERTEX
  8
0
 10
-61.47203654
 20
97.55713303
  0
VERTEX
  8
0
 10
-61.32995075
 20
98.07702952
  0
VERTEX
  8
0
 10
-61.20583108
 20
98.60078058
  0
VERTEX
  8
0
 10
-61.09971596
 20
99.12790571
  0
VERTEX
  8
0
 10
-61.01164381
 20
99.65792444
  0
VERTEX
  8
0
 10
-60.94165307
 20
100.19035627
  0
VERTEX
  8
0
 10
-60.88978214
 20
100.72472073
  0
VERTEX
  8
0
 10
-60.85606947
 20
101.26053732
  0
VERTEX
  8
0
 10
-60.84055347
 20
101.79732556
  0
VERTEX
  8
0
 10
-60.84327257
 20
102.33460497
  0
VERTEX
  8
0
 10
-60.86426520
 20
102.87189505
  0
VERTEX
  8
0
 10
-60.90356977
 20
103.40871533
  0
VERTEX
  8
0
 10
-60.96122472
 20
103.94458531
  0
VERTEX
  8
0
 10
-61.03726846
 20
104.47902452
  0
VERTEX
  8
0
 10
-61.13173943
 20
105.01155246
  0
VERTEX
  8
0
 10
-61.24467605
 20
105.54168866
  0
VERTEX
  8
0
 10
-61.37611675
 20
106.06895261
  0
VERTEX
  8
0
 10
-61.52609994
 20
106.59286385
  0
VERTEX
  8
0
 10
-61.69466406
 20
107.11294188
  0
VERTEX
  8
0
 10
-61.88184752
 20
107.62870622
  0
VERTEX
  8
0
 10
-62.08768876
 20
108.13967638
  0
VERTEX
  8
0
 10
-62.31222620
 20
108.64537188
  0
VERTEX
  8
0
 10
-62.55549827
 20
109.14531222
  0
VERTEX
  8
0
 10
-62.81613139
 20
109.63642527
  0
VERTEX
  8
0
 10
-63.09245248
 20
110.11579115
  0
VERTEX
  8
0
 10
-63.38405065
 20
110.58315784
  0
VERTEX
  8
0
 10
-63.69051503
 20
111.03827331
  0
VERTEX
  8
0
 10
-64.01143474
 20
111.48088551
  0
VERTEX
  8
0
 10
-64.34639889
 20
111.91074242
  0
VERTEX
  8
0
 10
-64.69499662
 20
112.32759198
  0
VERTEX
  8
0
 10
-65.05681704
 20
112.73118218
  0
VERTEX
  8
0
 10
-65.43144927
 20
113.12126097
  0
VERTEX
  8
0
 10
-65.81848244
 20
113.49757633
  0
VERTEX
  8
0
 10
-66.21750566
 20
113.85987620
  0
VERTEX
  8
0
 10
-66.62810807
 20
114.20790856
  0
VERTEX
  8
0
 10
-67.04987877
 20
114.54142138
  0
VERTEX
  8
0
 10
-67.48240690
 20
114.86016261
  0
VERTEX
  8
0
 10
-67.92528157
 20
115.16388022
  0
VERTEX
  8
0
 10
-68.37809191
 20
115.45232218
  0
VERTEX
  8
0
 10
-68.84042703
 20
115.72523645
  0
VERTEX
  8
0
 10
-69.31187606
 20
115.98237099
  0
VERTEX
  8
0
 10
-69.79202812
 20
116.22347377
  0
VERTEX
  8
0
 10
-70.28047234
 20
116.44829276
  0
VERTEX
  8
0
 10
-70.77679782
 20
116.65657591
  0
VERTEX
  8
0
 10
-71.28059370
 20
116.84807120
  0
VERTEX
  8
0
 10
-71.79144910
 20
117.02252658
  0
VERTEX
  8
0
 10
-72.30895313
 20
117.17969003
  0
VERTEX
  8
0
 10
-72.83269493
 20
117.31930950
  0
VERTEX
  8
0
 10
-73.36226360
 20
117.44113296
  0
VERTEX
  8
0
 10
-73.89724828
 20
117.54490838
  0
VERTEX
  8
0
 10
-74.43723808
 20
117.63038372
  0
VERTEX
  8
0
 10
-74.98182213
 20
117.69730694
  0
VERTEX
  8
0
 10
-75.53058954
 20
117.74542601
  0
VERTEX
  8
0
 10
-76.08312945
 20
117.77448889
  0
VERTEX
  8
0
 10
-76.63903096
 20
117.78424355
  0
VERTEX
  8
0
 10
-77.19493305
 20
117.77452187
  0
VERTEX
  8
0
 10
-77.74747468
 20
117.74549177
  0
VERTEX
  8
0
 10
-78.29624495
 20
117.69740526
  0
VERTEX
  8
0
 10
-78.84083296
 20
117.63051435
  0
VERTEX
  8
0
 10
-79.38082784
 20
117.54507105
  0
VERTEX
  8
0
 10
-79.91581867
 20
117.44132738
  0
VERTEX
  8
0
 10
-80.44539457
 20
117.31953534
  0
VERTEX
  8
0
 10
-80.96914465
 20
117.17994694
  0
VERTEX
  8
0
 10
-81.48665801
 20
117.02281420
  0
VERTEX
  8
0
 10
-81.99752375
 20
116.84838912
  0
VERTEX
  8
0
 10
-82.50133099
 20
116.65692373
  0
VERTEX
  8
0
 10
-82.99766884
 20
116.44867002
  0
VERTEX
  8
0
 10
-83.48612639
 20
116.22388001
  0
VERTEX
  8
0
 10
-83.96629275
 20
115.98280572
  0
VERTEX
  8
0
 10
-84.43775704
 20
115.72569915
  0
VERTEX
  8
0
 10
-84.90010835
 20
115.45281231
  0
VERTEX
  8
0
 10
-85.35293580
 20
115.16439722
  0
VERTEX
  8
0
 10
-85.79582849
 20
114.86070588
  0
VERTEX
  8
0
 10
-86.22837553
 20
114.54199031
  0
VERTEX
  8
0
 10
-86.65016602
 20
114.20850252
  0
VERTEX
  8
0
 10
-87.06078907
 20
113.86049452
  0
VERTEX
  8
0
 10
-87.45983379
 20
113.49821832
  0
VERTEX
  8
0
 10
-87.84688929
 20
113.12192594
  0
VERTEX
  8
0
 10
-88.22154466
 20
112.73186937
  0
VERTEX
  8
0
 10
-88.58338903
 20
112.32830064
  0
VERTEX
  8
0
 10
-88.93201149
 20
111.91147176
  0
VERTEX
  8
0
 10
-89.26700114
 20
111.48163473
  0
VERTEX
  8
0
 10
-89.58794711
 20
111.03904157
  0
VERTEX
  8
0
 10
-89.89443849
 20
110.58394429
  0
VERTEX
  8
0
 10
-90.18606439
 20
110.11659489
  0
VERTEX
  8
0
 10
-90.46241392
 20
109.63724540
  0
VERTEX
  8
0
 10
-90.72307618
 20
109.14614782
  0
VERTEX
  8
0
 10
-90.96637791
 20
108.64622191
  0
VERTEX
  8
0
 10
-91.19094535
 20
108.14053974
  0
VERTEX
  8
0
 10
-91.39681690
 20
107.62958179
  0
VERTEX
  8
0
 10
-91.58403097
 20
107.11382856
  0
VERTEX
  8
0
 10
-91.75262594
 20
106.59376053
  0
VERTEX
  8
0
 10
-91.90264022
 20
106.06985820
  0
VERTEX
  8
0
 10
-92.03411220
 20
105.54260204
  0
VERTEX
  8
0
 10
-92.14708027
 20
105.01247255
  0
VERTEX
  8
0
 10
-92.24158284
 20
104.47995021
  0
VERTEX
  8
0
 10
-92.31765829
 20
103.94551551
  0
VERTEX
  8
0
 10
-92.37534503
 20
103.40964895
  0
VERTEX
  8
0
 10
-92.41468146
 20
102.87283101
  0
VERTEX
  8
0
 10
-92.43570596
 20
102.33554217
  0
VERTEX
  8
0
 10
-92.43845694
 20
101.79826293
  0
VERTEX
  8
0
 10
-92.42297279
 20
101.26147376
  0
VERTEX
  8
0
 10
-92.38929190
 20
100.72565517
  0
VERTEX
  8
0
 10
-92.33745268
 20
100.19128764
  0
VERTEX
  8
0
 10
-92.26749353
 20
99.65885166
  0
VERTEX
  8
0
 10
-92.17945283
 20
99.12882771
  0
VERTEX
  8
0
 10
-92.07336898
 20
98.60169628
  0
VERTEX
  8
0
 10
-91.94928039
 20
98.07793786
  0
VERTEX
  8
0
 10
-91.80722544
 20
97.55803294
  0
VERTEX
  8
0
 10
-91.64724254
 20
97.04246201
  0
VERTEX
  8
0
 10
-91.46937007
 20
96.53170555
  0
VERTEX
  8
0
 10
-91.27364644
 20
96.02624405
  0
VERTEX
  8
0
 10
-91.06011005
 20
95.52655800
  0
VERTEX
  8
0
 10
-90.82879928
 20
95.03312789
  0
VERTEX
  8
0
 10
-90.57975255
 20
94.54643421
  0
VERTEX
  8
0
 10
-90.31300823
 20
94.06695744
  0
VERTEX
  8
0
 10
-90.02860473
 20
93.59517808
  0
VERTEX
  8
0
 10
-89.72658045
 20
93.13157660
  0
VERTEX
  8
0
 10
-89.40697378
 20
92.67663350
  0
VERTEX
  8
0
 10
-89.23074306
 20
92.41363172
  0
VERTEX
  8
0
 10
-89.07653763
 20
92.13883241
  0
VERTEX
  8
0
 10
-88.94481124
 20
91.85362821
  0
VERTEX
  8
0
 10
-88.83601762
 20
91.55941177
  0
VERTEX
  8
0
 10
-88.75061052
 20
91.25757573
  0
VERTEX
  8
0
 10
-88.68904367
 20
90.94951274
  0
VERTEX
  8
0
 10
-88.65177082
 20
90.63661546
  0
VERTEX
  8
0
 10
-88.63924570
 20
90.32027652
  0
VERTEX
  8
0
 10
-88.63924570
 20
-58.01565644
  0
SEQEND
  0
POLYLINE
  8
Default_Layer
 62
256
 66
   1
 39
0.000000
 70
    1
  0
VERTEX
  8
0
 10
-124.45081190
 20
116.91606363
  0
VERTEX
  8
0
 10
-124.01948807
 20
117.31167835
  0
VERTEX
  8
0
 10
-123.57143706
 20
117.68447195
  0
VERTEX
  8
0
 10
-123.10758386
 20
118.03407152
  0
VERTEX
  8
0
 10
-122.62885344
 20
118.36010419
  0
VERTEX
  8
0
 10
-122.13617081
 20
118.66219705
  0
VERTEX
  8
0
 10
-121.63046095
 20
118.93997722
  0
VERTEX
  8
0
 10
-121.11264884
 20
119.19307178
  0
VERTEX
  8
0
 10
-120.58365948
 20
119.42110786
  0
VERTEX
  8
0
 10
-120.04441785
 20
119.62371256
  0
VERTEX
  8
0
 10
-119.49584894
 20
119.80051298
  0
VERTEX
  8
0
 10
-118.93887773
 20
119.95113622
  0
VERTEX
  8
0
 10
-118.37442922
 20
120.07520940
  0
VERTEX
  8
0
 10
-117.80342840
 20
120.17235962
  0
VERTEX
  8
0
 10
-117.22680024
 20
120.24221398
  0
VERTEX
  8
0
 10
-116.64546974
 20
120.28439959
  0
VERTEX
  8
0
 10
-116.06036189
 20
120.29854356
  0
VERTEX
  8
0
 10
-65.21034257
 20
120.29844356
  0
VERTEX
  8
0
 10
-64.79866361
 20
120.30885228
  0
VERTEX
  8
0
 10
-64.39238896
 20
120.33974502
  0
VERTEX
  8
0
 10
-63.99202128
 20
120.39061910
  0
VERTEX
  8
0
 10
-63.59806321
 20
120.46097189
  0
VERTEX
  8
0
 10
-63.21101743
 20
120.55030073
  0
VERTEX
  8
0
 10
-62.83138657
 20
120.65810296
  0
VERTEX
  8
0
 10
-62.45967330
 20
120.78387592
  0
VERTEX
  8
0
 10
-62.09638028
 20
120.92711697
  0
VERTEX
  8
0
 10
-61.74201016
 20
121.08732346
  0
VERTEX
  8
0
 10
-61.39706560
 20
121.26399272
  0
VERTEX
  8
0
 10
-61.06204925
 20
121.45662210
  0
VERTEX
  8
0
 10
-60.73746376
 20
121.66470895
  0
VERTEX
  8
0
 10
-60.42381180
 20
121.88775062
  0
VERTEX
  8
0
 10
-60.12159602
 20
122.12524445
  0
VERTEX
  8
0
 10
-59.83131908
 20
122.37668778
  0
VERTEX
  8
0
 10
-59.55348363
 20
122.64157797
  0
VERTEX
  8
0
 10
-59.28859233
 20
122.91941236
  0
VERTEX
  8
0
 10
-59.03714783
 20
123.20968830
  0
VERTEX
  8
0
 10
-58.79965279
 20
123.51190313
  0
VERTEX
  8
0
 10
-58.57660986
 20
123.82555419
  0
VERTEX
  8
0
 10
-58.36852171
 20
124.15013884
  0
VERTEX
  8
0
 10
-58.17589098
 20
124.48515442
  0
VERTEX
  8
0
 10
-57.99922034
 20
124.83009828
  0
VERTEX
  8
0
 10
-57.83901244
 20
125.18446776
  0
VERTEX
  8
0
 10
-57.69576993
 20
125.54776020
  0
VERTEX
  8
0
 10
-57.56999548
 20
125.91947297
  0
VERTEX
  8
0
 10
-57.46219173
 20
126.29910339
  0
VERTEX
  8
0
 10
-57.37286134
 20
126.68614882
  0
VERTEX
  8
0
 10
-57.30250697
 20
127.08010660
  0
VERTEX
  8
0
 10
-57.25163128
 20
127.48047408
  0
VERTEX
  8
0
 10
-57.22073692
 20
127.88674861
  0
VERTEX
  8
0
 10
-57.21032654
 20
128.29842753
  0
VERTEX
  8
0
 10
-57.22073527
 20
128.71010649
  0
VERTEX
  8
0
 10
-57.25162800
 20
129.11638114
  0
VERTEX
  8
0
 10
-57.30250209
 20
129.51674882
  0
VERTEX
  8
0
 10
-57.37285488
 20
129.91070689
  0
VERTEX
  8
0
 10
-57.46218371
 20
130.29775268
  0
VERTEX
  8
0
 10
-57.56998594
 20
130.67738353
  0
VERTEX
  8
0
 10
-57.69575891
 20
131.04909680
  0
VERTEX
  8
0
 10
-57.83899996
 20
131.41238982
  0
VERTEX
  8
0
 10
-57.99920644
 20
131.76675994
  0
VERTEX
  8
0
 10
-58.17587570
 20
132.11170450
  0
VERTEX
  8
0
 10
-58.36850508
 20
132.44672085
  0
VERTEX
  8
0
 10
-58.57659194
 20
132.77130634
  0
VERTEX
  8
0
 10
-58.79963360
 20
133.08495830
  0
VERTEX
  8
0
 10
-59.03712743
 20
133.38717408
  0
VERTEX
  8
0
 10
-59.28857077
 20
133.67745102
  0
VERTEX
  8
0
 10
-59.55346096
 20
133.95528647
  0
VERTEX
  8
0
 10
-59.83129535
 20
134.22017778
  0
VERTEX
  8
0
 10
-60.12157128
 20
134.47162227
  0
VERTEX
  8
0
 10
-60.42378611
 20
134.70911731
  0
VERTEX
  8
0
 10
-60.73743718
 20
134.93216024
  0
VERTEX
  8
0
 10
-61.06202183
 20
135.14024839
  0
VERTEX
  8
0
 10
-61.39703741
 20
135.33287912
  0
VERTEX
  8
0
 10
-61.74198126
 20
135.50954976
  0
VERTEX
  8
0
 10
-62.09635074
 20
135.66975766
  0
VERTEX
  8
0
 10
-62.45964319
 20
135.81300017
  0
VERTEX
  8
0
 10
-62.83135595
 20
135.93877463
  0
VERTEX
  8
0
 10
-63.21098637
 20
136.04657837
  0
VERTEX
  8
0
 10
-63.59803180
 20
136.13590876
  0
VERTEX
  8
0
 10
-63.99198959
 20
136.20626313
  0
VERTEX
  8
0
 10
-64.39235707
 20
136.25713882
  0
VERTEX
  8
0
 10
-64.79863159
 20
136.28803318
  0
VERTEX
  8
0
 10
-65.21031051
 20
136.29844356
  0
VERTEX
  8
0
 10
-114.20349526
 20
136.29854356
  0
VERTEX
  8
0
 10
-114.95531294
 20
136.31524017
  0
VERTEX
  8
0
 10
-115.70303843
 20
136.36507706
  0
VERTEX
  8
0
 10
-116.44565280
 20
136.44767945
  0
VERTEX
  8
0
 10
-117.18213708
 20
136.56267252
  0
VERTEX
  8
0
 10
-117.91147234
 20
136.70968150
  0
VERTEX
  8
0
 10
-118.63263961
 20
136.88833157
  0
VERTEX
  8
0
 10
-119.34461995
 20
137.09824794
  0
VERTEX
  8
0
 10
-120.04639442
 20
137.33905583
  0
VERTEX
  8
0
 10
-120.73694405
 20
137.61038043
  0
VERTEX
  8
0
 10
-121.41524991
 20
137.91184695
  0
VERTEX
  8
0
 10
-122.08029304
 20
138.24308058
  0
VERTEX
  8
0
 10
-122.73105449
 20
138.60370655
  0
VERTEX
  8
0
 10
-123.36651531
 20
138.99335004
  0
VERTEX
  8
0
 10
-123.98565655
 20
139.41163627
  0
VERTEX
  8
0
 10
-124.58745927
 20
139.85819044
  0
VERTEX
  8
0
 10
-125.17090451
 20
140.33263774
  0
VERTEX
  8
0
 10
-125.62261726
 20
140.70283682
  0
VERTEX
  8
0
 10
-126.08513915
 20
141.05430672
  0
VERTEX
  8
0
 10
-126.55791985
 20
141.38697641
  0
VERTEX
  8
0
 10
-127.04040899
 20
141.70077491
  0
VERTEX
  8
0
 10
-127.53205623
 20
141.99563120
  0
VERTEX
  8
0
 10
-128.03231121
 20
142.27147428
  0
VERTEX
  8
0
 10
-128.54062358
 20
142.52823314
  0
VERTEX
  8
0
 10
-129.05644300
 20
142.76583676
  0
VERTEX
  8
0
 10
-129.57921910
 20
142.98421416
  0
VERTEX
  8
0
 10
-130.10840154
 20
143.18329431
  0
VERTEX
  8
0
 10
-130.64343997
 20
143.36300621
  0
VERTEX
  8
0
 10
-131.18378403
 20
143.52327886
  0
VERTEX
  8
0
 10
-131.72888337
 20
143.66404125
  0
VERTEX
  8
0
 10
-132.27818764
 20
143.78522237
  0
VERTEX
  8
0
 10
-132.83114648
 20
143.88675121
  0
VERTEX
  8
0
 10
-133.38720955
 20
143.96855677
  0
VERTEX
  8
0
 10
-133.94582650
 20
144.03056804
  0
VERTEX
  8
0
 10
-134.50644697
 20
144.07271402
  0
VERTEX
  8
0
 10
-135.06852060
 20
144.09492369
  0
VERTEX
  8
0
 10
-135.63149706
 20
144.09712606
  0
VERTEX
  8
0
 10
-136.19482598
 20
144.07925011
  0
VERTEX
  8
0
 10
-136.75795702
 20
144.04122483
  0
VERTEX
  8
0
 10
-137.32033982
 20
143.98297923
  0
VERTEX
  8
0
 10
-137.88142403
 20
143.90444229
  0
VERTEX
  8
0
 10
-138.44065929
 20
143.80554300
  0
VERTEX
  8
0
 10
-138.99749527
 20
143.68621037
  0
VERTEX
  8
0
 10
-139.55138160
 20
143.54637338
  0
VERTEX
  8
0
 10
-140.10176793
 20
143.38596102
  0
VERTEX
  8
0
 10
-140.64810392
 20
143.20490229
  0
VERTEX
  8
0
 10
-141.18983920
 20
143.00312619
  0
VERTEX
  8
0
 10
-141.72642343
 20
142.78056170
  0
VERTEX
  8
0
 10
-142.25730626
 20
142.53713783
  0
VERTEX
  8
0
 10
-142.77888272
 20
142.27436462
  0
VERTEX
  8
0
 10
-143.28772268
 20
141.99411566
  0
VERTEX
  8
0
 10
-143.78353806
 20
141.69686521
  0
VERTEX
  8
0
 10
-144.26604075
 20
141.38308756
  0
VERTEX
  8
0
 10
-144.73494268
 20
141.05325696
  0
VERTEX
  8
0
 10
-145.18995574
 20
140.70784769
  0
VERTEX
  8
0
 10
-145.63079185
 20
140.34733402
  0
VERTEX
  8
0
 10
-146.05716291
 20
139.97219022
  0
VERTEX
  8
0
 10
-146.46878082
 20
139.58289055
  0
VERTEX
  8
0
 10
-146.86535751
 20
139.17990929
  0
VERTEX
  8
0
 10
-147.24660487
 20
138.76372070
  0
VERTEX
  8
0
 10
-147.61223481
 20
138.33479907
  0
VERTEX
  8
0
 10
-147.96195924
 20
137.89361865
  0
VERTEX
  8
0
 10
-148.29549007
 20
137.44065372
  0
VERTEX
  8
0
 10
-148.61253920
 20
136.97637854
  0
VERTEX
  8
0
 10
-148.91281855
 20
136.50126739
  0
VERTEX
  8
0
 10
-149.19604001
 20
136.01579454
  0
VERTEX
  8
0
 10
-149.46191551
 20
135.52043426
  0
VERTEX
  8
0
 10
-149.71015694
 20
135.01566081
  0
VERTEX
  8
0
 10
-149.94047622
 20
134.50194846
  0
VERTEX
  8
0
 10
-150.15258524
 20
133.97977150
  0
VERTEX
  8
0
 10
-150.34619593
 20
133.44960418
  0
VERTEX
  8
0
 10
-150.52102018
 20
132.91192077
  0
VERTEX
  8
0
 10
-150.67676991
 20
132.36719555
  0
VERTEX
  8
0
 10
-150.81315702
 20
131.81590279
  0
VERTEX
  8
0
 10
-150.92989341
 20
131.25851675
  0
VERTEX
  8
0
 10
-151.02669101
 20
130.69551171
  0
VERTEX
  8
0
 10
-151.10326171
 20
130.12736194
  0
VERTEX
  8
0
 10
-151.15931742
 20
129.55454170
  0
VERTEX
  8
0
 10
-151.19457006
 20
128.97752526
  0
VERTEX
  8
0
 10
-151.20873152
 20
128.39678691
  0
VERTEX
  8
0
 10
-151.20151372
 20
127.81280089
  0
VERTEX
  8
0
 10
-151.17283503
 20
127.22947483
  0
VERTEX
  8
0
 10
-151.12301703
 20
126.65070393
  0
VERTEX
  8
0
 10
-151.05237640
 20
126.07694386
  0
VERTEX
  8
0
 10
-150.96122983
 20
125.50865030
  0
VERTEX
  8
0
 10
-150.84989401
 20
124.94627892
  0
VERTEX
  8
0
 10
-150.71868563
 20
124.39028538
  0
VERTEX
  8
0
 10
-150.56792139
 20
123.84112536
  0
VERTEX
  8
0
 10
-150.39791796
 20
123.29925454
  0
VERTEX
  8
0
 10
-150.20899204
 20
122.76512858
  0
VERTEX
  8
0
 10
-150.00146032
 20
122.23920316
  0
VERTEX
  8
0
 10
-149.77563949
 20
121.72193395
  0
VERTEX
  8
0
 10
-149.53184623
 20
121.21377662
  0
VERTEX
  8
0
 10
-149.27039724
 20
120.71518685
  0
VERTEX
  8
0
 10
-148.99160921
 20
120.22662030
  0
VERTEX
  8
0
 10
-148.69579882
 20
119.74853264
  0
VERTEX
  8
0
 10
-148.38328276
 20
119.28137956
  0
VERTEX
  8
0
 10
-148.05437773
 20
118.82561671
  0
VERTEX
  8
0
 10
-147.70940041
 20
118.38169978
  0
VERTEX
  8
0
 10
-147.34866750
 20
117.95008444
  0
VERTEX
  8
0
 10
-146.97249567
 20
117.53122635
  0
VERTEX
  8
0
 10
-146.58120163
 20
117.12558119
  0
VERTEX
  8
0
 10
-146.17510205
 20
116.73360463
  0
VERTEX
  8
0
 10
-145.75451364
 20
116.35575235
  0
VERTEX
  8
0
 10
-145.31975307
 20
115.99248001
  0
VERTEX
  8
0
 10
-144.87113705
 20
115.64424329
  0
VERTEX
  8
0
 10
-144.40898225
 20
115.31149786
  0
VERTEX
  8
0
 10
-143.93360536
 20
114.99469939
  0
VERTEX
  8
0
 10
-143.44532309
 20
114.69430356
  0
VERTEX
  8
0
 10
-142.94445211
 20
114.41076603
  0
VERTEX
  8
0
 10
-142.43130911
 20
114.14454247
  0
VERTEX
  8
0
 10
-141.90621079
 20
113.89608857
  0
VERTEX
  8
0
 10
-141.36947383
 20
113.66585999
  0
VERTEX
  8
0
 10
-140.82463701
 20
113.45551600
  0
VERTEX
  8
0
 10
-140.27539125
 20
113.26634232
  0
VERTEX
  8
0
 10
-139.72228150
 20
113.09823424
  0
VERTEX
  8
0
 10
-139.16585273
 20
112.95108708
  0
VERTEX
  8
0
 10
-138.60664986
 20
112.82479615
  0
VERTEX
  8
0
 10
-138.04521787
 20
112.71925677
  0
VERTEX
  8
0
 10
-137.48210168
 20
112.63436424
  0
VERTEX
  8
0
 10
-136.91784626
 20
112.57001388
  0
VERTEX
  8
0
 10
-136.35299654
 20
112.52610099
  0
VERTEX
  8
0
 10
-135.78809749
 20
112.50252089
  0
VERTEX
  8
0
 10
-135.22369404
 20
112.49916889
  0
VERTEX
  8
0
 10
-134.66033115
 20
112.51594029
  0
VERTEX
  8
0
 10
-134.09855377
 20
112.55273042
  0
VERTEX
  8
0
 10
-133.53890685
 20
112.60943458
  0
VERTEX
  8
0
 10
-132.98193533
 20
112.68594808
  0
VERTEX
  8
0
 10
-132.42818416
 20
112.78216624
  0
VERTEX
  8
0
 10
-131.87819829
 20
112.89798436
  0
VERTEX
  8
0
 10
-131.33252268
 20
113.03329776
  0
VERTEX
  8
0
 10
-130.79170226
 20
113.18800175
  0
VERTEX
  8
0
 10
-130.25628200
 20
113.36199163
  0
VERTEX
  8
0
 10
-129.72680683
 20
113.55516273
  0
VERTEX
  8
0
 10
-129.20382172
 20
113.76741035
  0
VERTEX
  8
0
 10
-128.68787159
 20
113.99862979
  0
VERTEX
  8
0
 10
-128.17950142
 20
114.24871639
  0
VERTEX
  8
0
 10
-127.67925613
 20
114.51756543
  0
VERTEX
  8
0
 10
-127.18768069
 20
114.80507225
  0
VERTEX
  8
0
 10
-126.70532005
 20
115.11113214
  0
VERTEX
  8
0
 10
-126.23271914
 20
115.43564042
  0
VERTEX
  8
0
 10
-125.77042292
 20
115.77849239
  0
VERTEX
  8
0
 10
-125.31897635
 20
116.13958338
  0
VERTEX
  8
0
 10
-124.87892436
 20
116.51880869
  0
VERTEX
  8
0
 10
-124.45081190
 20
116.91606363
  0
SEQEND
  0
POLYLINE
  8
Default_Layer
 62
256
 66
   1
 39
0.000000
 70
    1
  0
VERTEX
  8
0
 10
138.29358935
 20
215.60854754
  0
VERTEX
  8
0
 10
-161.70641065
 20
215.60854754
  0
VERTEX
  8
0
 10
-161.70641065
 20
-184.39145246
  0
VERTEX
  8
0
 10
138.29358935
 20
-184.39145246
  0
VERTEX
  8
0
 10
138.29358935
 20
215.60854754
  0
SEQEND
  0
CIRCLE
  8
Default_Layer
 62
256
 10
-3.494303
 20
-72.234466
 40
2.650000
  0
CIRCLE
  8
Default_Layer
 62
256
 10
37.104941
 20
45.344192
 40
2.650000
  0
POLYLINE
  8
Default_Layer
 62
256
 66
   1
 39
0.000000
 70
    1
  0
VERTEX
  8
0
 10
37.68387492
 20
132.72998845
  0
VERTEX
  8
0
 10
20.43069827
 20
115.47635418
  0
VERTEX
  8
0
 10
52.95736277
 20
82.94919480
  0
VERTEX
  8
0
 10
70.21089948
 20
100.20246902
  0
VERTEX
  8
0
 10
37.68387492
 20
132.72998845
  0
SEQEND
  0
POLYLINE
  8
Default_Layer
 62
256
 66
   1
 39
0.000000
 70
    1
  0
VERTEX
  8
0
 10
127.81659317
 20
-63.23446556
  0
VERTEX
  8
0
 10
127.79056929
 20
-64.26366291
  0
VERTEX
  8
0
 10
127.71333542
 20
-65.27934938
  0
VERTEX
  8
0
 10
127.58614819
 20
-66.28026834
  0
VERTEX
  8
0
 10
127.41026425
 20
-67.26516315
  0
VERTEX
  8
0
 10
127.18694022
 20
-68.23277717
  0
VERTEX
  8
0
 10
126.91743275
 20
-69.18185377
  0
VERTEX
  8
0
 10
126.60299847
 20
-70.11113630
  0
VERTEX
  8
0
 10
126.24489402
 20
-71.01936814
  0
VERTEX
  8
0
 10
125.84437604
 20
-71.90529264
  0
VERTEX
  8
0
 10
125.40270117
 20
-72.76765316
  0
VERTEX
  8
0
 10
124.92112603
 20
-73.60519308
  0
VERTEX
  8
0
 10
124.40090728
 20
-74.41665574
  0
VERTEX
  8
0
 10
123.84330154
 20
-75.20078452
  0
VERTEX
  8
0
 10
123.24956545
 20
-75.95632278
  0
VERTEX
  8
0
 10
122.62095566
 20
-76.68201388
  0
VERTEX
  8
0
 10
121.95872879
 20
-77.37660118
  0
VERTEX
  8
0
 10
121.26414149
 20
-78.03882805
  0
VERTEX
  8
0
 10
120.53845039
 20
-78.66743784
  0
VERTEX
  8
0
 10
119.78291213
 20
-79.26117393
  0
VERTEX
  8
0
 10
118.99878335
 20
-79.81877967
  0
VERTEX
  8
0
 10
118.18732068
 20
-80.33899843
  0
VERTEX
  8
0
 10
117.34978077
 20
-80.82057356
  0
VERTEX
  8
0
 10
116.48742024
 20
-81.26224844
  0
VERTEX
  8
0
 10
115.60149574
 20
-81.66276642
  0
VERTEX
  8
0
 10
114.69326391
 20
-82.02087087
  0
VERTEX
  8
0
 10
113.76398137
 20
-82.33530515
  0
VERTEX
  8
0
 10
112.81490477
 20
-82.60481262
  0
VERTEX
  8
0
 10
111.84729075
 20
-82.82813664
  0
VERTEX
  8
0
 10
110.86239594
 20
-83.00402059
  0
VERTEX
  8
0
 10
109.86147698
 20
-83.13120781
  0
VERTEX
  8
0
 10
108.84579051
 20
-83.20844168
  0
VERTEX
  8
0
 10
107.81659317
 20
-83.23446556
  0
VERTEX
  8
0
 10
-33.60519898
 20
-83.23446556
  0
VERTEX
  8
0
 10
-34.63439632
 20
-83.20844168
  0
VERTEX
  8
0
 10
-35.65008280
 20
-83.13120781
  0
VERTEX
  8
0
 10
-36.65100175
 20
-83.00402059
  0
VERTEX
  8
0
 10
-37.63589656
 20
-82.82813664
  0
VERTEX
  8
0
 10
-38.60351059
 20
-82.60481262
  0
VERTEX
  8
0
 10
-39.55258718
 20
-82.33530515
  0
VERTEX
  8
0
 10
-40.48186972
 20
-82.02087087
  0
VERTEX
  8
0
 10
-41.39010155
 20
-81.66276642
  0
VERTEX
  8
0
 10
-42.27602605
 20
-81.26224844
  0
VERTEX
  8
0
 10
-43.13838658
 20
-80.82057356
  0
VERTEX
  8
0
 10
-43.97592649
 20
-80.33899843
  0
VERTEX
  8
0
 10
-44.78738916
 20
-79.81877967
  0
VERTEX
  8
0
 10
-45.57151794
 20
-79.26117393
  0
VERTEX
  8
0
 10
-46.32705620
 20
-78.66743784
  0
VERTEX
  8
0
 10
-47.05274730
 20
-78.03882805
  0
VERTEX
  8
0
 10
-47.74733460
 20
-77.37660118
  0
VERTEX
  8
0
 10
-48.40956147
 20
-76.68201388
  0
VERTEX
  8
0
 10
-49.03817126
 20
-75.95632278
  0
VERTEX
  8
0
 10
-49.63190735
 20
-75.20078452
  0
VERTEX
  8
0
 10
-50.18951309
 20
-74.41665574
  0
VERTEX
  8
0
 10
-50.70973184
 20
-73.60519308
  0
VERTEX
  8
0
 10
-51.19130698
 20
-72.76765316
  0
VERTEX
  8
0
 10
-51.63298185
 20
-71.90529264
  0
VERTEX
  8
0
 10
-52.03349984
 20
-71.01936814
  0
VERTEX
  8
0
 10
-52.39160428
 20
-70.11113630
  0
VERTEX
  8
0
 10
-52.70603856
 20
-69.18185377
  0
VERTEX
  8
0
 10
-52.97554603
 20
-68.23277717
  0
VERTEX
  8
0
 10
-53.19887006
 20
-67.26516315
  0
VERTEX
  8
0
 10
-53.37475401
 20
-66.28026834
  0
VERTEX
  8
0
 10
-53.50194123
 20
-65.27934938
  0
VERTEX
  8
0
 10
-53.57917510
 20
-64.26366291
  0
VERTEX
  8
0
 10
-53.60519898
 20
-63.23446556
  0
VERTEX
  8
0
 10
-53.60519898
 20
186.76553444
  0
VERTEX
  8
0
 10
-53.58061914
 20
187.75727714
  0
VERTEX
  8
0
 10
-53.50733230
 20
188.74228871
  0
VERTEX
  8
0
 10
-53.38601749
 20
189.71892983
  0
VERTEX
  8
0
 10
-53.21735373
 20
190.68556120
  0
VERTEX
  8
0
 10
-53.00202004
 20
191.64054352
  0
VERTEX
  8
0
 10
-52.74069545
 20
192.58223747
  0
VERTEX
  8
0
 10
-52.43405897
 20
193.50900377
  0
VERTEX
  8
0
 10
-52.08278963
 20
194.41920309
  0
VERTEX
  8
0
 10
-51.68756645
 20
195.31119613
  0
VERTEX
  8
0
 10
-51.24906845
 20
196.18334360
  0
VERTEX
  8
0
 10
-50.76797466
 20
197.03400617
  0
VERTEX
  8
0
 10
-50.24496410
 20
197.86154456
  0
VERTEX
  8
0
 10
-49.68071579
 20
198.66431944
  0
VERTEX
  8
0
 10
-49.07590876
 20
199.44069153
  0
VERTEX
  8
0
 10
-48.43122202
 20
200.18902150
  0
VERTEX
  8
0
 10
-47.74733460
 20
200.90767006
  0
VERTEX
  8
0
 10
-47.02868604
 20
201.59155748
  0
VERTEX
  8
0
 10
-46.28035606
 20
202.23624422
  0
VERTEX
  8
0
 10
-45.50398398
 20
202.84105126
  0
VERTEX
  8
0
 10
-44.70120909
 20
203.40529957
  0
VERTEX
  8
0
 10
-43.87367071
 20
203.92831013
  0
VERTEX
  8
0
 10
-43.02300813
 20
204.40940392
  0
VERTEX
  8
0
 10
-42.15086067
 20
204.84790191
  0
VERTEX
  8
0
 10
-41.25886762
 20
205.24312509
  0
VERTEX
  8
0
 10
-40.34866830
 20
205.59439443
  0
VERTEX
  8
0
 10
-39.42190201
 20
205.90103091
  0
VERTEX
  8
0
 10
-38.48020805
 20
206.16235551
  0
VERTEX
  8
0
 10
-37.52522574
 20
206.37768920
  0
VERTEX
  8
0
 10
-36.55859436
 20
206.54635296
  0
VERTEX
  8
0
 10
-35.58195324
 20
206.66766777
  0
VERTEX
  8
0
 10
-34.59694168
 20
206.74095460
  0
VERTEX
  8
0
 10
-33.60519898
 20
206.76553444
  0
VERTEX
  8
0
 10
107.81659317
 20
206.76553444
  0
VERTEX
  8
0
 10
108.84579051
 20
206.73951056
  0
VERTEX
  8
0
 10
109.86147698
 20
206.66227670
  0
VERTEX
  8
0
 10
110.86239594
 20
206.53508947
  0
VERTEX
  8
0
 10
111.84729075
 20
206.35920552
  0
VERTEX
  8
0
 10
112.81490477
 20
206.13588150
  0
VERTEX
  8
0
 10
113.76398137
 20
205.86637403
  0
VERTEX
  8
0
 10
114.69326391
 20
205.55193975
  0
VERTEX
  8
0
 10
115.60149574
 20
205.19383530
  0
VERTEX
  8
0
 10
116.48742024
 20
204.79331732
  0
VERTEX
  8
0
 10
117.34978077
 20
204.35164244
  0
VERTEX
  8
0
 10
118.18732068
 20
203.87006731
  0
VERTEX
  8
0
 10
118.99878335
 20
203.34984855
  0
VERTEX
  8
0
 10
119.78291213
 20
202.79224281
  0
VERTEX
  8
0
 10
120.53845039
 20
202.19850673
  0
VERTEX
  8
0
 10
121.26414149
 20
201.56989693
  0
VERTEX
  8
0
 10
121.95872879
 20
200.90767006
  0
VERTEX
  8
0
 10
122.62095566
 20
200.21308276
  0
VERTEX
  8
0
 10
123.24956545
 20
199.48739166
  0
VERTEX
  8
0
 10
123.84330154
 20
198.73185341
  0
VERTEX
  8
0
 10
124.40090728
 20
197.94772462
  0
VERTEX
  8
0
 10
124.92112603
 20
197.13626196
  0
VERTEX
  8
0
 10
125.40270117
 20
196.29872204
  0
VERTEX
  8
0
 10
125.84437604
 20
195.43636152
  0
VERTEX
  8
0
 10
126.24489402
 20
194.55043702
  0
VERTEX
  8
0
 10
126.60299847
 20
193.64220518
  0
VERTEX
  8
0
 10
126.91743275
 20
192.71292265
  0
VERTEX
  8
0
 10
127.18694022
 20
191.76384605
  0
VERTEX
  8
0
 10
127.41026425
 20
190.79623203
  0
VERTEX
  8
0
 10
127.58614819
 20
189.81133722
  0
VERTEX
  8
0
 10
127.71333542
 20
188.81041826
  0
VERTEX
  8
0
 10
127.79056929
 20
187.79473179
  0
VERTEX
  8
0
 10
127.81659317
 20
186.76553444
  0
VERTEX
  8
0
 10
127.81659317
 20
-63.23446556
  0
SEQEND
  0
CIRCLE
  8
Default_Layer
 62
256
 10
100.705697
 20
-6.034466
 40
2.650000
  0
CIRCLE
  8
Default_Layer
 62
256
 10
31.320090
 20
93.838692
 40
2.649986
  0
CIRCLE
  8
Default_Layer
 62
256
 10
87.004543
 20
66.600723
 40
2.999823
  0
CIRCLE
  8
Default_Layer
 62
256
 10
100.705697
 20
-61.834466
 40
2.650000
  0
POLYLINE
  8
Default_Layer
 62
256
 66
   1
 39
0.000000
 70
    1
  0
VERTEX
  8
0
 10
31.44919205
 20
192.42243172
  0
VERTEX
  8
0
 10
31.74765584
 20
192.70616976
  0
VERTEX
  8
0
 10
32.05678242
 20
192.97160189
  0
VERTEX
  8
0
 10
32.37586091
 20
193.21872811
  0
VERTEX
  8
0
 10
32.70418046
 20
193.44754844
  0
VERTEX
  8
0
 10
33.04103021
 20
193.65806288
  0
VERTEX
  8
0
 10
33.38569930
 20
193.85027143
  0
VERTEX
  8
0
 10
33.73747686
 20
194.02417411
  0
VERTEX
  8
0
 10
34.09565203
 20
194.17977090
  0
VERTEX
  8
0
 10
34.45951396
 20
194.31706183
  0
VERTEX
  8
0
 10
34.82835177
 20
194.43604690
  0
VERTEX
  8
0
 10
35.20145462
 20
194.53672610
  0
VERTEX
  8
0
 10
35.57811163
 20
194.61909945
  0
VERTEX
  8
0
 10
35.95761195
 20
194.68316696
  0
VERTEX
  8
0
 10
36.33924471
 20
194.72892862
  0
VERTEX
  8
0
 10
36.72229906
 20
194.75638445
  0
VERTEX
  8
0
 10
37.10606413
 20
194.76553444
  0
VERTEX
  8
0
 10
37.48982906
 20
194.75637861
  0
VERTEX
  8
0
 10
37.87288299
 20
194.72891695
  0
VERTEX
  8
0
 10
38.25451505
 20
194.68314949
  0
VERTEX
  8
0
 10
38.63401440
 20
194.61907621
  0
VERTEX
  8
0
 10
39.01067016
 20
194.53669712
  0
VERTEX
  8
0
 10
39.38377147
 20
194.43601224
  0
VERTEX
  8
0
 10
39.75260747
 20
194.31702157
  0
VERTEX
  8
0
 10
40.11646731
 20
194.17972510
  0
VERTEX
  8
0
 10
40.47464012
 20
194.02412285
  0
VERTEX
  8
0
 10
40.82641503
 20
193.85021483
  0
VERTEX
  8
0
 10
41.17108119
 20
193.65800103
  0
VERTEX
  8
0
 10
41.50792774
 20
193.44748147
  0
VERTEX
  8
0
 10
41.83624381
 20
193.21865615
  0
VERTEX
  8
0
 10
42.15531854
 20
192.97152506
  0
VERTEX
  8
0
 10
42.46444108
 20
192.70608823
  0
VERTEX
  8
0
 10
42.76290055
 20
192.42234566
  0
VERTEX
  8
0
 10
113.47304076
 20
121.71112963
  0
VERTEX
  8
0
 10
113.74659354
 20
121.42366813
  0
VERTEX
  8
0
 10
114.00446596
 20
121.12433418
  0
VERTEX
  8
0
 10
114.24638641
 20
120.81378350
  0
VERTEX
  8
0
 10
114.47208329
 20
120.49267183
  0
VERTEX
  8
0
 10
114.68128500
 20
120.16165489
  0
VERTEX
  8
0
 10
114.87371992
 20
119.82138839
  0
VERTEX
  8
0
 10
115.04911647
 20
119.47252807
  0
VERTEX
  8
0
 10
115.20720303
 20
119.11572965
  0
VERTEX
  8
0
 10
115.34770799
 20
118.75164885
  0
VERTEX
  8
0
 10
115.47035976
 20
118.38094140
  0
VERTEX
  8
0
 10
115.57488674
 20
118.00426303
  0
VERTEX
  8
0
 10
115.66101731
 20
117.62226944
  0
VERTEX
  8
0
 10
115.72847987
 20
117.23561638
  0
VERTEX
  8
0
 10
115.77700282
 20
116.84495957
  0
VERTEX
  8
0
 10
115.80631456
 20
116.45095472
  0
VERTEX
  8
0
 10
115.81614348
 20
116.05425756
  0
VERTEX
  8
0
 10
115.80630852
 20
115.65756055
  0
VERTEX
  8
0
 10
115.77699079
 20
115.26355615
  0
VERTEX
  8
0
 10
115.72846190
 20
114.87290007
  0
VERTEX
  8
0
 10
115.66099345
 20
114.48624804
  0
VERTEX
  8
0
 10
115.57485707
 20
114.10425577
  0
VERTEX
  8
0
 10
115.47032437
 20
113.72757898
  0
VERTEX
  8
0
 10
115.34766695
 20
113.35687339
  0
VERTEX
  8
0
 10
115.20715645
 20
112.99279473
  0
VERTEX
  8
0
 10
115.04906446
 20
112.63599872
  0
VERTEX
  8
0
 10
114.87366261
 20
112.28714107
  0
VERTEX
  8
0
 10
114.68122251
 20
111.94687750
  0
VERTEX
  8
0
 10
114.47201576
 20
111.61586374
  0
VERTEX
  8
0
 10
114.24631400
 20
111.29475550
  0
VERTEX
  8
0
 10
114.00438882
 20
110.98420851
  0
VERTEX
  8
0
 10
113.74651185
 20
110.68487848
  0
VERTEX
  8
0
 10
113.47295469
 20
110.39742114
  0
VERTEX
  8
0
 10
42.76175245
 20
39.68729470
  0
VERTEX
  8
0
 10
42.46328866
 20
39.40355667
  0
VERTEX
  8
0
 10
42.15416208
 20
39.13812454
  0
VERTEX
  8
0
 10
41.83508359
 20
38.89099831
  0
VERTEX
  8
0
 10
41.50676404
 20
38.66217799
  0
VERTEX
  8
0
 10
41.16991429
 20
38.45166355
  0
VERTEX
  8
0
 10
40.82524520
 20
38.25945499
  0
VERTEX
  8
0
 10
40.47346764
 20
38.08555232
  0
VERTEX
  8
0
 10
40.11529247
 20
37.92995552
  0
VERTEX
  8
0
 10
39.75143054
 20
37.79266459
  0
VERTEX
  8
0
 10
39.38259273
 20
37.67367953
  0
VERTEX
  8
0
 10
39.00948988
 20
37.57300032
  0
VERTEX
  8
0
 10
38.63283287
 20
37.49062697
  0
VERTEX
  8
0
 10
38.25333255
 20
37.42655947
  0
VERTEX
  8
0
 10
37.87169979
 20
37.38079781
  0
VERTEX
  8
0
 10
37.48864544
 20
37.35334198
  0
VERTEX
  8
0
 10
37.10488037
 20
37.34419199
  0
VERTEX
  8
0
 10
36.72111544
 20
37.35334782
  0
VERTEX
  8
0
 10
36.33806151
 20
37.38080947
  0
VERTEX
  8
0
 10
35.95642945
 20
37.42657694
  0
VERTEX
  8
0
 10
35.57693010
 20
37.49065022
  0
VERTEX
  8
0
 10
35.20027434
 20
37.57302930
  0
VERTEX
  8
0
 10
34.82717303
 20
37.67371418
  0
VERTEX
  8
0
 10
34.45833703
 20
37.79270486
  0
VERTEX
  8
0
 10
34.09447719
 20
37.93000132
  0
VERTEX
  8
0
 10
33.73630438
 20
38.08560357
  0
VERTEX
  8
0
 10
33.38452947
 20
38.25951160
  0
VERTEX
  8
0
 10
33.03986331
 20
38.45172539
  0
VERTEX
  8
0
 10
32.70301676
 20
38.66224496
  0
VERTEX
  8
0
 10
32.37470069
 20
38.89107028
  0
VERTEX
  8
0
 10
32.05562596
 20
39.13820136
  0
VERTEX
  8
0
 10
31.74650342
 20
39.40363819
  0
VERTEX
  8
0
 10
31.44804395
 20
39.68738077
  0
VERTEX
  8
0
 10
-39.26209626
 20
110.39859679
  0
VERTEX
  8
0
 10
-39.54583429
 20
110.69706058
  0
VERTEX
  8
0
 10
-39.81126642
 20
111.00618716
  0
VERTEX
  8
0
 10
-40.05839265
 20
111.32526565
  0
VERTEX
  8
0
 10
-40.28721298
 20
111.65358520
  0
VERTEX
  8
0
 10
-40.49772742
 20
111.99043495
  0
VERTEX
  8
0
 10
-40.68993597
 20
112.33510404
  0
VERTEX
  8
0
 10
-40.86383864
 20
112.68688160
  0
VERTEX
  8
0
 10
-41.01943544
 20
113.04505677
  0
VERTEX
  8
0
 10
-41.15672637
 20
113.40891869
  0
VERTEX
  8
0
 10
-41.27571143
 20
113.77775651
  0
VERTEX
  8
0
 10
-41.37639064
 20
114.15085935
  0
VERTEX
  8
0
 10
-41.45876399
 20
114.52751637
  0
VERTEX
  8
0
 10
-41.52283150
 20
114.90701669
  0
VERTEX
  8
0
 10
-41.56859316
 20
115.28864945
  0
VERTEX
  8
0
 10
-41.59604898
 20
115.67170380
  0
VERTEX
  8
0
 10
-41.60519898
 20
116.05546887
  0
VERTEX
  8
0
 10
-41.59604314
 20
116.43923380
  0
VERTEX
  8
0
 10
-41.56858149
 20
116.82228772
  0
VERTEX
  8
0
 10
-41.52281402
 20
117.20391979
  0
VERTEX
  8
0
 10
-41.45874074
 20
117.58341914
  0
VERTEX
  8
0
 10
-41.37636166
 20
117.96007490
  0
VERTEX
  8
0
 10
-41.27567678
 20
118.33317621
  0
VERTEX
  8
0
 10
-41.15668610
 20
118.70201221
  0
VERTEX
  8
0
 10
-41.01938964
 20
119.06587205
  0
VERTEX
  8
0
 10
-40.86378739
 20
119.42404486
  0
VERTEX
  8
0
 10
-40.68987937
 20
119.77581977
  0
VERTEX
  8
0
 10
-40.49766557
 20
120.12048593
  0
VERTEX
  8
0
 10
-40.28714601
 20
120.45733248
  0
VERTEX
  8
0
 10
-40.05832068
 20
120.78564855
  0
VERTEX
  8
0
 10
-39.81118960
 20
121.10472328
  0
VERTEX
  8
0
 10
-39.54575277
 20
121.41384582
  0
VERTEX
  8
0
 10
-39.26201019
 20
121.71230529
  0
VERTEX
  8
0
 10
31.44919205
 20
192.42243172
  0
SEQEND
  0
CIRCLE
  8
Default_Layer
 62
256
 10
-12.995545
 20
66.600723
 40
2.999902
  0
CIRCLE
  8
Default_Layer
 62
256
 10
-0.894303
 20
24.365534
 40
2.650000
  0
CIRCLE
  8
Default_Layer
 62
256
 10
-12.995545
 20
166.600723
 40
2.999902
  0
CIRCLE
  8
Default_Layer
 62
256
 10
87.004543
 20
166.600723
 40
2.999684
  0
CIRCLE
  8
Default_Layer
 62
256
 10
-33.605199
 20
116.055408
 40
2.649993
  0
CIRCLE
  8
Default_Layer
 62
256
 10
107.816593
 20
116.054768
 40
2.649946
  0
CIRCLE
  8
Default_Layer
 62
256
 10
37.106003
 20
186.765534
 40
2.649893
  0
CIRCLE
  8
Default_Layer
 62
256
 10
59.321147
 20
121.840492
 40
2.649754
  0
POLYLINE
  8
Default_Layer
 62
256
 66
   1
 39
0.000000
 70
    1
  0
VERTEX
  8
0
 10
-99.99783643
 20
-163.13785644
  0
VERTEX
  8
0
 10
-99.99783643
 20
-169.53785644
  0
VERTEX
  8
0
 10
-125.99783643
 20
-169.53785644
  0
VERTEX
  8
0
 10
-125.99783643
 20
-163.13785644
  0
VERTEX
  8
0
 10
-99.99783643
 20
-163.13785644
  0
SEQEND
  0
POLYLINE
  8
Default_Layer
 62
256
 66
   1
 39
0.000000
 70
    1
  0
VERTEX
  8
0
 10
4.61754287
 20
-91.19805644
  0
VERTEX
  8
0
 10
108.61723376
 20
-91.19805644
  0
VERTEX
  8
0
 10
109.02891270
 20
-91.20846599
  0
VERTEX
  8
0
 10
109.43518729
 20
-91.23935954
  0
VERTEX
  8
0
 10
109.83555487
 20
-91.29023443
  0
VERTEX
  8
0
 10
110.22951280
 20
-91.36058801
  0
VERTEX
  8
0
 10
110.61655841
 20
-91.44991762
  0
VERTEX
  8
0
 10
110.99618904
 20
-91.55772061
  0
VERTEX
  8
0
 10
111.36790206
 20
-91.68349432
  0
VERTEX
  8
0
 10
111.73119479
 20
-91.82673610
  0
VERTEX
  8
0
 10
112.08556459
 20
-91.98694329
  0
VERTEX
  8
0
 10
112.43050880
 20
-92.16361324
  0
VERTEX
  8
0
 10
112.76552477
 20
-92.35624330
  0
VERTEX
  8
0
 10
113.09010984
 20
-92.56433080
  0
VERTEX
  8
0
 10
113.40376135
 20
-92.78737309
  0
VERTEX
  8
0
 10
113.70597665
 20
-93.02486753
  0
VERTEX
  8
0
 10
113.99625309
 20
-93.27631145
  0
VERTEX
  8
0
 10
114.27408801
 20
-93.54120219
  0
VERTEX
  8
0
 10
114.53897876
 20
-93.81903711
  0
VERTEX
  8
0
 10
114.79042268
 20
-94.10931355
  0
VERTEX
  8
0
 10
115.02791711
 20
-94.41152886
  0
VERTEX
  8
0
 10
115.25095941
 20
-94.72518037
  0
VERTEX
  8
0
 10
115.45904691
 20
-95.04976544
  0
VERTEX
  8
0
 10
115.65167696
 20
-95.38478140
  0
VERTEX
  8
0
 10
115.82834691
 20
-95.72972561
  0
VERTEX
  8
0
 10
115.98855411
 20
-96.08409541
  0
VERTEX
  8
0
 10
116.13179589
 20
-96.44738815
  0
VERTEX
  8
0
 10
116.25756960
 20
-96.81910116
  0
VERTEX
  8
0
 10
116.36537259
 20
-97.19873180
  0
VERTEX
  8
0
 10
116.45470220
 20
-97.58577741
  0
VERTEX
  8
0
 10
116.52505577
 20
-97.97973533
  0
VERTEX
  8
0
 10
116.57593066
 20
-98.38010291
  0
VERTEX
  8
0
 10
116.60682421
 20
-98.78637750
  0
VERTEX
  8
0
 10
116.61723376
 20
-99.19805644
  0
VERTEX
  8
0
 10
116.61723376
 20
-170.79785644
  0
VERTEX
  8
0
 10
116.60682421
 20
-171.20953538
  0
VERTEX
  8
0
 10
116.57593066
 20
-171.61580997
  0
VERTEX
  8
0
 10
116.52505577
 20
-172.01617755
  0
VERTEX
  8
0
 10
116.45470220
 20
-172.41013548
  0
VERTEX
  8
0
 10
116.36537259
 20
-172.79718109
  0
VERTEX
  8
0
 10
116.25756960
 20
-173.17681172
  0
VERTEX
  8
0
 10
116.13179589
 20
-173.54852474
  0
VERTEX
  8
0
 10
115.98855411
 20
-173.91181747
  0
VERTEX
  8
0
 10
115.82834691
 20
-174.26618727
  0
VERTEX
  8
0
 10
115.65167696
 20
-174.61113148
  0
VERTEX
  8
0
 10
115.45904691
 20
-174.94614745
  0
VERTEX
  8
0
 10
115.25095941
 20
-175.27073252
  0
VERTEX
  8
0
 10
115.02791711
 20
-175.58438403
  0
VERTEX
  8
0
 10
114.79042268
 20
-175.88659933
  0
VERTEX
  8
0
 10
114.53897876
 20
-176.17687577
  0
VERTEX
  8
0
 10
114.27408801
 20
-176.45471069
  0
VERTEX
  8
0
 10
113.99625309
 20
-176.71960144
  0
VERTEX
  8
0
 10
113.70597665
 20
-176.97104536
  0
VERTEX
  8
0
 10
113.40376135
 20
-177.20853979
  0
VERTEX
  8
0
 10
113.09010984
 20
-177.43158209
  0
VERTEX
  8
0
 10
112.76552477
 20
-177.63966959
  0
VERTEX
  8
0
 10
112.43050880
 20
-177.83229964
  0
VERTEX
  8
0
 10
112.08556459
 20
-178.00896959
  0
VERTEX
  8
0
 10
111.73119479
 20
-178.16917679
  0
VERTEX
  8
0
 10
111.36790206
 20
-178.31241857
  0
VERTEX
  8
0
 10
110.99618904
 20
-178.43819228
  0
VERTEX
  8
0
 10
110.61655841
 20
-178.54599527
  0
VERTEX
  8
0
 10
110.22951280
 20
-178.63532488
  0
VERTEX
  8
0
 10
109.83555487
 20
-178.70567845
  0
VERTEX
  8
0
 10
109.43518729
 20
-178.75655334
  0
VERTEX
  8
0
 10
109.02891270
 20
-178.78744689
  0
VERTEX
  8
0
 10
108.61723376
 20
-178.79785644
  0
VERTEX
  8
0
 10
4.61754287
 20
-178.79785644
  0
VERTEX
  8
0
 10
4.20586394
 20
-178.78744689
  0
VERTEX
  8
0
 10
3.79958935
 20
-178.75655334
  0
VERTEX
  8
0
 10
3.39922176
 20
-178.70567845
  0
VERTEX
  8
0
 10
3.00526384
 20
-178.63532488
  0
VERTEX
  8
0
 10
2.61821823
 20
-178.54599527
  0
VERTEX
  8
0
 10
2.23858759
 20
-178.43819228
  0
VERTEX
  8
0
 10
1.86687458
 20
-178.31241857
  0
VERTEX
  8
0
 10
1.50358184
 20
-178.16917679
  0
VERTEX
  8
0
 10
1.14921204
 20
-178.00896959
  0
VERTEX
  8
0
 10
0.80426783
 20
-177.83229964
  0
VERTEX
  8
0
 10
0.46925187
 20
-177.63966959
  0
VERTEX
  8
0
 10
0.14466680
 20
-177.43158209
  0
VERTEX
  8
0
 10
-0.16898471
 20
-177.20853979
  0
VERTEX
  8
0
 10
-0.47120001
 20
-176.97104536
  0
VERTEX
  8
0
 10
-0.76147645
 20
-176.71960144
  0
VERTEX
  8
0
 10
-1.03931137
 20
-176.45471069
  0
VERTEX
  8
0
 10
-1.30420212
 20
-176.17687577
  0
VERTEX
  8
0
 10
-1.55564604
 20
-175.88659933
  0
VERTEX
  8
0
 10
-1.79314047
 20
-175.58438403
  0
VERTEX
  8
0
 10
-2.01618277
 20
-175.27073252
  0
VERTEX
  8
0
 10
-2.22427027
 20
-174.94614745
  0
VERTEX
  8
0
 10
-2.41690033
 20
-174.61113148
  0
VERTEX
  8
0
 10
-2.59357028
 20
-174.26618727
  0
VERTEX
  8
0
 10
-2.75377747
 20
-173.91181747
  0
VERTEX
  8
0
 10
-2.89701925
 20
-173.54852474
  0
VERTEX
  8
0
 10
-3.02279296
 20
-173.17681172
  0
VERTEX
  8
0
 10
-3.13059595
 20
-172.79718109
  0
VERTEX
  8
0
 10
-3.21992556
 20
-172.41013548
  0
VERTEX
  8
0
 10
-3.29027914
 20
-172.01617755
  0
VERTEX
  8
0
 10
-3.34115403
 20
-171.61580997
  0
VERTEX
  8
0
 10
-3.37204757
 20
-171.20953538
  0
VERTEX
  8
0
 10
-3.38245713
 20
-170.79785644
  0
VERTEX
  8
0
 10
-3.38245713
 20
-99.19805644
  0
VERTEX
  8
0
 10
-3.37262519
 20
-98.80135936
  0
VERTEX
  8
0
 10
-3.34331046
 20
-98.40735474
  0
VERTEX
  8
0
 10
-3.29478453
 20
-98.01669829
  0
VERTEX
  8
0
 10
-3.22731903
 20
-97.63004574
  0
VERTEX
  8
0
 10
-3.14118555
 20
-97.24805281
  0
VERTEX
  8
0
 10
-3.03665571
 20
-96.87137523
  0
VERTEX
  8
0
 10
-2.91400112
 20
-96.50066871
  0
VERTEX
  8
0
 10
-2.77349339
 20
-96.13658898
  0
VERTEX
  8
0
 10
-2.61540411
 20
-95.77979177
  0
VERTEX
  8
0
 10
-2.44000492
 20
-95.43093278
  0
VERTEX
  8
0
 10
-2.24756740
 20
-95.09066775
  0
VERTEX
  8
0
 10
-2.03836318
 20
-94.75965240
  0
VERTEX
  8
0
 10
-1.81266385
 20
-94.43854244
  0
VERTEX
  8
0
 10
-1.57074104
 20
-94.12799361
  0
VERTEX
  8
0
 10
-1.31286634
 20
-93.82866162
  0
VERTEX
  8
0
 10
-1.03931137
 20
-93.54120219
  0
VERTEX
  8
0
 10
-0.75185195
 20
-93.26764722
  0
VERTEX
  8
0
 10
-0.45251996
 20
-93.00977253
  0
VERTEX
  8
0
 10
-0.14197113
 20
-92.76784972
  0
VERTEX
  8
0
 10
0.17913883
 20
-92.54215039
  0
VERTEX
  8
0
 10
0.51015418
 20
-92.33294617
  0
VERTEX
  8
0
 10
0.85041921
 20
-92.14050865
  0
VERTEX
  8
0
 10
1.19927820
 20
-91.96510945
  0
VERTEX
  8
0
 10
1.55607542
 20
-91.80702018
  0
VERTEX
  8
0
 10
1.92015514
 20
-91.66651245
  0
VERTEX
  8
0
 10
2.29086166
 20
-91.54385785
  0
VERTEX
  8
0
 10
2.66753924
 20
-91.43932802
  0
VERTEX
  8
0
 10
3.04953217
 20
-91.35319454
  0
VERTEX
  8
0
 10
3.43618472
 20
-91.28572904
  0
VERTEX
  8
0
 10
3.82684117
 20
-91.23720311
  0
VERTEX
  8
0
 10
4.22084579
 20
-91.20788838
  0
VERTEX
  8
0
 10
4.61754287
 20
-91.19805644
  0
SEQEND
  0
POLYLINE
  8
Default_Layer
 62
256
 66
   1
 39
0.000000
 70
    1
  0
VERTEX
  8
0
 10
-135.39603643
 20
-149.46865644
  0
VERTEX
  8
0
 10
-135.39603643
 20
-137.46865644
  0
VERTEX
  8
0
 10
-128.99603643
 20
-137.46865644
  0
VERTEX
  8
0
 10
-128.99603643
 20
-149.46865644
  0
VERTEX
  8
0
 10
-135.39603643
 20
-149.46865644
  0
SEQEND
  0
CIRCLE
  8
Default_Layer
 62
256
 10
-123.500667
 20
-81.659056
 40
2.650031
  0
CIRCLE
  8
Default_Layer
 62
256
 10
-61.995836
 20
-96.468556
 40
2.649600
  0
POLYLINE
  8
Default_Layer
 62
256
 66
   1
 39
0.000000
 70
    1
  0
VERTEX
  8
0
 10
-38.99603643
 20
-127.86865644
  0
VERTEX
  8
0
 10
-38.99603643
 20
-103.06865644
  0
VERTEX
  8
0
 10
-84.99603643
 20
-103.06865644
  0
VERTEX
  8
0
 10
-84.99603643
 20
-127.86865644
  0
VERTEX
  8
0
 10
-38.99603643
 20
-127.86865644
  0
SEQEND
  0
POLYLINE
  8
Default_Layer
 62
256
 66
   1
 39
0.000000
 70
    1
  0
VERTEX
  8
0
 10
98.61723376
 20
-167.19785644
  0
VERTEX
  8
0
 10
52.61723376
 20
-167.19785644
  0
VERTEX
  8
0
 10
52.61723376
 20
-142.39785644
  0
VERTEX
  8
0
 10
98.61723376
 20
-142.39785644
  0
VERTEX
  8
0
 10
98.61723376
 20
-167.19785644
  0
SEQEND
  0
CIRCLE
  8
Default_Layer
 62
256
 10
-131.995936
 20
-156.468556
 40
2.999700
  0
POLYLINE
  8
Default_Layer
 62
256
 66
   1
 39
0.000000
 70
    1
  0
VERTEX
  8
0
 10
2.21723376
 20
-103.39785644
  0
VERTEX
  8
0
 10
8.61723376
 20
-103.39785644
  0
VERTEX
  8
0
 10
8.61723376
 20
-94.79785644
  0
VERTEX
  8
0
 10
2.21723376
 20
-94.79785644
  0
VERTEX
  8
0
 10
2.21723376
 20
-103.39785644
  0
SEQEND
  0
POLYLINE
  8
Default_Layer
 62
256
 66
   1
 39
0.000000
 70
    1
  0
VERTEX
  8
0
 10
104.61723376
 20
-128.30405644
  0
VERTEX
  8
0
 10
104.61723376
 20
-132.79785644
  0
VERTEX
  8
0
 10
111.01723376
 20
-132.79785644
  0
VERTEX
  8
0
 10
111.01723376
 20
-128.30405644
  0
VERTEX
  8
0
 10
104.61723376
 20
-128.30405644
  0
SEQEND
  0
POLYLINE
  8
Default_Layer
 62
256
 66
   1
 39
0.000000
 70
    1
  0
VERTEX
  8
0
 10
2.21683376
 20
-120.79745644
  0
VERTEX
  8
0
 10
8.61683376
 20
-120.79745644
  0
VERTEX
  8
0
 10
8.61683376
 20
-132.79745644
  0
VERTEX
  8
0
 10
2.21683376
 20
-132.79745644
  0
VERTEX
  8
0
 10
2.21683376
 20
-120.79745644
  0
SEQEND
  0
CIRCLE
  8
Default_Layer
 62
256
 10
-29.795936
 20
-156.468556
 40
2.999700
  0
POLYLINE
  8
Default_Layer
 62
256
 66
   1
 39
0.000000
 70
    1
  0
VERTEX
  8
0
 10
-26.59583643
 20
-137.46865644
  0
VERTEX
  8
0
 10
-26.59583643
 20
-141.96245644
  0
VERTEX
  8
0
 10
-32.99603643
 20
-141.96245644
  0
VERTEX
  8
0
 10
-32.99603643
 20
-137.46865644
  0
VERTEX
  8
0
 10
-26.59583643
 20
-137.46865644
  0
SEQEND
  0
POLYLINE
  8
Default_Layer
 62
256
 66
   1
 39
0.000000
 70
    1
  0
VERTEX
  8
0
 10
11.81723376
 20
-107.19785644
  0
VERTEX
  8
0
 10
31.81723376
 20
-107.19785644
  0
VERTEX
  8
0
 10
31.81723376
 20
-100.79785644
  0
VERTEX
  8
0
 10
11.81723376
 20
-100.79785644
  0
VERTEX
  8
0
 10
11.81723376
 20
-107.19785644
  0
SEQEND
  0
POLYLINE
  8
Default_Layer
 62
256
 66
   1
 39
0.000000
 70
    1
  0
VERTEX
  8
0
 10
104.61723376
 20
-120.79785644
  0
VERTEX
  8
0
 10
104.61723376
 20
-125.29165644
  0
VERTEX
  8
0
 10
111.01723376
 20
-125.29165644
  0
VERTEX
  8
0
 10
111.01723376
 20
-120.79785644
  0
VERTEX
  8
0
 10
104.61723376
 20
-120.79785644
  0
SEQEND
  0
POLYLINE
  8
Default_Layer
 62
256
 66
   1
 39
0.000000
 70
    1
  0
VERTEX
  8
0
 10
-26.59583643
 20
-144.96245644
  0
VERTEX
  8
0
 10
-26.59583643
 20
-149.46865644
  0
VERTEX
  8
0
 10
-32.99603643
 20
-149.46865644
  0
VERTEX
  8
0
 10
-32.99603643
 20
-144.97485644
  0
VERTEX
  8
0
 10
-32.99603643
 20
-144.96245644
  0
VERTEX
  8
0
 10
-26.59583643
 20
-144.96245644
  0
SEQEND
  0
CIRCLE
  8
Default_Layer
 62
256
 10
107.817384
 20
-113.797939
 40
3.000046
  0
POLYLINE
  8
Default_Layer
 62
256
 66
   1
 39
0.000000
 70
    1
  0
VERTEX
  8
0
 10
-26.59583643
 20
-169.46865644
  0
VERTEX
  8
0
 10
-32.99603643
 20
-169.46865644
  0
VERTEX
  8
0
 10
-32.99603643
 20
-163.46865644
  0
VERTEX
  8
0
 10
-26.59583643
 20
-163.46865644
  0
VERTEX
  8
0
 10
-26.59583643
 20
-169.46865644
  0
SEQEND
  0
CIRCLE
  8
Default_Layer
 62
256
 10
-61.995863
 20
-136.068156
 40
2.649574
  0
CIRCLE
  8
Default_Layer
 62
256
 10
75.617416
 20
-134.198339
 40
2.649927
  0
POLYLINE
  8
Default_Layer
 62
256
 66
   1
 39
0.000000
 70
    1
  0
VERTEX
  8
0
 10
-135.39603643
 20
-175.46865644
  0
VERTEX
  8
0
 10
-135.39603643
 20
-163.46865644
  0
VERTEX
  8
0
 10
-128.99603643
 20
-163.46865644
  0
VERTEX
  8
0
 10
-128.99603643
 20
-175.46865644
  0
VERTEX
  8
0
 10
-135.39603643
 20
-175.46865644
  0
SEQEND
  0
CIRCLE
  8
Default_Layer
 62
256
 10
5.617265
 20
-113.797956
 40
2.999631
  0
POLYLINE
  8
Default_Layer
 62
256
 66
   1
 39
0.000000
 70
    1
  0
VERTEX
  8
0
 10
111.01723376
 20
-94.79785644
  0
VERTEX
  8
0
 10
104.61723376
 20
-94.79785644
  0
VERTEX
  8
0
 10
104.61723376
 20
-103.39785644
  0
VERTEX
  8
0
 10
111.01723376
 20
-103.39785644
  0
VERTEX
  8
0
 10
111.01723376
 20
-94.79785644
  0
SEQEND
  0
POLYLINE
  8
Default_Layer
 62
256
 66
   1
 39
0.000000
 70
    1
  0
VERTEX
  8
0
 10
71.81723376
 20
-107.19785644
  0
VERTEX
  8
0
 10
101.81723376
 20
-107.19785644
  0
VERTEX
  8
0
 10
101.81723376
 20
-100.79785644
  0
VERTEX
  8
0
 10
71.81723376
 20
-100.79785644
  0
VERTEX
  8
0
 10
71.81723376
 20
-107.19785644
  0
SEQEND
  0
POLYLINE
  8
Default_Layer
 62
256
 66
   1
 39
0.000000
 70
    1
  0
VERTEX
  8
0
 10
-46.01383643
 20
-163.06865644
  0
VERTEX
  8
0
 10
-46.01383643
 20
-169.46865644
  0
VERTEX
  8
0
 10
-36.01383643
 20
-169.46865644
  0
VERTEX
  8
0
 10
-36.01383643
 20
-163.06865644
  0
VERTEX
  8
0
 10
-46.01383643
 20
-163.06865644
  0
SEQEND
  0
POLYLINE
  8
Default_Layer
 62
256
 66
   1
 39
0.000000
 70
    1
  0
VERTEX
  8
0
 10
-62.01383643
 20
-163.06865644
  0
VERTEX
  8
0
 10
-62.01383643
 20
-169.46865644
  0
VERTEX
  8
0
 10
-52.01383643
 20
-169.46865644
  0
VERTEX
  8
0
 10
-52.01383643
 20
-163.06865644
  0
VERTEX
  8
0
 10
-62.01383643
 20
-163.06865644
  0
SEQEND
  0
CIRCLE
  8
Default_Layer
 62
256
 10
75.617416
 20
-173.797897
 40
2.649959
  0
POLYLINE
  8
Default_Layer
 62
256
 66
   1
 39
0.000000
 70
    1
  0
VERTEX
  8
0
 10
-79.73944570
 20
-38.01565644
  0
VERTEX
  8
0
 10
-79.63944570
 20
-38.01565644
  0
VERTEX
  8
0
 10
-73.63944570
 20
-38.01565644
  0
VERTEX
  8
0
 10
-73.53944570
 20
-38.01565644
  0
VERTEX
  8
0
 10
-73.53944570
 20
-28.01565644
  0
VERTEX
  8
0
 10
-73.63944570
 20
-28.01565644
  0
VERTEX
  8
0
 10
-79.63944570
 20
-28.01565644
  0
VERTEX
  8
0
 10
-79.73944570
 20
-28.01565644
  0
VERTEX
  8
0
 10
-79.73944570
 20
-38.01565644
  0
SEQEND
  0
CIRCLE
  8
Default_Layer
 62
256
 10
-121.702926
 20
-61.444356
 40
3.000070
  0
CIRCLE
  8
Default_Layer
 62
256
 10
-101.955858
 20
-61.444356
 40
3.000070
  0
CIRCLE
  8
Default_Layer
 62
256
 10
-137.472466
 20
178.702406
 40
2.649713
  0
CIRCLE
  8
Default_Layer
 62
256
 10
-123.263141
 20
191.446476
 40
2.649803
  0
POLYLINE
  8
Default_Layer
 62
256
 66
   1
 39
0.000000
 70
    1
  0
VERTEX
  8
0
 10
-113.70308438
 20
-61.44432198
  0
VERTEX
  8
0
 10
-113.71349337
 20
-61.85599562
  0
VERTEX
  8
0
 10
-113.74438603
 20
-62.26226505
  0
VERTEX
  8
0
 10
-113.79525970
 20
-62.66262761
  0
VERTEX
  8
0
 10
-113.86561175
 20
-63.05658067
  0
VERTEX
  8
0
 10
-113.95493953
 20
-63.44362156
  0
VERTEX
  8
0
 10
-114.06274040
 20
-63.82324766
  0
VERTEX
  8
0
 10
-114.18851172
 20
-64.19495630
  0
VERTEX
  8
0
 10
-114.33175085
 20
-64.55824485
  0
VERTEX
  8
0
 10
-114.49195514
 20
-64.91261065
  0
VERTEX
  8
0
 10
-114.66862194
 20
-65.25755106
  0
VERTEX
  8
0
 10
-114.86124862
 20
-65.59256343
  0
VERTEX
  8
0
 10
-115.06933253
 20
-65.91714512
  0
VERTEX
  8
0
 10
-115.29237104
 20
-66.23079348
  0
VERTEX
  8
0
 10
-115.52986149
 20
-66.53300586
  0
VERTEX
  8
0
 10
-115.78130124
 20
-66.82327961
  0
VERTEX
  8
0
 10
-116.04618766
 20
-67.10111210
  0
VERTEX
  8
0
 10
-116.32401809
 20
-67.36600066
  0
VERTEX
  8
0
 10
-116.61428990
 20
-67.61744266
  0
VERTEX
  8
0
 10
-116.91650045
 20
-67.85493545
  0
VERTEX
  8
0
 10
-117.23014708
 20
-68.07797638
  0
VERTEX
  8
0
 10
-117.55472716
 20
-68.28606281
  0
VERTEX
  8
0
 10
-117.88973804
 20
-68.47869208
  0
VERTEX
  8
0
 10
-118.23467709
 20
-68.65536155
  0
VERTEX
  8
0
 10
-118.58904165
 20
-68.81556858
  0
VERTEX
  8
0
 10
-118.95232909
 20
-68.95881052
  0
VERTEX
  8
0
 10
-119.32403676
 20
-69.08458471
  0
VERTEX
  8
0
 10
-119.70366201
 20
-69.19238852
  0
VERTEX
  8
0
 10
-120.09070222
 20
-69.28171930
  0
VERTEX
  8
0
 10
-120.48465473
 20
-69.35207439
  0
VERTEX
  8
0
 10
-120.88501690
 20
-69.40295116
  0
VERTEX
  8
0
 10
-121.29128609
 20
-69.43384696
  0
VERTEX
  8
0
 10
-121.70295965
 20
-69.44425914
  0
VERTEX
  8
0
 10
-122.11463336
 20
-69.43385256
  0
VERTEX
  8
0
 10
-122.52090296
 20
-69.40296230
  0
VERTEX
  8
0
 10
-122.92126583
 20
-69.35209097
  0
VERTEX
  8
0
 10
-123.31521929
 20
-69.28174124
  0
VERTEX
  8
0
 10
-123.70226072
 20
-69.19241573
  0
VERTEX
  8
0
 10
-124.08188744
 20
-69.08461708
  0
VERTEX
  8
0
 10
-124.45359682
 20
-68.95884795
  0
VERTEX
  8
0
 10
-124.81688621
 20
-68.81561095
  0
VERTEX
  8
0
 10
-125.17125295
 20
-68.65540875
  0
VERTEX
  8
0
 10
-125.51619440
 20
-68.47874397
  0
VERTEX
  8
0
 10
-125.85120790
 20
-68.28611926
  0
VERTEX
  8
0
 10
-126.17579082
 20
-68.07803725
  0
VERTEX
  8
0
 10
-126.48944048
 20
-67.85500059
  0
VERTEX
  8
0
 10
-126.79165426
 20
-67.61751191
  0
VERTEX
  8
0
 10
-127.08192949
 20
-67.36607386
  0
VERTEX
  8
0
 10
-127.35976353
 20
-67.10118908
  0
VERTEX
  8
0
 10
-127.62465373
 20
-66.82336020
  0
VERTEX
  8
0
 10
-127.87609743
 20
-66.53308986
  0
VERTEX
  8
0
 10
-128.11359199
 20
-66.23088071
  0
VERTEX
  8
0
 10
-128.33663477
 20
-65.91723539
  0
VERTEX
  8
0
 10
-128.54472310
 20
-65.59265653
  0
VERTEX
  8
0
 10
-128.73735434
 20
-65.25764678
  0
VERTEX
  8
0
 10
-128.91402583
 20
-64.91270878
  0
VERTEX
  8
0
 10
-129.07423494
 20
-64.55834515
  0
VERTEX
  8
0
 10
-129.21747901
 20
-64.19505856
  0
VERTEX
  8
0
 10
-129.34325539
 20
-63.82335163
  0
VERTEX
  8
0
 10
-129.45106143
 20
-63.44372700
  0
VERTEX
  8
0
 10
-129.54039448
 20
-63.05668732
  0
VERTEX
  8
0
 10
-129.61075189
 20
-62.66273522
  0
VERTEX
  8
0
 10
-129.66163101
 20
-62.26237335
  0
VERTEX
  8
0
 10
-129.69252919
 20
-61.85610434
  0
VERTEX
  8
0
 10
-129.70294379
 20
-61.44443084
  0
VERTEX
  8
0
 10
-129.70243333
 20
98.55563645
  0
VERTEX
  8
0
 10
-129.69202448
 20
98.96729481
  0
VERTEX
  8
0
 10
-129.66113266
 20
99.37354910
  0
VERTEX
  8
0
 10
-129.61026049
 20
99.77389669
  0
VERTEX
  8
0
 10
-129.53991060
 20
100.16783494
  0
VERTEX
  8
0
 10
-129.45058563
 20
100.55486124
  0
VERTEX
  8
0
 10
-129.34278820
 20
100.93447294
  0
VERTEX
  8
0
 10
-129.21702094
 20
101.30616743
  0
VERTEX
  8
0
 10
-129.07378648
 20
101.66944206
  0
VERTEX
  8
0
 10
-128.91358745
 20
102.02379421
  0
VERTEX
  8
0
 10
-128.73692649
 20
102.36872125
  0
VERTEX
  8
0
 10
-128.54430621
 20
102.70372055
  0
VERTEX
  8
0
 10
-128.33622926
 20
103.02828948
  0
VERTEX
  8
0
 10
-128.11319825
 20
103.34192541
  0
VERTEX
  8
0
 10
-127.87571583
 20
103.64412571
  0
VERTEX
  8
0
 10
-127.62428461
 20
103.93438774
  0
VERTEX
  8
0
 10
-127.35940723
 20
104.21220889
  0
VERTEX
  8
0
 10
-127.08158632
 20
104.47708651
  0
VERTEX
  8
0
 10
-126.79132450
 20
104.72851799
  0
VERTEX
  8
0
 10
-126.48912442
 20
104.96600068
  0
VERTEX
  8
0
 10
-126.17548868
 20
105.18903196
  0
VERTEX
  8
0
 10
-125.85091994
 20
105.39710920
  0
VERTEX
  8
0
 10
-125.51592081
 20
105.58972977
  0
VERTEX
  8
0
 10
-125.17099392
 20
105.76639104
  0
VERTEX
  8
0
 10
-124.81664191
 20
105.92659038
  0
VERTEX
  8
0
 10
-124.45336741
 20
106.06982516
  0
VERTEX
  8
0
 10
-124.08167303
 20
106.19559275
  0
VERTEX
  8
0
 10
-123.70206142
 20
106.30339051
  0
VERTEX
  8
0
 10
-123.31503521
 20
106.39271583
  0
VERTEX
  8
0
 10
-122.92109701
 20
106.46306606
  0
VERTEX
  8
0
 10
-122.52074947
 20
106.51393858
  0
VERTEX
  8
0
 10
-122.11449521
 20
106.54483077
  0
VERTEX
  8
0
 10
-121.70283686
 20
106.55523998
  0
VERTEX
  8
0
 10
-121.29117850
 20
106.54483113
  0
VERTEX
  8
0
 10
-120.88492421
 20
106.51393931
  0
VERTEX
  8
0
 10
-120.48457662
 20
106.46306713
  0
VERTEX
  8
0
 10
-120.09063836
 20
106.39271725
  0
VERTEX
  8
0
 10
-119.70361207
 20
106.30339227
  0
VERTEX
  8
0
 10
-119.32400036
 20
106.19559484
  0
VERTEX
  8
0
 10
-118.95230588
 20
106.06982759
  0
VERTEX
  8
0
 10
-118.58903125
 20
105.92659313
  0
VERTEX
  8
0
 10
-118.23467910
 20
105.76639410
  0
VERTEX
  8
0
 10
-117.88975205
 20
105.58973314
  0
VERTEX
  8
0
 10
-117.55475275
 20
105.39711286
  0
VERTEX
  8
0
 10
-117.23018382
 20
105.18903591
  0
VERTEX
  8
0
 10
-116.91654790
 20
104.96600490
  0
VERTEX
  8
0
 10
-116.61434760
 20
104.72852248
  0
VERTEX
  8
0
 10
-116.32408556
 20
104.47709126
  0
VERTEX
  8
0
 10
-116.04626442
 20
104.21221388
  0
VERTEX
  8
0
 10
-115.78138679
 20
103.93439297
  0
VERTEX
  8
0
 10
-115.52995532
 20
103.64413115
  0
VERTEX
  8
0
 10
-115.29247263
 20
103.34193106
  0
VERTEX
  8
0
 10
-115.06944134
 20
103.02829533
  0
VERTEX
  8
0
 10
-114.86136410
 20
102.70372659
  0
VERTEX
  8
0
 10
-114.66874353
 20
102.36872746
  0
VERTEX
  8
0
 10
-114.49208226
 20
102.02380057
  0
VERTEX
  8
0
 10
-114.33188293
 20
101.66944856
  0
VERTEX
  8
0
 10
-114.18864815
 20
101.30617405
  0
VERTEX
  8
0
 10
-114.06288056
 20
100.93447968
  0
VERTEX
  8
0
 10
-113.95508280
 20
100.55486807
  0
VERTEX
  8
0
 10
-113.86575748
 20
100.16784185
  0
VERTEX
  8
0
 10
-113.79540725
 20
99.77390366
  0
VERTEX
  8
0
 10
-113.74453472
 20
99.37355612
  0
VERTEX
  8
0
 10
-113.71364254
 20
98.96730186
  0
VERTEX
  8
0
 10
-113.70323333
 20
98.55564351
  0
VERTEX
  8
0
 10
-113.70308438
 20
-61.44432198
  0
SEQEND
  0
CIRCLE
  8
Default_Layer
 62
256
 10
-142.700508
 20
-61.444356
 40
3.000070
  0
CIRCLE
  8
Default_Layer
 62
256
 10
-76.639536
 20
-58.015756
 40
2.650023
  0
POLYLINE
  8
Default_Layer
 62
256
 66
   1
 39
0.000000
 70
    1
  0
VERTEX
  8
0
 10
-93.95601629
 20
-61.44442804
  0
VERTEX
  8
0
 10
-93.96643065
 20
-61.85609964
  0
VERTEX
  8
0
 10
-93.99732842
 20
-62.26236683
  0
VERTEX
  8
0
 10
-94.04820695
 20
-62.66272697
  0
VERTEX
  8
0
 10
-94.11856361
 20
-63.05667743
  0
VERTEX
  8
0
 10
-94.20789575
 20
-63.44371557
  0
VERTEX
  8
0
 10
-94.31570074
 20
-63.82333875
  0
VERTEX
  8
0
 10
-94.44147593
 20
-64.19504435
  0
VERTEX
  8
0
 10
-94.58471868
 20
-64.55832972
  0
VERTEX
  8
0
 10
-94.74492634
 20
-64.91269223
  0
VERTEX
  8
0
 10
-94.92159628
 20
-65.25762924
  0
VERTEX
  8
0
 10
-95.11422586
 20
-65.59263813
  0
VERTEX
  8
0
 10
-95.32231243
 20
-65.91721624
  0
VERTEX
  8
0
 10
-95.54535336
 20
-66.23086096
  0
VERTEX
  8
0
 10
-95.78284599
 20
-66.53306964
  0
VERTEX
  8
0
 10
-96.03428769
 20
-66.82333964
  0
VERTEX
  8
0
 10
-96.29917582
 20
-67.10116834
  0
VERTEX
  8
0
 10
-96.57700774
 20
-67.36605310
  0
VERTEX
  8
0
 10
-96.86728080
 20
-67.61749127
  0
VERTEX
  8
0
 10
-97.16949237
 20
-67.85498023
  0
VERTEX
  8
0
 10
-97.48313979
 20
-68.07801735
  0
VERTEX
  8
0
 10
-97.80772044
 20
-68.28609997
  0
VERTEX
  8
0
 10
-98.14273167
 20
-68.47872548
  0
VERTEX
  8
0
 10
-98.48767083
 20
-68.65539123
  0
VERTEX
  8
0
 10
-98.84203528
 20
-68.81559459
  0
VERTEX
  8
0
 10
-99.20532240
 20
-68.95883292
  0
VERTEX
  8
0
 10
-99.57702952
 20
-69.08460359
  0
VERTEX
  8
0
 10
-99.95665401
 20
-69.19240397
  0
VERTEX
  8
0
 10
-100.34369324
 20
-69.28173141
  0
VERTEX
  8
0
 10
-100.73764455
 20
-69.35208328
  0
VERTEX
  8
0
 10
-101.13800531
 20
-69.40295695
  0
VERTEX
  8
0
 10
-101.54427287
 20
-69.43384978
  0
VERTEX
  8
0
 10
-101.95594460
 20
-69.44425913
  0
VERTEX
  8
0
 10
-102.36761633
 20
-69.43384992
  0
VERTEX
  8
0
 10
-102.77388390
 20
-69.40295723
  0
VERTEX
  8
0
 10
-103.17424468
 20
-69.35208371
  0
VERTEX
  8
0
 10
-103.56819601
 20
-69.28173197
  0
VERTEX
  8
0
 10
-103.95523527
 20
-69.19240467
  0
VERTEX
  8
0
 10
-104.33485980
 20
-69.08460443
  0
VERTEX
  8
0
 10
-104.70656697
 20
-68.95883389
  0
VERTEX
  8
0
 10
-105.06985413
 20
-68.81559568
  0
VERTEX
  8
0
 10
-105.42421864
 20
-68.65539244
  0
VERTEX
  8
0
 10
-105.76915787
 20
-68.47872681
  0
VERTEX
  8
0
 10
-106.10416916
 20
-68.28610142
  0
VERTEX
  8
0
 10
-106.42874988
 20
-68.07801891
  0
VERTEX
  8
0
 10
-106.74239738
 20
-67.85498191
  0
VERTEX
  8
0
 10
-107.04460903
 20
-67.61749305
  0
VERTEX
  8
0
 10
-107.33488218
 20
-67.36605498
  0
VERTEX
  8
0
 10
-107.61271419
 20
-67.10117032
  0
VERTEX
  8
0
 10
-107.87760242
 20
-66.82334172
  0
VERTEX
  8
0
 10
-108.12904422
 20
-66.53307180
  0
VERTEX
  8
0
 10
-108.36653696
 20
-66.23086320
  0
VERTEX
  8
0
 10
-108.58957799
 20
-65.91721856
  0
VERTEX
  8
0
 10
-108.79766468
 20
-65.59264052
  0
VERTEX
  8
0
 10
-108.99029437
 20
-65.25763170
  0
VERTEX
  8
0
 10
-109.16696444
 20
-64.91269475
  0
VERTEX
  8
0
 10
-109.32717223
 20
-64.55833230
  0
VERTEX
  8
0
 10
-109.47041510
 20
-64.19504698
  0
VERTEX
  8
0
 10
-109.59619042
 20
-63.82334142
  0
VERTEX
  8
0
 10
-109.70399554
 20
-63.44371828
  0
VERTEX
  8
0
 10
-109.79332782
 20
-63.05668017
  0
VERTEX
  8
0
 10
-109.86368462
 20
-62.66272974
  0
VERTEX
  8
0
 10
-109.91456329
 20
-62.26236962
  0
VERTEX
  8
0
 10
-109.94546120
 20
-61.85610244
  0
VERTEX
  8
0
 10
-109.95587570
 20
-61.44443084
  0
VERTEX
  8
0
 10
-109.95536524
 20
98.55563645
  0
VERTEX
  8
0
 10
-109.94553370
 20
98.95231531
  0
VERTEX
  8
0
 10
-109.91622018
 20
99.34630181
  0
VERTEX
  8
0
 10
-109.86769627
 20
99.73694026
  0
VERTEX
  8
0
 10
-109.80023358
 20
100.12357496
  0
VERTEX
  8
0
 10
-109.71410372
 20
100.50555022
  0
VERTEX
  8
0
 10
-109.60957827
 20
100.88221033
  0
VERTEX
  8
0
 10
-109.48692883
 20
101.25289961
  0
VERTEX
  8
0
 10
-109.34642702
 20
101.61696235
  0
VERTEX
  8
0
 10
-109.18834442
 20
101.97374286
  0
VERTEX
  8
0
 10
-109.01295264
 20
102.32258545
  0
VERTEX
  8
0
 10
-108.82052328
 20
102.66283440
  0
VERTEX
  8
0
 10
-108.61132793
 20
102.99383404
  0
VERTEX
  8
0
 10
-108.38563820
 20
103.31492865
  0
VERTEX
  8
0
 10
-108.14372568
 20
103.62546255
  0
VERTEX
  8
0
 10
-107.88586198
 20
103.92478004
  0
VERTEX
  8
0
 10
-107.61231870
 20
104.21222542
  0
VERTEX
  8
0
 10
-107.32487158
 20
104.48576688
  0
VERTEX
  8
0
 10
-107.02555246
 20
104.74362868
  0
VERTEX
  8
0
 10
-106.71501702
 20
104.98553922
  0
VERTEX
  8
0
 10
-106.39392097
 20
105.21122692
  0
VERTEX
  8
0
 10
-106.06292001
 20
105.42042016
  0
VERTEX
  8
0
 10
-105.72266983
 20
105.61284737
  0
VERTEX
  8
0
 10
-105.37382614
 20
105.78823693
  0
VERTEX
  8
0
 10
-105.01704462
 20
105.94631727
  0
VERTEX
  8
0
 10
-104.65298099
 20
106.08681677
  0
VERTEX
  8
0
 10
-104.28229093
 20
106.20946385
  0
VERTEX
  8
0
 10
-103.90563015
 20
106.31398691
  0
VERTEX
  8
0
 10
-103.52365435
 20
106.40011435
  0
VERTEX
  8
0
 10
-103.13701922
 20
106.46757459
  0
VERTEX
  8
0
 10
-102.74638046
 20
106.51609601
  0
VERTEX
  8
0
 10
-102.35239377
 20
106.54540703
  0
VERTEX
  8
0
 10
-101.95571485
 20
106.55523606
  0
VERTEX
  8
0
 10
-101.55903606
 20
106.54540204
  0
VERTEX
  8
0
 10
-101.16504974
 20
106.51608605
  0
VERTEX
  8
0
 10
-100.77441159
 20
106.46755970
  0
VERTEX
  8
0
 10
-100.38777731
 20
106.40009460
  0
VERTEX
  8
0
 10
-100.00580259
 20
106.31396234
  0
VERTEX
  8
0
 10
-99.62914313
 20
106.20943454
  0
VERTEX
  8
0
 10
-99.25845462
 20
106.08678279
  0
VERTEX
  8
0
 10
-98.89439276
 20
105.94627870
  0
VERTEX
  8
0
 10
-98.53761323
 20
105.78819387
  0
VERTEX
  8
0
 10
-98.18877175
 20
105.61279991
  0
VERTEX
  8
0
 10
-97.84852399
 20
105.42036842
  0
VERTEX
  8
0
 10
-97.51752567
 20
105.21117100
  0
VERTEX
  8
0
 10
-97.19643246
 20
104.98547927
  0
VERTEX
  8
0
 10
-96.88590007
 20
104.74356481
  0
VERTEX
  8
0
 10
-96.58658420
 20
104.48569924
  0
VERTEX
  8
0
 10
-96.29914053
 20
104.21215416
  0
VERTEX
  8
0
 10
-96.02560086
 20
103.92470533
  0
VERTEX
  8
0
 10
-95.76774094
 20
103.62538460
  0
VERTEX
  8
0
 10
-95.52583233
 20
103.31484765
  0
VERTEX
  8
0
 10
-95.30014665
 20
102.99375019
  0
VERTEX
  8
0
 10
-95.09095547
 20
102.66274792
  0
VERTEX
  8
0
 10
-94.89853039
 20
102.32249654
  0
VERTEX
  8
0
 10
-94.72314300
 20
101.97365175
  0
VERTEX
  8
0
 10
-94.56506490
 20
101.61686925
  0
VERTEX
  8
0
 10
-94.42456767
 20
101.25280473
  0
VERTEX
  8
0
 10
-94.30192291
 20
100.88211391
  0
VERTEX
  8
0
 10
-94.19740220
 20
100.50545248
  0
VERTEX
  8
0
 10
-94.11127715
 20
100.12347614
  0
VERTEX
  8
0
 10
-94.04381933
 20
99.73684058
  0
VERTEX
  8
0
 10
-93.99530035
 20
99.34620152
  0
VERTEX
  8
0
 10
-93.96599179
 20
98.95221465
  0
VERTEX
  8
0
 10
-93.95616524
 20
98.55553567
  0
VERTEX
  8
0
 10
-93.95601629
 20
-61.44442804
  0
SEQEND
  0
POLYLINE
  8
Default_Layer
 62
256
 66
   1
 39
0.000000
 70
    1
  0
VERTEX
  8
0
 10
-134.70066706
 20
-61.44442804
  0
VERTEX
  8
0
 10
-134.71108153
 20
-61.85610192
  0
VERTEX
  8
0
 10
-134.74197963
 20
-62.26237130
  0
VERTEX
  8
0
 10
-134.79285870
 20
-62.66273353
  0
VERTEX
  8
0
 10
-134.86321609
 20
-63.05668598
  0
VERTEX
  8
0
 10
-134.95254915
 20
-63.44372601
  0
VERTEX
  8
0
 10
-135.06035524
 20
-63.82335096
  0
VERTEX
  8
0
 10
-135.18613170
 20
-64.19505821
  0
VERTEX
  8
0
 10
-135.32937588
 20
-64.55834510
  0
VERTEX
  8
0
 10
-135.48958512
 20
-64.91270901
  0
VERTEX
  8
0
 10
-135.66625678
 20
-65.25764729
  0
VERTEX
  8
0
 10
-135.85888821
 20
-65.59265729
  0
VERTEX
  8
0
 10
-136.06697675
 20
-65.91723638
  0
VERTEX
  8
0
 10
-136.29001975
 20
-66.23088192
  0
VERTEX
  8
0
 10
-136.52751457
 20
-66.53309126
  0
VERTEX
  8
0
 10
-136.77895854
 20
-66.82336176
  0
VERTEX
  8
0
 10
-137.04384903
 20
-67.10119078
  0
VERTEX
  8
0
 10
-137.32168338
 20
-67.36607569
  0
VERTEX
  8
0
 10
-137.61195893
 20
-67.61751384
  0
VERTEX
  8
0
 10
-137.91417304
 20
-67.85500258
  0
VERTEX
  8
0
 10
-138.22782306
 20
-68.07803929
  0
VERTEX
  8
0
 10
-138.55240633
 20
-68.28612131
  0
VERTEX
  8
0
 10
-138.88742020
 20
-68.47874601
  0
VERTEX
  8
0
 10
-139.23236202
 20
-68.65541074
  0
VERTEX
  8
0
 10
-139.58672915
 20
-68.81561287
  0
VERTEX
  8
0
 10
-139.95001892
 20
-68.95884975
  0
VERTEX
  8
0
 10
-140.32172869
 20
-69.08461874
  0
VERTEX
  8
0
 10
-140.70135581
 20
-69.19241720
  0
VERTEX
  8
0
 10
-141.08839763
 20
-69.28174249
  0
VERTEX
  8
0
 10
-141.48235149
 20
-69.35209197
  0
VERTEX
  8
0
 10
-141.88271475
 20
-69.40296300
  0
VERTEX
  8
0
 10
-142.28898475
 20
-69.43385294
  0
VERTEX
  8
0
 10
-142.70065883
 20
-69.44425914
  0
VERTEX
  8
0
 10
-143.11233276
 20
-69.43384655
  0
VERTEX
  8
0
 10
-143.51860228
 20
-69.40295031
  0
VERTEX
  8
0
 10
-143.91896475
 20
-69.35207307
  0
VERTEX
  8
0
 10
-144.31291752
 20
-69.28171747
  0
VERTEX
  8
0
 10
-144.69995795
 20
-69.19238618
  0
VERTEX
  8
0
 10
-145.07958339
 20
-69.08458182
  0
VERTEX
  8
0
 10
-145.45129122
 20
-68.95880706
  0
VERTEX
  8
0
 10
-145.81457877
 20
-68.81556455
  0
VERTEX
  8
0
 10
-146.16894341
 20
-68.65535692
  0
VERTEX
  8
0
 10
-146.51388249
 20
-68.47868684
  0
VERTEX
  8
0
 10
-146.84889337
 20
-68.28605694
  0
VERTEX
  8
0
 10
-147.17347341
 20
-68.07796988
  0
VERTEX
  8
0
 10
-147.48711997
 20
-67.85492831
  0
VERTEX
  8
0
 10
-147.78933039
 20
-67.61743487
  0
VERTEX
  8
0
 10
-148.07960204
 20
-67.36599222
  0
VERTEX
  8
0
 10
-148.35743228
 20
-67.10110300
  0
VERTEX
  8
0
 10
-148.62231845
 20
-66.82326987
  0
VERTEX
  8
0
 10
-148.87375793
 20
-66.53299546
  0
VERTEX
  8
0
 10
-149.11124805
 20
-66.23078244
  0
VERTEX
  8
0
 10
-149.33428619
 20
-65.91713344
  0
VERTEX
  8
0
 10
-149.54236969
 20
-65.59255112
  0
VERTEX
  8
0
 10
-149.73499592
 20
-65.25753813
  0
VERTEX
  8
0
 10
-149.91166223
 20
-64.91259711
  0
VERTEX
  8
0
 10
-150.07186598
 20
-64.55823072
  0
VERTEX
  8
0
 10
-150.21510451
 20
-64.19494160
  0
VERTEX
  8
0
 10
-150.34087520
 20
-63.82323240
  0
VERTEX
  8
0
 10
-150.44867540
 20
-63.44360577
  0
VERTEX
  8
0
 10
-150.53800246
 20
-63.05656436
  0
VERTEX
  8
0
 10
-150.60835374
 20
-62.66261082
  0
VERTEX
  8
0
 10
-150.65922660
 20
-62.26224780
  0
VERTEX
  8
0
 10
-150.69011839
 20
-61.85597795
  0
VERTEX
  8
0
 10
-150.70052647
 20
-61.44430390
  0
VERTEX
  8
0
 10
-150.70001601
 20
98.55566158
  0
VERTEX
  8
0
 10
-150.69018324
 20
98.95234000
  0
VERTEX
  8
0
 10
-150.66086854
 20
99.34632601
  0
VERTEX
  8
0
 10
-150.61234351
 20
99.73696393
  0
VERTEX
  8
0
 10
-150.54487974
 20
100.12359804
  0
VERTEX
  8
0
 10
-150.45874884
 20
100.50557267
  0
VERTEX
  8
0
 10
-150.35422241
 20
100.88223211
  0
VERTEX
  8
0
 10
-150.23157206
 20
101.25292068
  0
VERTEX
  8
0
 10
-150.09106937
 20
101.61698267
  0
VERTEX
  8
0
 10
-149.93298596
 20
101.97376240
  0
VERTEX
  8
0
 10
-149.75759342
 20
102.32260416
  0
VERTEX
  8
0
 10
-149.56516335
 20
102.66285228
  0
VERTEX
  8
0
 10
-149.35596736
 20
102.99385104
  0
VERTEX
  8
0
 10
-149.13027704
 20
103.31494477
  0
VERTEX
  8
0
 10
-148.88836399
 20
103.62547775
  0
VERTEX
  8
0
 10
-148.63049983
 20
103.92479431
  0
VERTEX
  8
0
 10
-148.35695614
 20
104.21223875
  0
VERTEX
  8
0
 10
-148.06950868
 20
104.48577926
  0
VERTEX
  8
0
 10
-147.77018927
 20
104.74364011
  0
VERTEX
  8
0
 10
-147.45965361
 20
104.98554972
  0
VERTEX
  8
0
 10
-147.13855739
 20
105.21123649
  0
VERTEX
  8
0
 10
-146.80755631
 20
105.42042882
  0
VERTEX
  8
0
 10
-146.46730606
 20
105.61285513
  0
VERTEX
  8
0
 10
-146.11846236
 20
105.78824381
  0
VERTEX
  8
0
 10
-145.76168088
 20
105.94632328
  0
VERTEX
  8
0
 10
-145.39761733
 20
106.08682194
  0
VERTEX
  8
0
 10
-145.02692741
 20
106.20946819
  0
VERTEX
  8
0
 10
-144.65026681
 20
106.31399045
  0
VERTEX
  8
0
 10
-144.26829123
 20
106.40011713
  0
VERTEX
  8
0
 10
-143.88165637
 20
106.46757662
  0
VERTEX
  8
0
 10
-143.49101792
 20
106.51609733
  0
VERTEX
  8
0
 10
-143.09703159
 20
106.54540768
  0
VERTEX
  8
0
 10
-142.70035306
 20
106.55523606
  0
VERTEX
  8
0
 10
-142.30367468
 20
106.54540143
  0
VERTEX
  8
0
 10
-141.90968881
 20
106.51608489
  0
VERTEX
  8
0
 10
-141.51905112
 20
106.46755802
  0
VERTEX
  8
0
 10
-141.13241732
 20
106.40009245
  0
VERTEX
  8
0
 10
-140.75044310
 20
106.31395976
  0
VERTEX
  8
0
 10
-140.37378414
 20
106.20943157
  0
VERTEX
  8
0
 10
-140.00309615
 20
106.08677948
  0
VERTEX
  8
0
 10
-139.63903482
 20
105.94627509
  0
VERTEX
  8
0
 10
-139.28225583
 20
105.78819001
  0
VERTEX
  8
0
 10
-138.93341488
 20
105.61279584
  0
VERTEX
  8
0
 10
-138.59316767
 20
105.42036418
  0
VERTEX
  8
0
 10
-138.26216988
 20
105.21116664
  0
VERTEX
  8
0
 10
-137.94107721
 20
104.98547481
  0
VERTEX
  8
0
 10
-137.63054536
 20
104.74356032
  0
VERTEX
  8
0
 10
-137.33123001
 20
104.48569475
  0
VERTEX
  8
0
 10
-137.04378685
 20
104.21214972
  0
VERTEX
  8
0
 10
-136.77024769
 20
103.92470098
  0
VERTEX
  8
0
 10
-136.51238823
 20
103.62538036
  0
VERTEX
  8
0
 10
-136.27048008
 20
103.31484357
  0
VERTEX
  8
0
 10
-136.04479481
 20
102.99374629
  0
VERTEX
  8
0
 10
-135.83560403
 20
102.66274423
  0
VERTEX
  8
0
 10
-135.64317932
 20
102.32249309
  0
VERTEX
  8
0
 10
-135.46779227
 20
101.97364856
  0
VERTEX
  8
0
 10
-135.30971447
 20
101.61686634
  0
VERTEX
  8
0
 10
-135.16921751
 20
101.25280214
  0
VERTEX
  8
0
 10
-135.04657299
 20
100.88211164
  0
VERTEX
  8
0
 10
-134.94205249
 20
100.50545056
  0
VERTEX
  8
0
 10
-134.85592761
 20
100.12347457
  0
VERTEX
  8
0
 10
-134.78846992
 20
99.73683940
  0
VERTEX
  8
0
 10
-134.73995104
 20
99.34620072
  0
VERTEX
  8
0
 10
-134.71064254
 20
98.95221425
  0
VERTEX
  8
0
 10
-134.70081601
 20
98.55553567
  0
VERTEX
  8
0
 10
-134.70066706
 20
-61.44442804
  0
SEQEND
  0
POLYLINE
  8
Default_Layer
 62
256
 66
   1
 39
0.000000
 70
    1
  0
VERTEX
  8
0
 10
-115.20887943
 20
126.29854356
  0
VERTEX
  8
0
 10
-115.40655486
 20
126.30833023
  0
VERTEX
  8
0
 10
-115.60088211
 20
126.33732808
  0
VERTEX
  8
0
 10
-115.79054973
 20
126.38499391
  0
VERTEX
  8
0
 10
-115.97424630
 20
126.45078449
  0
VERTEX
  8
0
 10
-116.15066035
 20
126.53415661
  0
VERTEX
  8
0
 10
-116.31848044
 20
126.63456705
  0
VERTEX
  8
0
 10
-116.47639514
 20
126.75147258
  0
VERTEX
  8
0
 10
-116.62309299
 20
126.88433000
  0
VERTEX
  8
0
 10
-116.75595041
 20
127.03102785
  0
VERTEX
  8
0
 10
-116.87285594
 20
127.18894255
  0
VERTEX
  8
0
 10
-116.97326638
 20
127.35676264
  0
VERTEX
  8
0
 10
-117.05663850
 20
127.53317669
  0
VERTEX
  8
0
 10
-117.12242908
 20
127.71687325
  0
VERTEX
  8
0
 10
-117.17009491
 20
127.90654088
  0
VERTEX
  8
0
 10
-117.19909276
 20
128.10086813
  0
VERTEX
  8
0
 10
-117.20887943
 20
128.29854356
  0
VERTEX
  8
0
 10
-117.19909276
 20
128.49621898
  0
VERTEX
  8
0
 10
-117.17009491
 20
128.69054623
  0
VERTEX
  8
0
 10
-117.12242908
 20
128.88021386
  0
VERTEX
  8
0
 10
-117.05663850
 20
129.06391042
  0
VERTEX
  8
0
 10
-116.97326638
 20
129.24032447
  0
VERTEX
  8
0
 10
-116.87285594
 20
129.40814457
  0
VERTEX
  8
0
 10
-116.75595041
 20
129.56605927
  0
VERTEX
  8
0
 10
-116.62309299
 20
129.71275712
  0
VERTEX
  8
0
 10
-116.47639514
 20
129.84561454
  0
VERTEX
  8
0
 10
-116.31848044
 20
129.96252007
  0
VERTEX
  8
0
 10
-116.15066035
 20
130.06293051
  0
VERTEX
  8
0
 10
-115.97424630
 20
130.14630262
  0
VERTEX
  8
0
 10
-115.79054973
 20
130.21209320
  0
VERTEX
  8
0
 10
-115.60088211
 20
130.25975903
  0
VERTEX
  8
0
 10
-115.40655486
 20
130.28875689
  0
VERTEX
  8
0
 10
-115.20887943
 20
130.29854356
  0
VERTEX
  8
0
 10
-105.20887943
 20
130.29854356
  0
VERTEX
  8
0
 10
-105.01120400
 20
130.28875689
  0
VERTEX
  8
0
 10
-104.81687675
 20
130.25975903
  0
VERTEX
  8
0
 10
-104.62720913
 20
130.21209320
  0
VERTEX
  8
0
 10
-104.44351257
 20
130.14630262
  0
VERTEX
  8
0
 10
-104.26709851
 20
130.06293051
  0
VERTEX
  8
0
 10
-104.09927842
 20
129.96252007
  0
VERTEX
  8
0
 10
-103.94136372
 20
129.84561454
  0
VERTEX
  8
0
 10
-103.79466587
 20
129.71275712
  0
VERTEX
  8
0
 10
-103.66180845
 20
129.56605927
  0
VERTEX
  8
0
 10
-103.54490292
 20
129.40814457
  0
VERTEX
  8
0
 10
-103.44449248
 20
129.24032447
  0
VERTEX
  8
0
 10
-103.36112037
 20
129.06391042
  0
VERTEX
  8
0
 10
-103.29532978
 20
128.88021386
  0
VERTEX
  8
0
 10
-103.24766395
 20
128.69054623
  0
VERTEX
  8
0
 10
-103.21866610
 20
128.49621898
  0
VERTEX
  8
0
 10
-103.20887943
 20
128.29854356
  0
VERTEX
  8
0
 10
-103.21866610
 20
128.10086813
  0
VERTEX
  8
0
 10
-103.24766395
 20
127.90654088
  0
VERTEX
  8
0
 10
-103.29532978
 20
127.71687325
  0
VERTEX
  8
0
 10
-103.36112037
 20
127.53317669
  0
VERTEX
  8
0
 10
-103.44449248
 20
127.35676264
  0
VERTEX
  8
0
 10
-103.54490292
 20
127.18894255
  0
VERTEX
  8
0
 10
-103.66180845
 20
127.03102785
  0
VERTEX
  8
0
 10
-103.79466587
 20
126.88433000
  0
VERTEX
  8
0
 10
-103.94136372
 20
126.75147258
  0
VERTEX
  8
0
 10
-104.09927842
 20
126.63456705
  0
VERTEX
  8
0
 10
-104.26709851
 20
126.53415661
  0
VERTEX
  8
0
 10
-104.44351257
 20
126.45078449
  0
VERTEX
  8
0
 10
-104.62720913
 20
126.38499391
  0
VERTEX
  8
0
 10
-104.81687675
 20
126.33732808
  0
VERTEX
  8
0
 10
-105.01120400
 20
126.30833023
  0
VERTEX
  8
0
 10
-105.20887943
 20
126.29854356
  0
VERTEX
  8
0
 10
-115.20887943
 20
126.29854356
  0
SEQEND
  0
POLYLINE
  8
Default_Layer
 62
256
 66
   1
 39
0.000000
 70
    1
  0
VERTEX
  8
0
 10
-73.53944570
 20
66.98434356
  0
VERTEX
  8
0
 10
-73.53944570
 20
81.98434356
  0
VERTEX
  8
0
 10
-79.73944570
 20
81.98434356
  0
VERTEX
  8
0
 10
-79.73944570
 20
66.98434356
  0
VERTEX
  8
0
 10
-73.53944570
 20
66.98434356
  0
SEQEND
  0
CIRCLE
  8
Default_Layer
 62
256
 10
-101.955787
 20
98.555644
 40
3.000000
  0
CIRCLE
  8
Default_Layer
 62
256
 10
-135.408979
 20
128.298444
 40
2.649900
  0
CIRCLE
  8
Default_Layer
 62
256
 10
-65.210327
 20
128.298444
 40
2.650023
  0
CIRCLE
  8
Default_Layer
 62
256
 10
-142.700438
 20
98.555644
 40
3.000000
  0
CIRCLE
  8
Default_Layer
 62
256
 10
-76.639480
 20
5.984044
 40
2.999965
  0
POLYLINE
  8
Default_Layer
 62
256
 66
   1
 39
0.000000
 70
    1
  0
VERTEX
  8
0
 10
-77.31504570
 20
161.81414356
  0
VERTEX
  8
0
 10
-67.11504570
 20
161.81414356
  0
VERTEX
  8
0
 10
-66.90646755
 20
161.80361127
  0
VERTEX
  8
0
 10
-66.70391455
 20
161.77269801
  0
VERTEX
  8
0
 10
-66.50841211
 20
161.72242920
  0
VERTEX
  8
0
 10
-66.32098564
 20
161.65383025
  0
VERTEX
  8
0
 10
-66.14266057
 20
161.56792657
  0
VERTEX
  8
0
 10
-65.97446230
 20
161.46574360
  0
VERTEX
  8
0
 10
-65.81741627
 20
161.34830673
  0
VERTEX
  8
0
 10
-65.67254787
 20
161.21664139
  0
VERTEX
  8
0
 10
-65.54088253
 20
161.07177299
  0
VERTEX
  8
0
 10
-65.42344566
 20
160.91472696
  0
VERTEX
  8
0
 10
-65.32126269
 20
160.74652869
  0
VERTEX
  8
0
 10
-65.23535902
 20
160.56820362
  0
VERTEX
  8
0
 10
-65.16676007
 20
160.38077715
  0
VERTEX
  8
0
 10
-65.11649125
 20
160.18527471
  0
VERTEX
  8
0
 10
-65.08557799
 20
159.98272171
  0
VERTEX
  8
0
 10
-65.07504570
 20
159.77414356
  0
VERTEX
  8
0
 10
-65.08557799
 20
159.56556541
  0
VERTEX
  8
0
 10
-65.11649125
 20
159.36301240
  0
VERTEX
  8
0
 10
-65.16676007
 20
159.16750996
  0
VERTEX
  8
0
 10
-65.23535902
 20
158.98008349
  0
VERTEX
  8
0
 10
-65.32126269
 20
158.80175842
  0
VERTEX
  8
0
 10
-65.42344566
 20
158.63356016
  0
VERTEX
  8
0
 10
-65.54088253
 20
158.47651412
  0
VERTEX
  8
0
 10
-65.67254787
 20
158.33164572
  0
VERTEX
  8
0
 10
-65.81741627
 20
158.19998038
  0
VERTEX
  8
0
 10
-65.97446230
 20
158.08254352
  0
VERTEX
  8
0
 10
-66.14266057
 20
157.98036054
  0
VERTEX
  8
0
 10
-66.32098564
 20
157.89445687
  0
VERTEX
  8
0
 10
-66.50841211
 20
157.82585792
  0
VERTEX
  8
0
 10
-66.70391455
 20
157.77558911
  0
VERTEX
  8
0
 10
-66.90646755
 20
157.74467585
  0
VERTEX
  8
0
 10
-67.11504570
 20
157.73414356
  0
VERTEX
  8
0
 10
-77.31504570
 20
157.73414356
  0
VERTEX
  8
0
 10
-77.51667464
 20
157.74412596
  0
VERTEX
  8
0
 10
-77.71488843
 20
157.77370377
  0
VERTEX
  8
0
 10
-77.90834941
 20
157.82232292
  0
VERTEX
  8
0
 10
-78.09571991
 20
157.88942931
  0
VERTEX
  8
0
 10
-78.27566224
 20
157.97446887
  0
VERTEX
  8
0
 10
-78.44683873
 20
158.07688751
  0
VERTEX
  8
0
 10
-78.60791173
 20
158.19613116
  0
VERTEX
  8
0
 10
-78.75754354
 20
158.33164572
  0
VERTEX
  8
0
 10
-78.89305810
 20
158.48127753
  0
VERTEX
  8
0
 10
-79.01230175
 20
158.64235053
  0
VERTEX
  8
0
 10
-79.11472039
 20
158.81352702
  0
VERTEX
  8
0
 10
-79.19975995
 20
158.99346936
  0
VERTEX
  8
0
 10
-79.26686634
 20
159.18083985
  0
VERTEX
  8
0
 10
-79.31548549
 20
159.37430083
  0
VERTEX
  8
0
 10
-79.34506330
 20
159.57251462
  0
VERTEX
  8
0
 10
-79.35504570
 20
159.77414356
  0
VERTEX
  8
0
 10
-79.34451341
 20
159.98272171
  0
VERTEX
  8
0
 10
-79.31360015
 20
160.18527471
  0
VERTEX
  8
0
 10
-79.26333134
 20
160.38077715
  0
VERTEX
  8
0
 10
-79.19473239
 20
160.56820362
  0
VERTEX
  8
0
 10
-79.10882872
 20
160.74652869
  0
VERTEX
  8
0
 10
-79.00664574
 20
160.91472696
  0
VERTEX
  8
0
 10
-78.88920888
 20
161.07177299
  0
VERTEX
  8
0
 10
-78.75754354
 20
161.21664139
  0
VERTEX
  8
0
 10
-78.61267514
 20
161.34830673
  0
VERTEX
  8
0
 10
-78.45562910
 20
161.46574360
  0
VERTEX
  8
0
 10
-78.28743084
 20
161.56792657
  0
VERTEX
  8
0
 10
-78.10910577
 20
161.65383025
  0
VERTEX
  8
0
 10
-77.92167930
 20
161.72242920
  0
VERTEX
  8
0
 10
-77.72617686
 20
161.77269801
  0
VERTEX
  8
0
 10
-77.52362385
 20
161.80361127
  0
VERTEX
  8
0
 10
-77.31504570
 20
161.81414356
  0
SEQEND
  0
CIRCLE
  8
Default_Layer
 62
256
 10
-121.702855
 20
98.555644
 40
3.000000
  0
CIRCLE
  8
Default_Layer
 62
256
 10
-76.639500
 20
101.984244
 40
2.999746
  0
CIRCLE
  8
Default_Layer
 62
256
 10
-111.241348
 20
160.462521
 40
2.649713
  0
CIRCLE
  8
Default_Layer
 62
256
 10
-97.032023
 20
173.206592
 40
2.649803
  0
CIRCLE
  8
Default_Layer
 62
256
 10
-97.715262
 20
159.774244
 40
7.242082
  0
ENDSEC
  0
EOF
