  0
SECTION
  2
HEADER
  9
$ACADVER
  1
AC1009
  9
$EXTMIN
 10
-150.00000000
 20
-200.00000000
 30
0.0
  9
$EXTMAX
 10
150.00000000
 20
200.00000000
 30
0.0
  0
ENDSEC
  0
SECTION
  2
TABLES
  0
TABLE
  2
LAYER
 70
1
 0
LAYER
 2
Default_Layer
 70
0
 62
18
 6
CONTINUOUS
 0
ENDTAB
 0
ENDSEC
  0
SECTION
  2
ENTITIES
  0
POLYLINE
  8
Default_Layer
 62
256
 66
   1
 39
0.000000
 70
    1
  0
VERTEX
  8
0
 10
-131.52200717
 20
80.63987445
 42
-0.41421361
  0
VERTEX
  8
0
 10
-139.52201239
 20
88.63987045
 42
-0.41421361
  0
VERTEX
  8
0
 10
-131.52201517
 20
96.63987445
  0
VERTEX
  8
0
 10
-123.86301986
 20
96.55530349
 42
0.20015172
  0
VERTEX
  8
0
 10
-115.80702180
 20
99.81078321
 42
-0.36560808
  0
VERTEX
  8
0
 10
-95.61577476
 20
101.39096379
 42
0.15700155
  0
VERTEX
  8
0
 10
-93.28213403
 20
100.63967445
  0
VERTEX
  8
0
 10
55.22477859
 20
100.63967445
 42
-0.99999204
  0
VERTEX
  8
0
 10
55.22458761
 20
76.63967445
  0
VERTEX
  8
0
 10
-93.28241246
 20
76.63967445
 42
0.15699710
  0
VERTEX
  8
0
 10
-95.61599665
 20
75.88842572
 42
-0.37557388
  0
VERTEX
  8
0
 10
-116.19189149
 20
77.86240128
 42
0.20544228
  0
VERTEX
  8
0
 10
-122.52399097
 20
80.60659067
  0
VERTEX
  8
0
 10
-131.52200717
 20
80.63987445
  0
SEQEND
  0
POLYLINE
  8
Default_Layer
 62
256
 66
   1
 39
0.000000
 70
    0
  0
VERTEX
  8
0
 10
-139.90101239
 20
145.98347445
  0
VERTEX
  8
0
 10
-139.93741239
 20
145.89387445
  0
SEQEND
  0
POLYLINE
  8
Default_Layer
 62
256
 66
   1
 39
0.000000
 70
    0
  0
VERTEX
  8
0
 10
-120.98241239
 20
132.29787445
  0
VERTEX
  8
0
 10
-120.93281239
 20
132.34107445
  0
SEQEND
  0
POLYLINE
  8
Default_Layer
 62
256
 66
   1
 39
0.000000
 70
    1
  0
VERTEX
  8
0
 10
-107.89361239
 20
106.07427445
  0
VERTEX
  8
0
 10
-71.81045563
 20
106.07427445
 42
0.98537274
  0
VERTEX
  8
0
 10
-71.57477467
 20
122.06800905
  0
VERTEX
  8
0
 10
-72.27738196
 20
122.10810744
  0
VERTEX
  8
0
 10
-72.95842017
 20
122.18624176
  0
VERTEX
  8
0
 10
-73.61742657
 20
122.30219310
  0
VERTEX
  8
0
 10
-74.25358428
 20
122.45551821
  0
VERTEX
  8
0
 10
-74.86594121
 20
122.64565988
  0
VERTEX
  8
0
 10
-75.45336143
 20
122.87182850
  0
VERTEX
  8
0
 10
-76.01466161
 20
123.13311562
  0
VERTEX
  8
0
 10
-76.54865552
 20
123.42836911
  0
VERTEX
  8
0
 10
-77.05420155
 20
123.75631190
  0
VERTEX
  8
0
 10
-77.53033440
 20
124.11541205
  0
VERTEX
  8
0
 10
-77.97621848
 20
124.50400813
  0
VERTEX
  8
0
 10
-78.39135536
 20
124.92017668
  0
VERTEX
  8
0
 10
-78.77545371
 20
125.36186185
  0
VERTEX
  8
0
 10
-79.12872585
 20
125.82673701
  0
VERTEX
  8
0
 10
-79.45168555
 20
126.31233586
  0
VERTEX
  8
0
 10
-79.74556112
 20
126.81590103
  0
VERTEX
  8
0
 10
-80.01199583
 20
127.33452317
  0
VERTEX
  8
0
 10
-80.25353764
 20
127.86498785
  0
VERTEX
  8
0
 10
-80.47320922
 20
128.40393188
  0
VERTEX
  8
0
 10
-80.67498690
 20
128.94771384
  0
VERTEX
  8
0
 10
-81.04336789
 20
130.03447341
  0
VERTEX
  8
0
 10
-81.40340009
 20
131.09344525
  0
VERTEX
  8
0
 10
-81.59548499
 20
131.60252821
  0
VERTEX
  8
0
 10
-81.80421349
 20
132.09303098
  0
VERTEX
  8
0
 10
-82.03592319
 20
132.56145226
  0
VERTEX
  8
0
 10
-82.29670563
 20
133.00466842
  0
VERTEX
  8
0
 10
-82.59246846
 20
133.41976180
  0
VERTEX
  8
0
 10
-82.92856343
 20
133.80433289
  0
VERTEX
  8
0
 10
-83.30994535
 20
134.15632120
  0
VERTEX
  8
0
 10
-83.74047072
 20
134.47457611
  0
VERTEX
  8
0
 10
-84.22328849
 20
134.75852538
  0
VERTEX
  8
0
 10
-84.75998098
 20
135.00880844
  0
VERTEX
  8
0
 10
-85.35133336
 20
135.22662619
  0
VERTEX
  8
0
 10
-85.99667403
 20
135.41402199
  0
VERTEX
  8
0
 10
-86.69465737
 20
135.57333205
  0
VERTEX
  8
0
 10
-87.44276370
 20
135.70722318
  0
VERTEX
  8
0
 10
-88.23799785
 20
135.81840058
  0
VERTEX
  8
0
 10
-89.07670181
 20
135.90939404
  0
VERTEX
  8
0
 10
-89.95503421
 20
135.98251008
  0
VERTEX
  8
0
 10
-90.86895524
 20
136.03948729
  0
VERTEX
  8
0
 10
-91.81436210
 20
136.08177575
  0
VERTEX
  8
0
 10
-92.78697067
 20
136.11038903
  0
VERTEX
  8
0
 10
-94.79597950
 20
136.12979387
  0
VERTEX
  8
0
 10
-96.85877143
 20
136.10228051
  0
VERTEX
  8
0
 10
-98.93692844
 20
136.02968173
  0
VERTEX
  8
0
 10
-100.99280759
 20
135.91042085
  0
VERTEX
  8
0
 10
-102.00087956
 20
135.83234143
  0
VERTEX
  8
0
 10
-102.98991496
 20
135.74112004
  0
VERTEX
  8
0
 10
-103.95572332
 20
135.63606266
  0
VERTEX
  8
0
 10
-104.89440761
 20
135.51637770
  0
VERTEX
  8
0
 10
-105.80224361
 20
135.38123080
  0
VERTEX
  8
0
 10
-106.67590258
 20
135.22971875
  0
VERTEX
  8
0
 10
-107.51227754
 20
135.06091390
  0
VERTEX
  8
0
 10
-108.30875078
 20
134.87386433
  0
VERTEX
  8
0
 10
-109.06297231
 20
134.66761814
  0
VERTEX
  8
0
 10
-109.77317245
 20
134.44124562
  0
VERTEX
  8
0
 10
-110.43789361
 20
134.19383847
  0
VERTEX
  8
0
 10
-111.05634503
 20
133.92454977
  0
VERTEX
  8
0
 10
-111.62809366
 20
133.63257291
  0
VERTEX
  8
0
 10
-112.15342360
 20
133.31719768
  0
VERTEX
  8
0
 10
-112.63296086
 20
132.97776860
  0
VERTEX
  8
0
 10
-113.06793493
 20
132.61374935
  0
VERTEX
  8
0
 10
-113.45983969
 20
132.22466817
  0
VERTEX
  8
0
 10
-113.81062520
 20
131.81019300
  0
VERTEX
  8
0
 10
-114.12243401
 20
131.37006703
  0
VERTEX
  8
0
 10
-114.39772459
 20
130.90419548
  0
VERTEX
  8
0
 10
-114.63907855
 20
130.41257034
  0
VERTEX
  8
0
 10
-114.84925608
 20
129.89536751
  0
VERTEX
  8
0
 10
-115.03107347
 20
129.35285974
  0
VERTEX
  8
0
 10
-115.18739475
 20
128.78552195
  0
VERTEX
  8
0
 10
-115.32107587
 20
128.19393435
  0
VERTEX
  8
0
 10
-115.43488620
 20
127.57889919
  0
VERTEX
  8
0
 10
-115.53151418
 20
126.94133674
  0
VERTEX
  8
0
 10
-115.61340460
 20
126.28242030
  0
VERTEX
  8
0
 10
-115.74170977
 20
124.90603922
  0
VERTEX
  8
0
 10
-115.83404873
 20
123.46299180
  0
VERTEX
  8
0
 10
-115.89959417
 20
121.96959178
  0
VERTEX
  8
0
 10
-115.94138993
 20
120.44522995
  0
VERTEX
  8
0
 10
-115.95914753
 20
118.91075866
  0
VERTEX
  8
0
 10
-115.94772919
 20
117.38848522
  0
VERTEX
  8
0
 10
-115.90006270
 20
115.90085085
  0
VERTEX
  8
0
 10
-115.80648572
 20
114.46986511
  0
VERTEX
  8
0
 10
-115.73911612
 20
113.78216707
  0
VERTEX
  8
0
 10
-115.65613918
 20
113.11623959
  0
VERTEX
  8
0
 10
-115.55612619
 20
112.47436462
  0
VERTEX
  8
0
 10
-115.43767312
 20
111.85858138
  0
VERTEX
  8
0
 10
-115.29940431
 20
111.27079098
  0
VERTEX
  8
0
 10
-115.14003333
 20
110.71258467
  0
VERTEX
  8
0
 10
-114.95833478
 20
110.18538182
  0
VERTEX
  8
0
 10
-114.75323866
 20
109.69022410
  0
VERTEX
  8
0
 10
-114.52377059
 20
109.22794522
  0
VERTEX
  8
0
 10
-114.26916236
 20
108.79895837
  0
VERTEX
  8
0
 10
-113.98874842
 20
108.40347668
  0
VERTEX
  8
0
 10
-113.68204684
 20
108.04136732
  0
VERTEX
  8
0
 10
-113.34865788
 20
107.71234942
  0
VERTEX
  8
0
 10
-112.98832737
 20
107.41589547
  0
VERTEX
  8
0
 10
-112.60086466
 20
107.15137924
  0
VERTEX
  8
0
 10
-112.18618793
 20
106.91802562
  0
VERTEX
  8
0
 10
-111.74426065
 20
106.71500945
  0
VERTEX
  8
0
 10
-111.27511860
 20
106.54145415
  0
VERTEX
  8
0
 10
-110.77882455
 20
106.39648188
  0
VERTEX
  8
0
 10
-110.25547703
 20
106.27926099
  0
VERTEX
  8
0
 10
-109.70518322
 20
106.18900736
  0
VERTEX
  8
0
 10
-109.12804946
 20
106.12508077
  0
VERTEX
  8
0
 10
-108.52417260
 20
106.08693730
  0
VERTEX
  8
0
 10
-107.89361239
 20
106.07427445
  0
SEQEND
  0
POLYLINE
  8
Default_Layer
 62
256
 66
   1
 39
0.000000
 70
    0
  0
VERTEX
  8
0
 10
-99.00996234
 20
171.09106920
  0
VERTEX
  8
0
 10
-40.54368410
 20
170.14985707
 42
-0.12285972
  0
VERTEX
  8
0
 10
-34.68783831
 20
168.58836867
 42
0.25406248
  0
VERTEX
  8
0
 10
-23.23260458
 20
168.50258664
 42
-0.12147576
  0
VERTEX
  8
0
 10
-16.86711141
 20
170.11672470
  0
VERTEX
  8
0
 10
131.17140631
 20
171.09005643
 42
0.99348076
  0
VERTEX
  8
0
 10
131.17140125
 20
187.08960232
  0
VERTEX
  8
0
 10
-16.73751579
 20
188.06210538
 42
-0.12021926
  0
VERTEX
  8
0
 10
-23.28511804
 20
189.70517388
 42
0.25756104
  0
VERTEX
  8
0
 10
-34.87683309
 20
189.48479929
 42
-0.12745345
  0
VERTEX
  8
0
 10
-40.11587420
 20
188.03691896
  0
VERTEX
  8
0
 10
-99.00997796
 20
187.08901805
 42
0.98951422
  0
VERTEX
  8
0
 10
-98.92151474
 20
171.08965646
  0
SEQEND
  0
POLYLINE
  8
Default_Layer
 62
256
 66
   1
 39
0.000000
 70
    0
  0
VERTEX
  8
0
 10
-47.82741239
 20
148.00027445
  0
VERTEX
  8
0
 10
-47.57821239
 20
147.87527445
  0
SEQEND
  0
POLYLINE
  8
Default_Layer
 62
256
 66
   1
 39
0.000000
 70
    1
  0
VERTEX
  8
0
 10
80.40098761
 20
78.23647445
  0
VERTEX
  8
0
 10
80.40098761
 20
84.64807445
  0
VERTEX
  8
0
 10
76.40578761
 20
84.64807445
 42
-0.37901683
  0
VERTEX
  8
0
 10
74.20378761
 20
86.59727445
  0
VERTEX
  8
0
 10
74.20818761
 20
89.79067445
 42
-0.99771628
  0
VERTEX
  8
0
 10
74.20098761
 20
97.29887445
  0
VERTEX
  8
0
 10
74.20818761
 20
95.08027445
  0
VERTEX
  8
0
 10
80.40098761
 20
95.05827445
  0
VERTEX
  8
0
 10
80.40098761
 20
97.31067445
  0
VERTEX
  8
0
 10
131.00098761
 20
97.31067445
  0
VERTEX
  8
0
 10
131.00098761
 20
95.05827445
  0
VERTEX
  8
0
 10
137.19378761
 20
95.08027445
  0
VERTEX
  8
0
 10
137.20098761
 20
97.29887445
 42
-0.99771628
  0
VERTEX
  8
0
 10
137.19378761
 20
89.79067445
  0
VERTEX
  8
0
 10
137.19818761
 20
86.59727445
 42
-0.37901683
  0
VERTEX
  8
0
 10
134.99618761
 20
84.64807445
  0
VERTEX
  8
0
 10
131.00098761
 20
84.64807445
  0
VERTEX
  8
0
 10
131.00098761
 20
78.23647445
  0
VERTEX
  8
0
 10
80.40098761
 20
78.23647445
  0
SEQEND
  0
POLYLINE
  8
Default_Layer
 62
256
 66
   1
 39
0.000000
 70
    1
  0
VERTEX
  8
0
 10
-54.32079809
 20
107.03568700
 42
-0.62860182
  0
VERTEX
  8
0
 10
-54.80829970
 20
108.37352169
  0
VERTEX
  8
0
 10
-33.28409970
 20
130.44132169
 42
-0.19595949
  0
VERTEX
  8
0
 10
-29.06641229
 20
132.27873811
  0
VERTEX
  8
0
 10
5.61986018
 20
133.18514007
  0
VERTEX
  8
0
 10
5.42735482
 20
133.26165286
  0
VERTEX
  8
0
 10
5.23691039
 20
133.35562527
  0
VERTEX
  8
0
 10
5.04855819
 20
133.46732237
  0
VERTEX
  8
0
 10
4.86235536
 20
133.59722846
  0
VERTEX
  8
0
 10
4.67836887
 20
133.74591070
  0
VERTEX
  8
0
 10
4.49667630
 20
133.91402637
  0
VERTEX
  8
0
 10
4.31735637
 20
134.10224237
  0
VERTEX
  8
0
 10
4.14047617
 20
134.31112705
  0
VERTEX
  8
0
 10
3.79419667
 20
134.79227250
  0
VERTEX
  8
0
 10
3.45777158
 20
135.35690168
  0
VERTEX
  8
0
 10
3.13060486
 20
135.99996522
  0
VERTEX
  8
0
 10
2.81189563
 20
136.71467821
  0
VERTEX
  8
0
 10
2.50091089
 20
137.49483083
  0
VERTEX
  8
0
 10
2.19715569
 20
138.33623011
  0
VERTEX
  8
0
 10
3.56300315
 20
139.88762239
  0
VERTEX
  8
0
 10
5.07125957
 20
141.30095881
  0
VERTEX
  8
0
 10
5.93634761
 20
141.10336103
  0
VERTEX
  8
0
 10
6.71413387
 20
140.87165559
  0
VERTEX
  8
0
 10
7.06984896
 20
140.74296783
  0
VERTEX
  8
0
 10
7.40324518
 20
140.60580752
  0
VERTEX
  8
0
 10
7.71424095
 20
140.46032421
  0
VERTEX
  8
0
 10
8.00293624
 20
140.30684195
  0
VERTEX
  8
0
 10
8.26955664
 20
140.14579461
  0
VERTEX
  8
0
 10
8.51466064
 20
139.97788677
  0
VERTEX
  8
0
 10
8.73901741
 20
139.80398607
  0
VERTEX
  8
0
 10
8.94390994
 20
139.62534204
  0
VERTEX
  8
0
 10
9.30227189
 20
139.26013703
  0
VERTEX
  8
0
 10
9.60815046
 20
138.89802807
  0
VERTEX
  8
0
 10
9.88425201
 20
138.55766236
  0
VERTEX
  8
0
 10
10.15412503
 20
138.25791757
  0
VERTEX
  8
0
 10
10.29350029
 20
138.12859066
  0
VERTEX
  8
0
 10
10.43875871
 20
138.01517089
  0
VERTEX
  8
0
 10
10.59166735
 20
137.91893795
  0
VERTEX
  8
0
 10
10.75340590
 20
137.84066228
  0
VERTEX
  8
0
 10
10.92489360
 20
137.78089503
  0
VERTEX
  8
0
 10
11.10664676
 20
137.73986525
  0
VERTEX
  8
0
 10
11.29902630
 20
137.71768666
  0
VERTEX
  8
0
 10
11.50215773
 20
137.71431563
  0
VERTEX
  8
0
 10
11.71564397
 20
137.72958547
  0
VERTEX
  8
0
 10
11.93723126
 20
137.76299081
 42
-0.04803244
  0
VERTEX
  8
0
 10
14.52866691
 20
138.88460536
  0
VERTEX
  8
0
 10
14.70804135
 20
139.02502337
  0
VERTEX
  8
0
 10
14.86638854
 20
139.17035741
  0
VERTEX
  8
0
 10
15.00363120
 20
139.32064908
  0
VERTEX
  8
0
 10
15.11974243
 20
139.47599075
  0
VERTEX
  8
0
 10
15.21477605
 20
139.63650381
  0
VERTEX
  8
0
 10
15.28906201
 20
139.80237337
  0
VERTEX
  8
0
 10
15.34312101
 20
139.97381880
  0
VERTEX
  8
0
 10
15.37798514
 20
140.15113241
  0
VERTEX
  8
0
 10
15.39502516
 20
140.33464609
  0
VERTEX
  8
0
 10
15.39638659
 20
140.52477091
  0
VERTEX
  8
0
 10
15.36292930
 20
140.92670428
  0
VERTEX
  8
0
 10
15.30396748
 20
141.36100921
  0
VERTEX
  8
0
 10
15.24944198
 20
141.83191487
  0
VERTEX
  8
0
 10
15.22855175
 20
142.34319497
  0
VERTEX
  8
0
 10
15.23859780
 20
142.61486322
  0
VERTEX
  8
0
 10
15.26543672
 20
142.89746855
  0
VERTEX
  8
0
 10
15.31086239
 20
143.19109009
  0
VERTEX
  8
0
 10
15.37603717
 20
143.49569404
  0
VERTEX
  8
0
 10
15.46185970
 20
143.81120477
  0
VERTEX
  8
0
 10
15.56880246
 20
144.13748950
  0
VERTEX
  8
0
 10
15.69717140
 20
144.47439906
  0
VERTEX
  8
0
 10
15.84702041
 20
144.82177155
  0
VERTEX
  8
0
 10
16.21093286
 20
145.54729472
  0
VERTEX
  8
0
 10
16.65957483
 20
146.31308210
  0
VERTEX
  8
0
 10
18.72237483
 20
146.44428210
  0
VERTEX
  8
0
 10
20.78825294
 20
146.37716353
  0
VERTEX
  8
0
 10
21.26023984
 20
145.62573118
  0
VERTEX
  8
0
 10
21.64637728
 20
144.91191275
  0
VERTEX
  8
0
 10
21.80690985
 20
144.56938821
  0
VERTEX
  8
0
 10
21.94566959
 20
144.23665450
  0
VERTEX
  8
0
 10
22.06270458
 20
143.91387504
  0
VERTEX
  8
0
 10
22.15831462
 20
143.60120830
  0
VERTEX
  8
0
 10
22.23296605
 20
143.29880154
  0
VERTEX
  8
0
 10
22.28755198
 20
143.00675807
  0
VERTEX
  8
0
 10
22.32322980
 20
142.72514751
  0
VERTEX
  8
0
 10
22.34179030
 20
142.45394620
  0
VERTEX
  8
0
 10
22.33695153
 20
141.94230710
  0
VERTEX
  8
0
 10
22.29719064
 20
141.46996859
  0
VERTEX
  8
0
 10
22.25174901
 20
141.03406041
  0
VERTEX
  8
0
 10
22.23062648
 20
140.63127980
  0
VERTEX
  8
0
 10
22.23773174
 20
140.44127867
  0
VERTEX
  8
0
 10
22.26024506
 20
140.25836557
  0
VERTEX
  8
0
 10
22.30032084
 20
140.08219587
  0
VERTEX
  8
0
 10
22.35933800
 20
139.91248018
  0
VERTEX
  8
0
 10
22.43833629
 20
139.74895824
  0
VERTEX
  8
0
 10
22.53784275
 20
139.59142692
  0
VERTEX
  8
0
 10
22.65819299
 20
139.43971141
  0
VERTEX
  8
0
 10
22.79944493
 20
139.29369211
  0
VERTEX
  8
0
 10
22.96120124
 20
139.15353156
  0
VERTEX
  8
0
 10
23.14151765
 20
139.02046413
 42
-0.04803225
  0
VERTEX
  8
0
 10
25.76702989
 20
137.98114675
  0
VERTEX
  8
0
 10
25.99315730
 20
137.95360040
  0
VERTEX
  8
0
 10
26.20789236
 20
137.94439871
  0
VERTEX
  8
0
 10
26.41120983
 20
137.95362575
  0
VERTEX
  8
0
 10
26.60315603
 20
137.98136586
  0
VERTEX
  8
0
 10
26.78385482
 20
138.02766682
  0
VERTEX
  8
0
 10
26.95367041
 20
138.09242621
  0
VERTEX
  8
0
 10
27.11312612
 20
138.17543095
  0
VERTEX
  8
0
 10
27.26315844
 20
138.27615794
  0
VERTEX
  8
0
 10
27.40497132
 20
138.39387259
  0
VERTEX
  8
0
 10
27.54037255
 20
138.52734847
  0
VERTEX
  8
0
 10
27.80092448
 20
138.83521616
  0
VERTEX
  8
0
 10
28.06633214
 20
139.18400842
  0
VERTEX
  8
0
 10
28.36075738
 20
139.55554436
  0
VERTEX
  8
0
 10
28.70751538
 20
139.93184560
  0
VERTEX
  8
0
 10
28.90671747
 20
140.11684043
  0
VERTEX
  8
0
 10
29.12552760
 20
140.29769460
  0
VERTEX
  8
0
 10
29.36527018
 20
140.47319558
  0
VERTEX
  8
0
 10
29.62674323
 20
140.64249757
  0
VERTEX
  8
0
 10
29.91052870
 20
140.80491166
  0
VERTEX
  8
0
 10
30.21686679
 20
140.96000985
  0
VERTEX
  8
0
 10
30.54586837
 20
141.10747033
  0
VERTEX
  8
0
 10
30.89745707
 20
141.24714053
  0
VERTEX
  8
0
 10
31.66780438
 20
141.50283791
  0
VERTEX
  8
0
 10
32.52653561
 20
141.72709359
  0
VERTEX
  8
0
 10
34.07792789
 20
140.36124613
  0
VERTEX
  8
0
 10
35.49126432
 20
138.85298972
  0
VERTEX
  8
0
 10
35.29366654
 20
137.98790167
  0
VERTEX
  8
0
 10
35.06196109
 20
137.21011541
  0
VERTEX
  8
0
 10
34.93327334
 20
136.85440032
  0
VERTEX
  8
0
 10
34.79611302
 20
136.52100410
  0
VERTEX
  8
0
 10
34.65062971
 20
136.21000833
  0
VERTEX
  8
0
 10
34.49714746
 20
135.92131304
  0
VERTEX
  8
0
 10
34.33610011
 20
135.65469264
  0
VERTEX
  8
0
 10
34.16819227
 20
135.40958864
  0
VERTEX
  8
0
 10
33.99429157
 20
135.18523187
  0
VERTEX
  8
0
 10
33.81564754
 20
134.98033934
  0
VERTEX
  8
0
 10
33.45044254
 20
134.62197739
  0
VERTEX
  8
0
 10
33.08833358
 20
134.31609882
  0
VERTEX
  8
0
 10
32.74796786
 20
134.03999727
  0
VERTEX
  8
0
 10
32.44822307
 20
133.77012426
  0
VERTEX
  8
0
 10
32.31889616
 20
133.63074899
  0
VERTEX
  8
0
 10
32.20547639
 20
133.48549058
  0
VERTEX
  8
0
 10
32.10924346
 20
133.33258193
  0
VERTEX
  8
0
 10
32.03096778
 20
133.17084338
  0
VERTEX
  8
0
 10
31.97120053
 20
132.99935569
  0
VERTEX
  8
0
 10
31.93017076
 20
132.81760252
  0
VERTEX
  8
0
 10
31.90799216
 20
132.62522299
  0
VERTEX
  8
0
 10
31.90462113
 20
132.42209155
  0
VERTEX
  8
0
 10
31.91997513
 20
132.20815904
  0
VERTEX
  8
0
 10
31.95396960
 20
131.98344787
 42
-0.04803281
  0
VERTEX
  8
0
 10
33.07491086
 20
129.39558237
  0
VERTEX
  8
0
 10
33.21532887
 20
129.21620793
  0
VERTEX
  8
0
 10
33.36066291
 20
129.05786074
  0
VERTEX
  8
0
 10
33.51095458
 20
128.92061808
  0
VERTEX
  8
0
 10
33.66629626
 20
128.80450685
  0
VERTEX
  8
0
 10
33.82680932
 20
128.70947323
  0
VERTEX
  8
0
 10
33.99267888
 20
128.63518727
  0
VERTEX
  8
0
 10
34.16412431
 20
128.58112827
  0
VERTEX
  8
0
 10
34.34143791
 20
128.54626414
  0
VERTEX
  8
0
 10
34.52495160
 20
128.52922412
  0
VERTEX
  8
0
 10
34.71507642
 20
128.52786269
  0
VERTEX
  8
0
 10
35.11700978
 20
128.56131998
  0
VERTEX
  8
0
 10
35.55131471
 20
128.62028180
  0
VERTEX
  8
0
 10
36.02222038
 20
128.67480730
  0
VERTEX
  8
0
 10
36.53350048
 20
128.69569753
  0
VERTEX
  8
0
 10
36.80516872
 20
128.68565148
  0
VERTEX
  8
0
 10
37.08777406
 20
128.65881256
  0
VERTEX
  8
0
 10
37.38139559
 20
128.61338689
  0
VERTEX
  8
0
 10
37.68599955
 20
128.54821211
  0
VERTEX
  8
0
 10
38.00151028
 20
128.46238958
  0
VERTEX
  8
0
 10
38.32779500
 20
128.35544682
  0
VERTEX
  8
0
 10
38.66470456
 20
128.22707788
  0
VERTEX
  8
0
 10
39.01207706
 20
128.07722887
  0
VERTEX
  8
0
 10
39.73760022
 20
127.71331642
  0
VERTEX
  8
0
 10
40.50338761
 20
127.26467445
  0
VERTEX
  8
0
 10
40.63458761
 20
125.20187445
  0
VERTEX
  8
0
 10
40.56746904
 20
123.13599634
  0
VERTEX
  8
0
 10
39.81603668
 20
122.66400944
  0
VERTEX
  8
0
 10
39.10221826
 20
122.27787200
  0
VERTEX
  8
0
 10
38.75969371
 20
122.11733943
  0
VERTEX
  8
0
 10
38.42696000
 20
121.97857969
  0
VERTEX
  8
0
 10
38.10418054
 20
121.86154471
  0
VERTEX
  8
0
 10
37.79151381
 20
121.76593466
  0
VERTEX
  8
0
 10
37.48910704
 20
121.69128323
  0
VERTEX
  8
0
 10
37.19706357
 20
121.63669730
  0
VERTEX
  8
0
 10
36.91545301
 20
121.60101948
  0
VERTEX
  8
0
 10
36.64425171
 20
121.58245898
  0
VERTEX
  8
0
 10
36.13261261
 20
121.58729775
  0
VERTEX
  8
0
 10
35.66027410
 20
121.62705865
  0
VERTEX
  8
0
 10
35.22436592
 20
121.67250027
  0
VERTEX
  8
0
 10
34.82158530
 20
121.69362280
  0
VERTEX
  8
0
 10
34.63158417
 20
121.68651754
  0
VERTEX
  8
0
 10
34.44867107
 20
121.66400422
  0
VERTEX
  8
0
 10
34.27250137
 20
121.62392844
  0
VERTEX
  8
0
 10
34.10278568
 20
121.56491128
  0
VERTEX
  8
0
 10
33.93926375
 20
121.48591300
  0
VERTEX
  8
0
 10
33.78173242
 20
121.38640653
  0
VERTEX
  8
0
 10
33.63001691
 20
121.26605629
  0
VERTEX
  8
0
 10
33.48399762
 20
121.12480435
  0
VERTEX
  8
0
 10
33.34358140
 20
120.96267431
  0
VERTEX
  8
0
 10
33.20872434
 20
120.77974180
 42
-0.04803227
  0
VERTEX
  8
0
 10
32.17145226
 20
118.15721939
  0
VERTEX
  8
0
 10
32.14390590
 20
117.93109198
  0
VERTEX
  8
0
 10
32.13470422
 20
117.71635692
  0
VERTEX
  8
0
 10
32.14393126
 20
117.51303945
  0
VERTEX
  8
0
 10
32.17167137
 20
117.32109325
  0
VERTEX
  8
0
 10
32.21797232
 20
117.14039446
  0
VERTEX
  8
0
 10
32.28273171
 20
116.97057887
  0
VERTEX
  8
0
 10
32.36573645
 20
116.81112316
  0
VERTEX
  8
0
 10
32.46646344
 20
116.66109084
  0
VERTEX
  8
0
 10
32.58417810
 20
116.51927796
  0
VERTEX
  8
0
 10
32.71765397
 20
116.38387673
  0
VERTEX
  8
0
 10
33.02552166
 20
116.12332480
  0
VERTEX
  8
0
 10
33.37431392
 20
115.85791714
  0
VERTEX
  8
0
 10
33.74584986
 20
115.56349190
  0
VERTEX
  8
0
 10
34.12215111
 20
115.21673390
  0
VERTEX
  8
0
 10
34.30714594
 20
115.01753181
  0
VERTEX
  8
0
 10
34.48800011
 20
114.79872168
  0
VERTEX
  8
0
 10
34.66350108
 20
114.55897910
  0
VERTEX
  8
0
 10
34.83280308
 20
114.29750605
  0
VERTEX
  8
0
 10
34.99521716
 20
114.01372058
  0
VERTEX
  8
0
 10
35.15031535
 20
113.70738249
  0
VERTEX
  8
0
 10
35.29777583
 20
113.37838091
  0
VERTEX
  8
0
 10
35.43744603
 20
113.02679221
  0
VERTEX
  8
0
 10
35.69314342
 20
112.25644490
  0
VERTEX
  8
0
 10
35.91739910
 20
111.39771367
  0
VERTEX
  8
0
 10
34.55155164
 20
109.84632139
  0
VERTEX
  8
0
 10
33.04329522
 20
108.43298496
  0
VERTEX
  8
0
 10
32.17820717
 20
108.63058274
  0
VERTEX
  8
0
 10
31.40042092
 20
108.86228819
  0
VERTEX
  8
0
 10
31.04470582
 20
108.99097595
  0
VERTEX
  8
0
 10
30.71130961
 20
109.12813626
  0
VERTEX
  8
0
 10
30.40031383
 20
109.27361957
  0
VERTEX
  8
0
 10
30.11161854
 20
109.42710182
  0
VERTEX
  8
0
 10
29.84499814
 20
109.58814917
  0
VERTEX
  8
0
 10
29.59989414
 20
109.75605701
  0
VERTEX
  8
0
 10
29.37553738
 20
109.92995771
  0
VERTEX
  8
0
 10
29.17064484
 20
110.10860174
  0
VERTEX
  8
0
 10
28.81228289
 20
110.47380674
  0
VERTEX
  8
0
 10
28.50640433
 20
110.83591571
  0
VERTEX
  8
0
 10
28.23030278
 20
111.17628142
  0
VERTEX
  8
0
 10
27.96042976
 20
111.47602621
  0
VERTEX
  8
0
 10
27.82105450
 20
111.60535312
  0
VERTEX
  8
0
 10
27.67579608
 20
111.71877289
  0
VERTEX
  8
0
 10
27.52288743
 20
111.81500582
  0
VERTEX
  8
0
 10
27.36114888
 20
111.89328150
  0
VERTEX
  8
0
 10
27.18966119
 20
111.95304875
  0
VERTEX
  8
0
 10
27.00790803
 20
111.99407853
  0
VERTEX
  8
0
 10
26.81552849
 20
112.01625712
  0
VERTEX
  8
0
 10
26.61239705
 20
112.01962815
  0
VERTEX
  8
0
 10
26.39846454
 20
112.00427415
  0
VERTEX
  8
0
 10
26.17375338
 20
111.97027968
 42
-0.04803226
  0
VERTEX
  8
0
 10
23.58588787
 20
110.84933842
  0
VERTEX
  8
0
 10
23.40651344
 20
110.70892041
  0
VERTEX
  8
0
 10
23.24816625
 20
110.56358637
  0
VERTEX
  8
0
 10
23.11092359
 20
110.41329470
  0
VERTEX
  8
0
 10
22.99481235
 20
110.25795302
  0
VERTEX
  8
0
 10
22.89977873
 20
110.09743996
  0
VERTEX
  8
0
 10
22.82549277
 20
109.93157040
  0
VERTEX
  8
0
 10
22.77143378
 20
109.76012498
  0
VERTEX
  8
0
 10
22.73656964
 20
109.58281137
  0
VERTEX
  8
0
 10
22.71952962
 20
109.39929769
  0
VERTEX
  8
0
 10
22.71816820
 20
109.20917286
  0
VERTEX
  8
0
 10
22.75162549
 20
108.80723950
  0
VERTEX
  8
0
 10
22.81058730
 20
108.37293457
  0
VERTEX
  8
0
 10
22.86511280
 20
107.90202890
  0
VERTEX
  8
0
 10
22.88600303
 20
107.39074881
  0
VERTEX
  8
0
 10
22.87595698
 20
107.11908056
  0
VERTEX
  8
0
 10
22.84911806
 20
106.83647522
  0
VERTEX
  8
0
 10
22.80369239
 20
106.54285369
  0
VERTEX
  8
0
 10
22.73851762
 20
106.23824973
  0
VERTEX
  8
0
 10
22.65269508
 20
105.92273900
  0
VERTEX
  8
0
 10
22.54575233
 20
105.59645428
  0
VERTEX
  8
0
 10
22.41738338
 20
105.25954472
  0
VERTEX
  8
0
 10
22.26753437
 20
104.91217222
  0
VERTEX
  8
0
 10
21.90362192
 20
104.18664906
  0
VERTEX
  8
0
 10
21.45497995
 20
103.42086167
  0
VERTEX
  8
0
 10
19.39217995
 20
103.28966167
  0
VERTEX
  8
0
 10
17.32630184
 20
103.35678024
  0
VERTEX
  8
0
 10
16.85431495
 20
104.10821260
  0
VERTEX
  8
0
 10
16.46817750
 20
104.82203102
  0
VERTEX
  8
0
 10
16.30764493
 20
105.16455557
  0
VERTEX
  8
0
 10
16.16888520
 20
105.49728928
  0
VERTEX
  8
0
 10
16.05185021
 20
105.82006874
  0
VERTEX
  8
0
 10
15.95624016
 20
106.13273548
  0
VERTEX
  8
0
 10
15.88158874
 20
106.43514224
  0
VERTEX
  8
0
 10
15.82700281
 20
106.72718571
  0
VERTEX
  8
0
 10
15.79132498
 20
107.00879627
  0
VERTEX
  8
0
 10
15.77276448
 20
107.27999757
  0
VERTEX
  8
0
 10
15.77760325
 20
107.79163667
  0
VERTEX
  8
0
 10
15.81736415
 20
108.26397518
  0
VERTEX
  8
0
 10
15.86280577
 20
108.69988336
  0
VERTEX
  8
0
 10
15.88392831
 20
109.10266398
  0
VERTEX
  8
0
 10
15.87682305
 20
109.29266511
  0
VERTEX
  8
0
 10
15.85430973
 20
109.47557821
  0
VERTEX
  8
0
 10
15.81423394
 20
109.65174791
  0
VERTEX
  8
0
 10
15.75521678
 20
109.82146360
  0
VERTEX
  8
0
 10
15.67621850
 20
109.98498554
  0
VERTEX
  8
0
 10
15.57671204
 20
110.14251686
  0
VERTEX
  8
0
 10
15.45636180
 20
110.29423237
  0
VERTEX
  8
0
 10
15.31510985
 20
110.44025167
  0
VERTEX
  8
0
 10
15.15297981
 20
110.58066788
  0
VERTEX
  8
0
 10
14.97004730
 20
110.71552494
 42
-0.04803257
  0
VERTEX
  8
0
 10
12.34752489
 20
111.75279702
  0
VERTEX
  8
0
 10
12.12139748
 20
111.78034338
  0
VERTEX
  8
0
 10
11.90666242
 20
111.78954506
  0
VERTEX
  8
0
 10
11.70334495
 20
111.78031802
  0
VERTEX
  8
0
 10
11.51139875
 20
111.75257791
  0
VERTEX
  8
0
 10
11.33069997
 20
111.70627696
  0
VERTEX
  8
0
 10
11.16088437
 20
111.64151757
  0
VERTEX
  8
0
 10
11.00142866
 20
111.55851283
  0
VERTEX
  8
0
 10
10.85139634
 20
111.45778584
  0
VERTEX
  8
0
 10
10.70958346
 20
111.34007118
  0
VERTEX
  8
0
 10
10.57418224
 20
111.20659531
  0
VERTEX
  8
0
 10
10.31363031
 20
110.89872762
  0
VERTEX
  8
0
 10
10.04822264
 20
110.54993536
  0
VERTEX
  8
0
 10
9.75379741
 20
110.17839942
  0
VERTEX
  8
0
 10
9.40703941
 20
109.80209817
  0
VERTEX
  8
0
 10
9.20783732
 20
109.61710334
  0
VERTEX
  8
0
 10
8.98902718
 20
109.43624917
  0
VERTEX
  8
0
 10
8.74928460
 20
109.26074820
  0
VERTEX
  8
0
 10
8.48781156
 20
109.09144620
  0
VERTEX
  8
0
 10
8.20402608
 20
108.92903212
  0
VERTEX
  8
0
 10
7.89768800
 20
108.77393393
  0
VERTEX
  8
0
 10
7.56868641
 20
108.62647345
  0
VERTEX
  8
0
 10
7.21709771
 20
108.48680325
  0
VERTEX
  8
0
 10
6.44675040
 20
108.23110586
  0
VERTEX
  8
0
 10
5.58801917
 20
108.00685018
  0
VERTEX
  8
0
 10
4.03662689
 20
109.37269764
  0
VERTEX
  8
0
 10
2.62329047
 20
110.88095406
  0
VERTEX
  8
0
 10
2.90074490
 20
111.73147479
  0
VERTEX
  8
0
 10
3.18733429
 20
112.52094939
  0
VERTEX
  8
0
 10
3.48368405
 20
113.24519838
  0
VERTEX
  8
0
 10
3.79072046
 20
113.89803168
  0
VERTEX
  8
0
 10
4.10945568
 20
114.47268536
  0
VERTEX
  8
0
 10
4.44064312
 20
114.96412458
  0
VERTEX
  8
0
 10
4.61096347
 20
115.17825757
  0
VERTEX
  8
0
 10
4.78436683
 20
115.37178771
  0
VERTEX
  8
0
 10
4.96076845
 20
115.54528134
  0
VERTEX
  8
0
 10
5.14006888
 20
115.69940316
  0
VERTEX
  8
0
 10
5.32217008
 20
115.83480825
  0
VERTEX
  8
0
 10
5.50698745
 20
115.95206194
  0
VERTEX
  8
0
 10
5.69444877
 20
116.05164696
  0
VERTEX
  8
0
 10
5.88451449
 20
116.13382755
  0
VERTEX
  8
0
 10
-24.86212356
 20
116.30246110
 42
0.34874615
  0
VERTEX
  8
0
 10
-33.92049970
 20
109.53472169
  0
VERTEX
  8
0
 10
-54.32079809
 20
107.03568700
  0
SEQEND
  0
POLYLINE
  8
Default_Layer
 62
256
 66
   1
 39
0.000000
 70
    1
  0
VERTEX
  8
0
 10
50.56257100
 20
105.55842260
  0
VERTEX
  8
0
 10
50.44157455
 20
106.43680235
  0
VERTEX
  8
0
 10
50.38333598
 20
107.24579248
  0
VERTEX
  8
0
 10
50.37794781
 20
107.62387095
  0
VERTEX
  8
0
 10
50.38837203
 20
107.98412069
  0
VERTEX
  8
0
 10
50.41449712
 20
108.32641143
  0
VERTEX
  8
0
 10
50.45598395
 20
108.65071983
  0
VERTEX
  8
0
 10
50.51234608
 20
108.95710049
  0
VERTEX
  8
0
 10
50.58272583
 20
109.24582191
  0
VERTEX
  8
0
 10
50.66603840
 20
109.51729088
  0
VERTEX
  8
0
 10
50.76065972
 20
109.77225725
  0
VERTEX
  8
0
 10
50.97545060
 20
110.23692742
  0
VERTEX
  8
0
 10
51.20582830
 20
110.65137506
  0
VERTEX
  8
0
 10
51.42628617
 20
111.03013180
  0
VERTEX
  8
0
 10
51.61079699
 20
111.38843851
  0
VERTEX
  8
0
 10
51.68219319
 20
111.56435140
  0
VERTEX
  8
0
 10
51.73657449
 20
111.74004597
  0
VERTEX
  8
0
 10
51.77211402
 20
111.91671634
  0
VERTEX
  8
0
 10
51.78767069
 20
112.09518998
  0
VERTEX
  8
0
 10
51.78240148
 20
112.27612943
  0
VERTEX
  8
0
 10
51.75590848
 20
112.45993579
  0
VERTEX
  8
0
 10
51.70795711
 20
112.64690617
  0
VERTEX
  8
0
 10
51.63854383
 20
112.83717385
  0
VERTEX
  8
0
 10
51.54772870
 20
113.03081459
  0
VERTEX
  8
0
 10
51.43559900
 20
113.22783787
 42
-0.04796192
  0
VERTEX
  8
0
 10
49.47331777
 20
115.25270878
  0
VERTEX
  8
0
 10
49.27991109
 20
115.37096738
  0
VERTEX
  8
0
 10
49.08921626
 20
115.46781576
  0
VERTEX
  8
0
 10
48.90122108
 20
115.54316695
  0
VERTEX
  8
0
 10
48.71584792
 20
115.59696331
  0
VERTEX
  8
0
 10
48.53296368
 20
115.62921256
  0
VERTEX
  8
0
 10
48.35227878
 20
115.64015849
  0
VERTEX
  8
0
 10
48.17340477
 20
115.63021141
  0
VERTEX
  8
0
 10
47.99570595
 20
115.60023471
  0
VERTEX
  8
0
 10
47.81839103
 20
115.55139489
  0
VERTEX
  8
0
 10
47.64032383
 20
115.48555543
  0
VERTEX
  8
0
 10
47.27640225
 20
115.31238203
  0
VERTEX
  8
0
 10
46.89091242
 20
115.10392118
  0
VERTEX
  8
0
 10
46.46943790
 20
114.88666566
  0
VERTEX
  8
0
 10
45.99825484
 20
114.68656565
  0
VERTEX
  8
0
 10
45.74044413
 20
114.59999382
  0
VERTEX
  8
0
 10
45.46649391
 20
114.52524316
  0
VERTEX
  8
0
 10
45.17570567
 20
114.46396045
  0
VERTEX
  8
0
 10
44.86770687
 20
114.41724276
  0
VERTEX
  8
0
 10
44.54225609
 20
114.38595575
  0
VERTEX
  8
0
 10
44.19931398
 20
114.37058734
  0
VERTEX
  8
0
 10
43.83891456
 20
114.37147575
  0
VERTEX
  8
0
 10
43.46119150
 20
114.38872837
  0
VERTEX
  8
0
 10
42.65442796
 20
114.47233079
  0
VERTEX
  8
0
 10
41.78027884
 20
114.62083816
  0
VERTEX
  8
0
 10
40.92821517
 20
116.50386352
  0
VERTEX
  8
0
 10
40.26027865
 20
118.45979241
  0
VERTEX
  8
0
 10
40.79582953
 20
119.16645810
  0
VERTEX
  8
0
 10
41.32669104
 20
119.77968139
  0
VERTEX
  8
0
 10
41.59022288
 20
120.05083325
  0
VERTEX
  8
0
 10
41.85232895
 20
120.29819725
  0
VERTEX
  8
0
 10
42.11283829
 20
120.52176012
  0
VERTEX
  8
0
 10
42.37149457
 20
120.72174517
  0
VERTEX
  8
0
 10
42.62799246
 20
120.89853498
  0
VERTEX
  8
0
 10
42.88191534
 20
121.05292585
  0
VERTEX
  8
0
 10
43.13278377
 20
121.18597252
  0
VERTEX
  8
0
 10
43.37997959
 20
121.29935359
  0
VERTEX
  8
0
 10
43.86043111
 20
121.47604493
  0
VERTEX
  8
0
 10
44.31639148
 20
121.60620203
  0
VERTEX
  8
0
 10
44.74010020
 20
121.71813623
  0
VERTEX
  8
0
 10
45.12393015
 20
121.84102848
  0
VERTEX
  8
0
 10
45.29880408
 20
121.91493295
  0
VERTEX
  8
0
 10
45.46149229
 20
122.00071439
  0
VERTEX
  8
0
 10
45.61154735
 20
122.10050896
  0
VERTEX
  8
0
 10
45.74874750
 20
122.21570865
  0
VERTEX
  8
0
 10
45.87296511
 20
122.34737805
  0
VERTEX
  8
0
 10
45.98420247
 20
122.49608216
  0
VERTEX
  8
0
 10
46.08250375
 20
122.66219693
  0
VERTEX
  8
0
 10
46.16796071
 20
122.84581909
  0
VERTEX
  8
0
 10
46.24066940
 20
123.04695977
  0
VERTEX
  8
0
 10
46.30069822
 20
123.26556394
 42
-0.04796192
  0
VERTEX
  8
0
 10
46.34495581
 20
126.08490625
  0
VERTEX
  8
0
 10
46.29181810
 20
126.30528688
  0
VERTEX
  8
0
 10
46.22545863
 20
126.50861064
  0
VERTEX
  8
0
 10
46.14580730
 20
126.69482464
  0
VERTEX
  8
0
 10
46.05276846
 20
126.86394303
  0
VERTEX
  8
0
 10
45.94625343
 20
127.01606538
  0
VERTEX
  8
0
 10
45.82622985
 20
127.15156884
  0
VERTEX
  8
0
 10
45.69271318
 20
127.27101821
  0
VERTEX
  8
0
 10
45.54586441
 20
127.37547353
  0
VERTEX
  8
0
 10
45.38594886
 20
127.46631915
  0
VERTEX
  8
0
 10
45.21348081
 20
127.54567614
  0
VERTEX
  8
0
 10
44.83369731
 20
127.68055547
  0
VERTEX
  8
0
 10
44.41371076
 20
127.80573387
  0
VERTEX
  8
0
 10
43.96206041
 20
127.95013850
  0
VERTEX
  8
0
 10
43.48739160
 20
128.14182317
  0
VERTEX
  8
0
 10
43.24387637
 20
128.26290734
  0
VERTEX
  8
0
 10
42.99730761
 20
128.40376270
  0
VERTEX
  8
0
 10
42.74835586
 20
128.56604762
  0
VERTEX
  8
0
 10
42.49753342
 20
128.75080126
  0
VERTEX
  8
0
 10
42.24528171
 20
128.95880646
  0
VERTEX
  8
0
 10
41.99191791
 20
129.19043604
  0
VERTEX
  8
0
 10
41.73770524
 20
129.44590512
  0
VERTEX
  8
0
 10
41.48281414
 20
129.72519510
  0
VERTEX
  8
0
 10
40.97146202
 20
130.35477890
  0
VERTEX
  8
0
 10
40.45835581
 20
131.07790625
  0
VERTEX
  8
0
 10
41.18735581
 20
133.01190625
  0
VERTEX
  8
0
 10
42.09810396
 20
134.86725926
  0
VERTEX
  8
0
 10
42.97648371
 20
134.98825571
  0
VERTEX
  8
0
 10
43.78547384
 20
135.04649429
  0
VERTEX
  8
0
 10
44.16355231
 20
135.05188245
  0
VERTEX
  8
0
 10
44.52380205
 20
135.04145823
  0
VERTEX
  8
0
 10
44.86609279
 20
135.01533314
  0
VERTEX
  8
0
 10
45.19040119
 20
134.97384631
  0
VERTEX
  8
0
 10
45.49678185
 20
134.91748419
  0
VERTEX
  8
0
 10
45.78550328
 20
134.84710443
  0
VERTEX
  8
0
 10
46.05697224
 20
134.76379186
  0
VERTEX
  8
0
 10
46.31193861
 20
134.66917054
  0
VERTEX
  8
0
 10
46.77660878
 20
134.45437966
  0
VERTEX
  8
0
 10
47.19105643
 20
134.22400196
  0
VERTEX
  8
0
 10
47.56981316
 20
134.00354409
  0
VERTEX
  8
0
 10
47.92811987
 20
133.81903327
  0
VERTEX
  8
0
 10
48.10403276
 20
133.74763708
  0
VERTEX
  8
0
 10
48.27972733
 20
133.69325577
  0
VERTEX
  8
0
 10
48.45639770
 20
133.65771624
  0
VERTEX
  8
0
 10
48.63487134
 20
133.64215957
  0
VERTEX
  8
0
 10
48.81581079
 20
133.64742878
  0
VERTEX
  8
0
 10
48.99961716
 20
133.67392178
  0
VERTEX
  8
0
 10
49.18658753
 20
133.72187315
  0
VERTEX
  8
0
 10
49.37685521
 20
133.79128643
  0
VERTEX
  8
0
 10
49.57049595
 20
133.88210157
  0
VERTEX
  8
0
 10
49.76751923
 20
133.99423127
 42
-0.04796192
  0
VERTEX
  8
0
 10
51.79239014
 20
135.95651249
  0
VERTEX
  8
0
 10
51.91064874
 20
136.14991917
  0
VERTEX
  8
0
 10
52.00749712
 20
136.34061400
  0
VERTEX
  8
0
 10
52.08284831
 20
136.52860919
  0
VERTEX
  8
0
 10
52.13664467
 20
136.71398234
  0
VERTEX
  8
0
 10
52.16889392
 20
136.89686659
  0
VERTEX
  8
0
 10
52.17983985
 20
137.07755149
  0
VERTEX
  8
0
 10
52.16989277
 20
137.25642549
  0
VERTEX
  8
0
 10
52.13991607
 20
137.43412432
  0
VERTEX
  8
0
 10
52.09107626
 20
137.61143924
  0
VERTEX
  8
0
 10
52.02523679
 20
137.78950643
  0
VERTEX
  8
0
 10
51.85206339
 20
138.15342801
  0
VERTEX
  8
0
 10
51.64360254
 20
138.53891784
  0
VERTEX
  8
0
 10
51.42634702
 20
138.96039236
  0
VERTEX
  8
0
 10
51.22624701
 20
139.43157542
  0
VERTEX
  8
0
 10
51.13967519
 20
139.68938613
  0
VERTEX
  8
0
 10
51.06492452
 20
139.96333635
  0
VERTEX
  8
0
 10
51.00364181
 20
140.25412459
  0
VERTEX
  8
0
 10
50.95692412
 20
140.56212339
  0
VERTEX
  8
0
 10
50.92563711
 20
140.88757417
  0
VERTEX
  8
0
 10
50.91026870
 20
141.23051628
  0
VERTEX
  8
0
 10
50.91115711
 20
141.59091571
  0
VERTEX
  8
0
 10
50.92840973
 20
141.96863877
  0
VERTEX
  8
0
 10
51.01201215
 20
142.77540230
  0
VERTEX
  8
0
 10
51.16051952
 20
143.64955143
  0
VERTEX
  8
0
 10
53.04354488
 20
144.50161510
  0
VERTEX
  8
0
 10
54.99947377
 20
145.16955161
  0
VERTEX
  8
0
 10
55.70613946
 20
144.63400074
  0
VERTEX
  8
0
 10
56.31936275
 20
144.10313922
  0
VERTEX
  8
0
 10
56.59051461
 20
143.83960738
  0
VERTEX
  8
0
 10
56.83787861
 20
143.57750131
  0
VERTEX
  8
0
 10
57.06144148
 20
143.31699197
  0
VERTEX
  8
0
 10
57.26142653
 20
143.05833569
  0
VERTEX
  8
0
 10
57.43821634
 20
142.80183780
  0
VERTEX
  8
0
 10
57.59260721
 20
142.54791493
  0
VERTEX
  8
0
 10
57.72565388
 20
142.29704649
  0
VERTEX
  8
0
 10
57.83903495
 20
142.04985067
  0
VERTEX
  8
0
 10
58.01572629
 20
141.56939915
  0
VERTEX
  8
0
 10
58.14588339
 20
141.11343878
  0
VERTEX
  8
0
 10
58.25781759
 20
140.68973007
  0
VERTEX
  8
0
 10
58.38070984
 20
140.30590011
  0
VERTEX
  8
0
 10
58.45461431
 20
140.13102618
  0
VERTEX
  8
0
 10
58.54039575
 20
139.96833797
  0
VERTEX
  8
0
 10
58.64019032
 20
139.81828292
  0
VERTEX
  8
0
 10
58.75539002
 20
139.68108276
  0
VERTEX
  8
0
 10
58.88705942
 20
139.55686515
  0
VERTEX
  8
0
 10
59.03576352
 20
139.44562780
  0
VERTEX
  8
0
 10
59.20187829
 20
139.34732652
  0
VERTEX
  8
0
 10
59.38550045
 20
139.26186955
  0
VERTEX
  8
0
 10
59.58664113
 20
139.18916087
  0
VERTEX
  8
0
 10
59.80524530
 20
139.12913204
 42
-0.04796192
  0
VERTEX
  8
0
 10
62.62458761
 20
139.08487445
  0
VERTEX
  8
0
 10
62.84496824
 20
139.13801216
  0
VERTEX
  8
0
 10
63.04829200
 20
139.20437163
  0
VERTEX
  8
0
 10
63.23450600
 20
139.28402296
  0
VERTEX
  8
0
 10
63.40362439
 20
139.37706181
  0
VERTEX
  8
0
 10
63.55574674
 20
139.48357683
  0
VERTEX
  8
0
 10
63.69125020
 20
139.60360041
  0
VERTEX
  8
0
 10
63.81069957
 20
139.73711708
  0
VERTEX
  8
0
 10
63.91515489
 20
139.88396585
  0
VERTEX
  8
0
 10
64.00600051
 20
140.04388140
  0
VERTEX
  8
0
 10
64.08535750
 20
140.21634946
  0
VERTEX
  8
0
 10
64.22023683
 20
140.59613295
  0
VERTEX
  8
0
 10
64.34541523
 20
141.01611951
  0
VERTEX
  8
0
 10
64.48981986
 20
141.46776986
  0
VERTEX
  8
0
 10
64.68150453
 20
141.94243867
  0
VERTEX
  8
0
 10
64.80258870
 20
142.18595389
  0
VERTEX
  8
0
 10
64.94344406
 20
142.43252265
  0
VERTEX
  8
0
 10
65.10572898
 20
142.68147440
  0
VERTEX
  8
0
 10
65.29048262
 20
142.93229684
  0
VERTEX
  8
0
 10
65.49848782
 20
143.18454855
  0
VERTEX
  8
0
 10
65.73011740
 20
143.43791235
  0
VERTEX
  8
0
 10
65.98558648
 20
143.69212502
  0
VERTEX
  8
0
 10
66.26487646
 20
143.94701612
  0
VERTEX
  8
0
 10
66.89446026
 20
144.45836825
  0
VERTEX
  8
0
 10
67.61758761
 20
144.97147445
  0
VERTEX
  8
0
 10
69.55158761
 20
144.24247445
  0
VERTEX
  8
0
 10
71.40694062
 20
143.33172631
  0
VERTEX
  8
0
 10
71.52793707
 20
142.45334655
  0
VERTEX
  8
0
 10
71.58617565
 20
141.64435642
  0
VERTEX
  8
0
 10
71.59156381
 20
141.26627795
  0
VERTEX
  8
0
 10
71.58113959
 20
140.90602822
  0
VERTEX
  8
0
 10
71.55501450
 20
140.56373747
  0
VERTEX
  8
0
 10
71.51352768
 20
140.23942908
  0
VERTEX
  8
0
 10
71.45716555
 20
139.93304841
  0
VERTEX
  8
0
 10
71.38678579
 20
139.64432699
  0
VERTEX
  8
0
 10
71.30347322
 20
139.37285802
  0
VERTEX
  8
0
 10
71.20885190
 20
139.11789165
  0
VERTEX
  8
0
 10
70.99406102
 20
138.65322148
  0
VERTEX
  8
0
 10
70.76368332
 20
138.23877384
  0
VERTEX
  8
0
 10
70.54322545
 20
137.86001710
  0
VERTEX
  8
0
 10
70.35871463
 20
137.50171040
  0
VERTEX
  8
0
 10
70.28731844
 20
137.32579750
  0
VERTEX
  8
0
 10
70.23293714
 20
137.15010293
  0
VERTEX
  8
0
 10
70.19739761
 20
136.97343257
  0
VERTEX
  8
0
 10
70.18184094
 20
136.79495892
  0
VERTEX
  8
0
 10
70.18711014
 20
136.61401947
  0
VERTEX
  8
0
 10
70.21360314
 20
136.43021311
  0
VERTEX
  8
0
 10
70.26155451
 20
136.24324273
  0
VERTEX
  8
0
 10
70.33096779
 20
136.05297506
  0
VERTEX
  8
0
 10
70.42178293
 20
135.85933431
  0
VERTEX
  8
0
 10
70.53391263
 20
135.66231103
 42
-0.04796192
  0
VERTEX
  8
0
 10
72.49619385
 20
133.63744012
  0
VERTEX
  8
0
 10
109.09578761
 20
131.82767445
 42
-0.19593020
  0
VERTEX
  8
0
 10
113.31278761
 20
129.99027445
  0
VERTEX
  8
0
 10
134.83698761
 20
107.92247445
 42
-0.64004964
  0
VERTEX
  8
0
 10
134.34948600
 20
106.58463976
  0
VERTEX
  8
0
 10
113.94918761
 20
109.08367445
 42
0.34868245
  0
VERTEX
  8
0
 10
104.89287578
 20
115.85147445
  0
VERTEX
  8
0
 10
72.19516321
 20
114.88790132
 42
-0.04778279
  0
VERTEX
  8
0
 10
70.17712148
 20
112.93363641
  0
VERTEX
  8
0
 10
70.05886288
 20
112.74022973
  0
VERTEX
  8
0
 10
69.96201450
 20
112.54953490
  0
VERTEX
  8
0
 10
69.88666331
 20
112.36153972
  0
VERTEX
  8
0
 10
69.83286695
 20
112.17616656
  0
VERTEX
  8
0
 10
69.80061770
 20
111.99328232
  0
VERTEX
  8
0
 10
69.78967177
 20
111.81259741
  0
VERTEX
  8
0
 10
69.79961886
 20
111.63372341
  0
VERTEX
  8
0
 10
69.82959555
 20
111.45602459
  0
VERTEX
  8
0
 10
69.87843537
 20
111.27870966
  0
VERTEX
  8
0
 10
69.94427484
 20
111.10064247
  0
VERTEX
  8
0
 10
70.11744823
 20
110.73672089
  0
VERTEX
  8
0
 10
70.32590908
 20
110.35123106
  0
VERTEX
  8
0
 10
70.54316461
 20
109.92975654
  0
VERTEX
  8
0
 10
70.74326462
 20
109.45857348
  0
VERTEX
  8
0
 10
70.82983644
 20
109.20076277
  0
VERTEX
  8
0
 10
70.90458711
 20
108.92681255
  0
VERTEX
  8
0
 10
70.96586981
 20
108.63602431
  0
VERTEX
  8
0
 10
71.01258751
 20
108.32802551
  0
VERTEX
  8
0
 10
71.04387451
 20
108.00257473
  0
VERTEX
  8
0
 10
71.05924293
 20
107.65963262
  0
VERTEX
  8
0
 10
71.05835451
 20
107.29923319
  0
VERTEX
  8
0
 10
71.04110189
 20
106.92151014
  0
VERTEX
  8
0
 10
70.95749948
 20
106.11474660
  0
VERTEX
  8
0
 10
70.80899210
 20
105.24059748
  0
VERTEX
  8
0
 10
68.92596675
 20
104.38853381
  0
VERTEX
  8
0
 10
66.97003786
 20
103.72059729
  0
VERTEX
  8
0
 10
66.26337217
 20
104.25614816
  0
VERTEX
  8
0
 10
65.65014887
 20
104.78700968
  0
VERTEX
  8
0
 10
65.37899701
 20
105.05054152
  0
VERTEX
  8
0
 10
65.13163302
 20
105.31264759
  0
VERTEX
  8
0
 10
64.90807014
 20
105.57315693
  0
VERTEX
  8
0
 10
64.70808509
 20
105.83181321
  0
VERTEX
  8
0
 10
64.53129529
 20
106.08831110
  0
VERTEX
  8
0
 10
64.37690441
 20
106.34223398
  0
VERTEX
  8
0
 10
64.24385775
 20
106.59310241
  0
VERTEX
  8
0
 10
64.13047667
 20
106.84029823
  0
VERTEX
  8
0
 10
63.95378534
 20
107.32074975
  0
VERTEX
  8
0
 10
63.82362823
 20
107.77671012
  0
VERTEX
  8
0
 10
63.71169403
 20
108.20041884
  0
VERTEX
  8
0
 10
63.58880178
 20
108.58424879
  0
VERTEX
  8
0
 10
63.51489731
 20
108.75912272
  0
VERTEX
  8
0
 10
63.42911588
 20
108.92181093
  0
VERTEX
  8
0
 10
63.32932131
 20
109.07186599
  0
VERTEX
  8
0
 10
63.21412161
 20
109.20906614
  0
VERTEX
  8
0
 10
63.08245221
 20
109.33328375
  0
VERTEX
  8
0
 10
62.93374810
 20
109.44452110
  0
VERTEX
  8
0
 10
62.76763334
 20
109.54282239
  0
VERTEX
  8
0
 10
62.58401117
 20
109.62827935
  0
VERTEX
  8
0
 10
62.38287049
 20
109.70098803
  0
VERTEX
  8
0
 10
62.16426633
 20
109.76101686
 42
-0.04796232
  0
VERTEX
  8
0
 10
59.34492402
 20
109.80527445
  0
VERTEX
  8
0
 10
59.12454338
 20
109.75213674
  0
VERTEX
  8
0
 10
58.92121963
 20
109.68577727
  0
VERTEX
  8
0
 10
58.73500562
 20
109.60612594
  0
VERTEX
  8
0
 10
58.56588723
 20
109.51308709
  0
VERTEX
  8
0
 10
58.41376488
 20
109.40657207
  0
VERTEX
  8
0
 10
58.27826142
 20
109.28654849
  0
VERTEX
  8
0
 10
58.15881205
 20
109.15303182
  0
VERTEX
  8
0
 10
58.05435673
 20
109.00618305
  0
VERTEX
  8
0
 10
57.96351111
 20
108.84626750
  0
VERTEX
  8
0
 10
57.88415412
 20
108.67379945
  0
VERTEX
  8
0
 10
57.74927479
 20
108.29401595
  0
VERTEX
  8
0
 10
57.62409640
 20
107.87402940
  0
VERTEX
  8
0
 10
57.47969176
 20
107.42237905
  0
VERTEX
  8
0
 10
57.28800710
 20
106.94771024
  0
VERTEX
  8
0
 10
57.16692292
 20
106.70419501
  0
VERTEX
  8
0
 10
57.02606756
 20
106.45762625
  0
VERTEX
  8
0
 10
56.86378264
 20
106.20867450
  0
VERTEX
  8
0
 10
56.67902901
 20
105.95785206
  0
VERTEX
  8
0
 10
56.47102380
 20
105.70560035
  0
VERTEX
  8
0
 10
56.23939422
 20
105.45223655
  0
VERTEX
  8
0
 10
55.98392514
 20
105.19802388
  0
VERTEX
  8
0
 10
55.70463516
 20
104.94313278
  0
VERTEX
  8
0
 10
55.07505136
 20
104.43178066
  0
VERTEX
  8
0
 10
54.35192402
 20
103.91867445
  0
VERTEX
  8
0
 10
52.41792402
 20
104.64767445
  0
VERTEX
  8
0
 10
50.56257100
 20
105.55842260
  0
SEQEND
  0
POLYLINE
  8
Default_Layer
 62
256
 66
   1
 39
0.000000
 70
    0
  0
VERTEX
  8
0
 10
-4.44230939
 20
14.69647289
  0
VERTEX
  8
0
 10
-4.44230939
 20
14.69647289
  0
VERTEX
  8
0
 10
-4.44246824
 20
14.69647406
  0
SEQEND
  0
POLYLINE
  8
Default_Layer
 62
256
 66
   1
 39
0.000000
 70
    1
  0
VERTEX
  8
0
 10
70.28782914
 20
17.18545053
 42
-0.56918137
  0
VERTEX
  8
0
 10
57.21992892
 20
17.00555590
 42
-0.56918137
  0
VERTEX
  8
0
 10
63.31564639
 20
28.56603196
 42
0.25615131
  0
VERTEX
  8
0
 10
67.05826965
 20
30.87186761
  0
VERTEX
  8
0
 10
74.06894170
 20
43.19896578
 42
0.58902415
  0
VERTEX
  8
0
 10
71.50803593
 20
47.28837191
  0
VERTEX
  8
0
 10
71.46433627
 20
53.27467456
  0
VERTEX
  8
0
 10
59.46472117
 20
53.18667445
  0
VERTEX
  8
0
 10
59.42952117
 20
57.98647445
  0
VERTEX
  8
0
 10
66.02912117
 20
58.06987445
  0
VERTEX
  8
0
 10
66.02912117
 20
58.07447445
  0
VERTEX
  8
0
 10
65.98512117
 20
64.07427445
  0
VERTEX
  8
0
 10
65.97892117
 20
64.07427445
  0
VERTEX
  8
0
 10
100.78452117
 20
64.25007445
  0
VERTEX
  8
0
 10
100.82852117
 20
58.25027445
  0
VERTEX
  8
0
 10
107.42812117
 20
58.33807445
  0
VERTEX
  8
0
 10
107.46332119
 20
53.53827286
  0
VERTEX
  8
0
 10
101.46448369
 20
53.45596040
  0
VERTEX
  8
0
 10
101.08938760
 20
53.45081587
  0
VERTEX
  8
0
 10
101.06590190
 20
53.45049434
  0
VERTEX
  8
0
 10
101.06464902
 20
53.45047730
  0
VERTEX
  8
0
 10
101.06444904
 20
53.45047466
  0
VERTEX
  8
0
 10
101.06424904
 20
53.45047445
  0
VERTEX
  8
0
 10
101.06431560
 20
53.45038290
  0
VERTEX
  8
0
 10
101.06430711
 20
53.44900961
  0
VERTEX
  8
0
 10
101.06439617
 20
53.42703695
  0
VERTEX
  8
0
 10
101.06672117
 20
53.07547445
  0
VERTEX
  8
0
 10
101.10740280
 20
47.45047445
  0
VERTEX
  8
0
 10
92.96297347
 20
46.60756033
 42
0.24091800
  0
VERTEX
  8
0
 10
83.71972117
 20
40.52927445
  0
VERTEX
  8
0
 10
70.28782914
 20
17.18545053
  0
SEQEND
  0
POLYLINE
  8
Default_Layer
 62
256
 66
   1
 39
0.000000
 70
    1
  0
VERTEX
  8
0
 10
23.96492117
 20
-28.05072555
  0
VERTEX
  8
0
 10
23.96492117
 20
-23.25092555
  0
VERTEX
  8
0
 10
17.92184925
 20
-23.25092555
  0
VERTEX
  8
0
 10
17.92192117
 20
-10.25112555
  0
VERTEX
  8
0
 10
22.92184448
 20
-10.25112555
  0
VERTEX
  8
0
 10
22.92192117
 20
3.88447445
  0
VERTEX
  8
0
 10
44.71041072
 20
4.64145249
  0
VERTEX
  8
0
 10
46.34838273
 20
4.60352007
  0
VERTEX
  8
0
 10
47.95935085
 20
4.59046828
  0
VERTEX
  8
0
 10
49.54320402
 20
4.60239943
  0
VERTEX
  8
0
 10
51.09972083
 20
4.63951752
  0
VERTEX
  8
0
 10
52.62862547
 20
4.70207669
  0
VERTEX
  8
0
 10
54.12953634
 20
4.79042852
  0
VERTEX
  8
0
 10
55.60202111
 20
4.90497135
  0
VERTEX
  8
0
 10
57.04555188
 20
5.04619157
  0
VERTEX
  8
0
 10
58.45955562
 20
5.21461717
  0
VERTEX
  8
0
 10
59.84337803
 20
5.41085098
  0
VERTEX
  8
0
 10
61.19633019
 20
5.63552776
  0
VERTEX
  8
0
 10
62.51766965
 20
5.88933159
  0
VERTEX
  8
0
 10
63.80663485
 20
6.17296414
  0
VERTEX
  8
0
 10
65.06244188
 20
6.48714769
  0
VERTEX
  8
0
 10
66.28430394
 20
6.83260718
  0
VERTEX
  8
0
 10
67.47144565
 20
7.21005701
  0
VERTEX
  8
0
 10
68.62310530
 20
7.62019900
  0
VERTEX
  8
0
 10
69.73857451
 20
8.06368583
  0
VERTEX
  8
0
 10
70.81718834
 20
8.54113016
  0
VERTEX
  8
0
 10
71.85841236
 20
9.05302441
  0
VERTEX
  8
0
 10
72.86179980
 20
9.59978020
  0
VERTEX
  8
0
 10
73.82710485
 20
10.18162402
  0
VERTEX
  8
0
 10
74.75418785
 20
10.79868456
  0
VERTEX
  8
0
 10
75.64311364
 20
11.45090207
  0
VERTEX
  8
0
 10
76.49404753
 20
12.13812423
  0
VERTEX
  8
0
 10
77.30733773
 20
12.86003023
  0
VERTEX
  8
0
 10
78.08340943
 20
13.61622830
  0
VERTEX
  8
0
 10
78.82279849
 20
14.40622471
  0
VERTEX
  8
0
 10
79.52607473
 20
15.22949444
  0
VERTEX
  8
0
 10
80.19384269
 20
16.08548049
  0
VERTEX
  8
0
 10
80.82671125
 20
16.97362187
  0
VERTEX
  8
0
 10
81.42528136
 20
17.89336486
  0
VERTEX
  8
0
 10
81.99014109
 20
18.84416763
  0
VERTEX
  8
0
 10
82.52183581
 20
19.82552771
  0
VERTEX
  8
0
 10
83.02088138
 20
20.83696978
  0
VERTEX
  8
0
 10
83.48771935
 20
21.87808703
  0
VERTEX
  8
0
 10
83.92274611
 20
22.94851422
  0
VERTEX
  8
0
 10
84.32625588
 20
24.04798026
  0
VERTEX
  8
0
 10
84.69848740
 20
25.17626520
  0
VERTEX
  8
0
 10
85.03956372
 20
26.33325566
 42
-0.89664969
  0
VERTEX
  8
0
 10
118.43911181
 20
26.01588192
 42
-0.02479704
  0
VERTEX
  8
0
 10
119.92212117
 20
-3.74578916
  0
VERTEX
  8
0
 10
119.92212117
 20
-5.65092555
  0
VERTEX
  8
0
 10
125.92212117
 20
-5.65092555
  0
VERTEX
  8
0
 10
126.32192117
 20
-5.65092555
  0
VERTEX
  8
0
 10
126.32192117
 20
-23.25092555
  0
VERTEX
  8
0
 10
118.00072117
 20
-23.25092555
  0
VERTEX
  8
0
 10
118.00072117
 20
-28.05092555
  0
VERTEX
  8
0
 10
100.00012117
 20
-28.05092555
  0
VERTEX
  8
0
 10
100.00012117
 20
-23.25052555
  0
VERTEX
  8
0
 10
87.92192117
 20
-23.25052555
  0
VERTEX
  8
0
 10
87.92192117
 20
-15.85052555
  0
VERTEX
  8
0
 10
57.92192117
 20
-15.85052555
  0
VERTEX
  8
0
 10
57.92192117
 20
-23.25092555
  0
VERTEX
  8
0
 10
57.89632117
 20
-23.25092555
  0
VERTEX
  8
0
 10
42.96492117
 20
-23.25092555
  0
VERTEX
  8
0
 10
42.96492117
 20
-28.05092555
  0
VERTEX
  8
0
 10
31.72172117
 20
-28.05092555
  0
VERTEX
  8
0
 10
31.72172117
 20
-23.25092555
 42
-0.00074106
  0
VERTEX
  8
0
 10
29.36486816
 20
-23.25072555
  0
VERTEX
  8
0
 10
29.36492117
 20
-28.05072555
  0
VERTEX
  8
0
 10
23.96492117
 20
-28.05072555
  0
SEQEND
  0
POLYLINE
  8
Default_Layer
 62
256
 66
   1
 39
0.000000
 70
    1
  0
VERTEX
  8
0
 10
-78.64227883
 20
-29.70312555
  0
VERTEX
  8
0
 10
-78.64227883
 20
-23.70312555
  0
VERTEX
  8
0
 10
-81.24227883
 20
-23.70312555
  0
VERTEX
  8
0
 10
-81.24227883
 20
14.69667445
  0
VERTEX
  8
0
 10
-61.44131804
 20
14.69667445
  0
VERTEX
  8
0
 10
-61.44127883
 20
20.69667445
  0
VERTEX
  8
0
 10
-81.24227883
 20
20.69675445
  0
VERTEX
  8
0
 10
-81.24227905
 20
67.69687445
  0
VERTEX
  8
0
 10
-78.64227883
 20
67.69687445
  0
VERTEX
  8
0
 10
-78.64227883
 20
73.69687445
  0
VERTEX
  8
0
 10
-68.64227883
 20
73.69687445
  0
VERTEX
  8
0
 10
-68.64227883
 20
67.69687445
  0
VERTEX
  8
0
 10
-62.64227883
 20
67.69687445
  0
VERTEX
  8
0
 10
-62.64227883
 20
73.69687445
  0
VERTEX
  8
0
 10
-52.64227883
 20
73.69687445
  0
VERTEX
  8
0
 10
-52.64227883
 20
67.69687445
  0
VERTEX
  8
0
 10
-14.64227883
 20
67.69687445
  0
VERTEX
  8
0
 10
-14.64227883
 20
73.69687445
  0
VERTEX
  8
0
 10
11.35772117
 20
73.69687445
  0
VERTEX
  8
0
 10
11.35772117
 20
67.69687445
  0
VERTEX
  8
0
 10
13.95772117
 20
67.69687445
  0
VERTEX
  8
0
 10
14.00892117
 20
67.69667445
  0
VERTEX
  8
0
 10
14.00892117
 20
34.72267445
  0
VERTEX
  8
0
 10
14.06172117
 20
34.71447445
  0
VERTEX
  8
0
 10
20.66172117
 20
34.71447445
  0
VERTEX
  8
0
 10
20.66172117
 20
28.11447445
  0
VERTEX
  8
0
 10
14.06172117
 20
28.11447445
  0
VERTEX
  8
0
 10
14.00892117
 20
28.12267445
  0
VERTEX
  8
0
 10
14.00892117
 20
20.69647445
  0
VERTEX
  8
0
 10
9.01892117
 20
20.69647445
  0
VERTEX
  8
0
 10
9.01892117
 20
14.69647445
  0
VERTEX
  8
0
 10
13.95772117
 20
14.69647445
  0
VERTEX
  8
0
 10
13.95772117
 20
-23.70312555
  0
VERTEX
  8
0
 10
11.35772117
 20
-23.70312555
  0
VERTEX
  8
0
 10
11.35772117
 20
-29.70312555
  0
VERTEX
  8
0
 10
-8.64227883
 20
-29.70312555
  0
VERTEX
  8
0
 10
-8.64227883
 20
-23.70312555
  0
VERTEX
  8
0
 10
-48.64227883
 20
-23.70312555
  0
VERTEX
  8
0
 10
-48.64227883
 20
-29.70312555
  0
VERTEX
  8
0
 10
-78.64227883
 20
-29.70312555
  0
SEQEND
  0
POLYLINE
  8
Default_Layer
 62
256
 66
   1
 39
0.000000
 70
    0
  0
VERTEX
  8
0
 10
23.96492117
 20
-28.05070802
  0
VERTEX
  8
0
 10
23.96492117
 20
-28.05065387
  0
VERTEX
  8
0
 10
23.96492117
 20
-28.04955988
  0
VERTEX
  8
0
 10
23.96492117
 20
-28.03199977
  0
VERTEX
  8
0
 10
23.96492117
 20
-27.75081305
  0
SEQEND
  0
POLYLINE
  8
Default_Layer
 62
256
 66
   1
 39
0.000000
 70
    1
  0
VERTEX
  8
0
 10
-127.02988504
 20
-176.29112138
  0
VERTEX
  8
0
 10
-127.02987884
 20
-164.39584746
 42
0.12535029
  0
VERTEX
  8
0
 10
-129.56777306
 20
-154.43168010
 42
-0.25715310
  0
VERTEX
  8
0
 10
-129.51451375
 20
-142.85406326
 42
0.12768706
  0
VERTEX
  8
0
 10
-127.02987883
 20
-133.28329883
  0
VERTEX
  8
0
 10
-127.02987883
 20
-78.29620988
 42
-0.97552798
  0
VERTEX
  8
0
 10
-111.02987883
 20
-78.29292555
  0
VERTEX
  8
0
 10
-111.02987883
 20
-132.95754551
 42
0.12512561
  0
VERTEX
  8
0
 10
-108.48691561
 20
-142.96009186
 42
-0.25372399
  0
VERTEX
  8
0
 10
-108.47600344
 20
-154.40223955
 42
0.12464134
  0
VERTEX
  8
0
 10
-111.02987883
 20
-164.48797763
  0
VERTEX
  8
0
 10
-111.02988504
 20
-176.29112972
 42
-0.41421356
  0
VERTEX
  8
0
 10
-119.02988921
 20
-184.29112555
 42
-0.41421356
  0
VERTEX
  8
0
 10
-127.02988504
 20
-176.29112138
  0
SEQEND
  0
POLYLINE
  8
Default_Layer
 62
256
 66
   1
 39
0.000000
 70
    1
  0
VERTEX
  8
0
 10
95.91469931
 20
-131.49366486
  0
VERTEX
  8
0
 10
95.61904692
 20
-130.30832057
  0
VERTEX
  8
0
 10
95.39465817
 20
-129.21406067
  0
VERTEX
  8
0
 10
95.24242358
 20
-128.21275323
  0
VERTEX
  8
0
 10
95.19344669
 20
-127.74759232
  0
VERTEX
  8
0
 10
95.16234685
 20
-127.30631867
  0
VERTEX
  8
0
 10
95.14878069
 20
-126.88899669
  0
VERTEX
  8
0
 10
95.15206542
 20
-126.49546305
  0
VERTEX
  8
0
 10
95.17131400
 20
-126.12540881
  0
VERTEX
  8
0
 10
95.20514207
 20
-125.77815076
  0
VERTEX
  8
0
 10
95.30910977
 20
-125.14779323
  0
VERTEX
  8
0
 10
95.44406810
 20
-124.59182709
  0
VERTEX
  8
0
 10
95.58454987
 20
-124.09299858
  0
VERTEX
  8
0
 10
95.70347671
 20
-123.63232324
  0
VERTEX
  8
0
 10
95.77624750
 20
-123.19202254
  0
VERTEX
  8
0
 10
95.78931033
 20
-122.97497227
  0
VERTEX
  8
0
 10
95.78474941
 20
-122.75828459
  0
VERTEX
  8
0
 10
95.76152379
 20
-122.54101819
  0
VERTEX
  8
0
 10
95.71909832
 20
-122.32258514
  0
VERTEX
  8
0
 10
95.65712785
 20
-122.10254060
  0
VERTEX
  8
0
 10
95.57554232
 20
-121.88066802
  0
VERTEX
  8
0
 10
95.47435346
 20
-121.65683384
  0
VERTEX
  8
0
 10
95.35362956
 20
-121.43100826
 42
-0.04625148
  0
VERTEX
  8
0
 10
91.27302588
 20
-118.93888170
  0
VERTEX
  8
0
 10
91.01699225
 20
-118.93461205
  0
VERTEX
  8
0
 10
90.77165149
 20
-118.94681194
  0
VERTEX
  8
0
 10
90.53700828
 20
-118.97555573
  0
VERTEX
  8
0
 10
90.31294916
 20
-119.02091486
  0
VERTEX
  8
0
 10
90.09924949
 20
-119.08292589
  0
VERTEX
  8
0
 10
89.89535589
 20
-119.16148491
  0
VERTEX
  8
0
 10
89.70050095
 20
-119.25638435
  0
VERTEX
  8
0
 10
89.51337185
 20
-119.36712799
  0
VERTEX
  8
0
 10
89.15489969
 20
-119.63294374
  0
VERTEX
  8
0
 10
88.79938018
 20
-119.94912603
  0
VERTEX
  8
0
 10
88.41976214
 20
-120.30190805
  0
VERTEX
  8
0
 10
87.98679025
 20
-120.67586986
  0
VERTEX
  8
0
 10
87.47348466
 20
-121.05623452
  0
VERTEX
  8
0
 10
87.18000176
 20
-121.24491489
  0
VERTEX
  8
0
 10
86.85958050
 20
-121.43103546
  0
VERTEX
  8
0
 10
86.51098087
 20
-121.61367666
  0
VERTEX
  8
0
 10
86.13352292
 20
-121.79219045
  0
VERTEX
  8
0
 10
85.72674954
 20
-121.96604400
  0
VERTEX
  8
0
 10
85.29056123
 20
-122.13490240
  0
VERTEX
  8
0
 10
84.33024462
 20
-122.45674705
  0
VERTEX
  8
0
 10
83.25428326
 20
-122.75685067
  0
VERTEX
  8
0
 10
82.06474571
 20
-123.03515237
  0
VERTEX
  8
0
 10
80.23295194
 20
-120.89688973
  0
VERTEX
  8
0
 10
78.40110261
 20
-118.75867468
  0
VERTEX
  8
0
 10
78.85864269
 20
-117.62593089
  0
VERTEX
  8
0
 10
79.32029821
 20
-116.60876364
  0
VERTEX
  8
0
 10
79.78569159
 20
-115.70920766
  0
VERTEX
  8
0
 10
80.01948317
 20
-115.30409668
  0
VERTEX
  8
0
 10
80.25369702
 20
-114.92881877
  0
VERTEX
  8
0
 10
80.48801747
 20
-114.58322420
  0
VERTEX
  8
0
 10
80.72198814
 20
-114.26677952
  0
VERTEX
  8
0
 10
80.95507299
 20
-113.97871338
  0
VERTEX
  8
0
 10
81.18655364
 20
-113.71765936
  0
VERTEX
  8
0
 10
81.64118014
 20
-113.26880008
  0
VERTEX
  8
0
 10
82.07715242
 20
-112.89834055
  0
VERTEX
  8
0
 10
82.48400860
 20
-112.57735292
  0
VERTEX
  8
0
 10
82.85100060
 20
-112.27456218
  0
VERTEX
  8
0
 10
83.16867567
 20
-111.96112503
  0
VERTEX
  8
0
 10
83.30682267
 20
-111.79320581
  0
VERTEX
  8
0
 10
83.43049863
 20
-111.61522096
  0
VERTEX
  8
0
 10
83.53941470
 20
-111.42579707
  0
VERTEX
  8
0
 10
83.63348349
 20
-111.22414395
  0
VERTEX
  8
0
 10
83.71268727
 20
-111.00969885
  0
VERTEX
  8
0
 10
83.77709661
 20
-110.78224539
  0
VERTEX
  8
0
 10
83.82679953
 20
-110.54168242
  0
VERTEX
  8
0
 10
83.86186880
 20
-110.28802596
 42
-0.04625148
  0
VERTEX
  8
0
 10
82.02542631
 20
-105.87333456
  0
VERTEX
  8
0
 10
81.82080038
 20
-105.71938754
  0
VERTEX
  8
0
 10
81.61514463
 20
-105.58504978
  0
VERTEX
  8
0
 10
81.40841911
 20
-105.47038418
  0
VERTEX
  8
0
 10
81.20049005
 20
-105.37538184
  0
VERTEX
  8
0
 10
80.99115421
 20
-105.29994030
  0
VERTEX
  8
0
 10
80.78002499
 20
-105.24365024
  0
VERTEX
  8
0
 10
80.56660354
 20
-105.20589263
  0
VERTEX
  8
0
 10
80.35011944
 20
-105.18549440
  0
VERTEX
  8
0
 10
79.90386679
 20
-105.18983921
  0
VERTEX
  8
0
 10
79.43039818
 20
-105.23666692
  0
VERTEX
  8
0
 10
78.91592067
 20
-105.29893968
  0
VERTEX
  8
0
 10
78.34582981
 20
-105.34698666
  0
VERTEX
  8
0
 10
77.70698413
 20
-105.35299468
  0
VERTEX
  8
0
 10
77.35864794
 20
-105.33313539
  0
VERTEX
  8
0
 10
76.99002277
 20
-105.29537119
  0
VERTEX
  8
0
 10
76.60064594
 20
-105.23822931
  0
VERTEX
  8
0
 10
76.19034827
 20
-105.16078578
  0
VERTEX
  8
0
 10
75.75907314
 20
-105.06234087
  0
VERTEX
  8
0
 10
75.30693691
 20
-104.94256512
  0
VERTEX
  8
0
 10
74.34084891
 20
-104.63848297
  0
VERTEX
  8
0
 10
73.29398140
 20
-104.24883768
  0
VERTEX
  8
0
 10
72.16804367
 20
-103.77479586
  0
VERTEX
  8
0
 10
71.94293063
 20
-100.96820368
  0
VERTEX
  8
0
 10
71.71774466
 20
-98.16161735
  0
VERTEX
  8
0
 10
72.75371246
 20
-97.51414368
  0
VERTEX
  8
0
 10
73.72507553
 20
-96.96259240
  0
VERTEX
  8
0
 10
74.63033243
 20
-96.50838769
  0
VERTEX
  8
0
 10
75.05759204
 20
-96.31806527
  0
VERTEX
  8
0
 10
75.46765785
 20
-96.15212650
  0
VERTEX
  8
0
 10
75.86036246
 20
-96.01026473
  0
VERTEX
  8
0
 10
76.23565023
 20
-95.89178011
  0
VERTEX
  8
0
 10
76.59354087
 20
-95.79573355
  0
VERTEX
  8
0
 10
76.93425635
 20
-95.72059733
  0
VERTEX
  8
0
 10
77.56588977
 20
-95.62468529
  0
VERTEX
  8
0
 10
78.13634941
 20
-95.58123531
  0
VERTEX
  8
0
 10
78.65417476
 20
-95.56069492
  0
VERTEX
  8
0
 10
79.12905346
 20
-95.53144456
  0
VERTEX
  8
0
 10
79.57029173
 20
-95.46459329
  0
VERTEX
  8
0
 10
79.78075544
 20
-95.40994456
  0
VERTEX
  8
0
 10
79.98542826
 20
-95.33864670
  0
VERTEX
  8
0
 10
80.18488378
 20
-95.24941881
  0
VERTEX
  8
0
 10
80.37951576
 20
-95.14157026
  0
VERTEX
  8
0
 10
80.56964063
 20
-95.01463534
  0
VERTEX
  8
0
 10
80.75544268
 20
-94.86848049
  0
VERTEX
  8
0
 10
80.93705255
 20
-94.70307560
  0
VERTEX
  8
0
 10
81.11451971
 20
-94.51847641
 42
-0.11119724
  0
VERTEX
  8
0
 10
85.15676069
 20
-83.88130306
 42
0.43527711
  0
VERTEX
  8
0
 10
112.94320933
 20
-74.70287712
  0
VERTEX
  8
0
 10
116.18398640
 20
-74.05281079
 42
-0.06712313
  0
VERTEX
  8
0
 10
122.23704566
 20
-77.41214960
  0
VERTEX
  8
0
 10
122.49307930
 20
-77.41641925
  0
VERTEX
  8
0
 10
122.73842005
 20
-77.40421936
  0
VERTEX
  8
0
 10
122.97306326
 20
-77.37547557
  0
VERTEX
  8
0
 10
123.19712238
 20
-77.33011644
  0
VERTEX
  8
0
 10
123.41082205
 20
-77.26810541
  0
VERTEX
  8
0
 10
123.61471565
 20
-77.18954639
  0
VERTEX
  8
0
 10
123.80957059
 20
-77.09464695
  0
VERTEX
  8
0
 10
123.99669969
 20
-76.98390331
  0
VERTEX
  8
0
 10
124.35517185
 20
-76.71808756
  0
VERTEX
  8
0
 10
124.71069137
 20
-76.40190527
  0
VERTEX
  8
0
 10
125.09030941
 20
-76.04912325
  0
VERTEX
  8
0
 10
125.52328129
 20
-75.67516144
  0
VERTEX
  8
0
 10
126.03658688
 20
-75.29479678
  0
VERTEX
  8
0
 10
126.33006978
 20
-75.10611641
  0
VERTEX
  8
0
 10
126.65049104
 20
-74.91999584
  0
VERTEX
  8
0
 10
126.99909067
 20
-74.73735464
  0
VERTEX
  8
0
 10
127.37654862
 20
-74.55884085
  0
VERTEX
  8
0
 10
127.78332200
 20
-74.38498730
  0
VERTEX
  8
0
 10
128.21951031
 20
-74.21612890
  0
VERTEX
  8
0
 10
129.17982692
 20
-73.89428425
  0
VERTEX
  8
0
 10
130.25578828
 20
-73.59418063
  0
VERTEX
  8
0
 10
131.44532584
 20
-73.31587893
  0
VERTEX
  8
0
 10
133.27711960
 20
-75.45414158
  0
VERTEX
  8
0
 10
135.10896893
 20
-77.59235662
  0
VERTEX
  8
0
 10
134.65142885
 20
-78.72510041
  0
VERTEX
  8
0
 10
134.18977333
 20
-79.74226766
  0
VERTEX
  8
0
 10
133.72437995
 20
-80.64182365
  0
VERTEX
  8
0
 10
133.49058837
 20
-81.04693462
  0
VERTEX
  8
0
 10
133.25637452
 20
-81.42221253
  0
VERTEX
  8
0
 10
133.02205407
 20
-81.76780710
  0
VERTEX
  8
0
 10
132.78808340
 20
-82.08425178
  0
VERTEX
  8
0
 10
132.55499855
 20
-82.37231792
  0
VERTEX
  8
0
 10
132.32351790
 20
-82.63337194
  0
VERTEX
  8
0
 10
131.86889140
 20
-83.08223122
  0
VERTEX
  8
0
 10
131.43291912
 20
-83.45269075
  0
VERTEX
  8
0
 10
131.02606294
 20
-83.77367838
  0
VERTEX
  8
0
 10
130.65907094
 20
-84.07646912
  0
VERTEX
  8
0
 10
130.34139587
 20
-84.38990627
  0
VERTEX
  8
0
 10
130.20324887
 20
-84.55782549
  0
VERTEX
  8
0
 10
130.07957291
 20
-84.73581034
  0
VERTEX
  8
0
 10
129.97065684
 20
-84.92523423
  0
VERTEX
  8
0
 10
129.87658805
 20
-85.12688735
  0
VERTEX
  8
0
 10
129.79738428
 20
-85.34133245
  0
VERTEX
  8
0
 10
129.73297493
 20
-85.56878591
  0
VERTEX
  8
0
 10
129.68327201
 20
-85.80934889
  0
VERTEX
  8
0
 10
129.64820274
 20
-86.06300534
 42
-0.04625148
  0
VERTEX
  8
0
 10
131.48464523
 20
-90.47769674
  0
VERTEX
  8
0
 10
131.68927116
 20
-90.63164376
  0
VERTEX
  8
0
 10
131.89492691
 20
-90.76598152
  0
VERTEX
  8
0
 10
132.10165243
 20
-90.88064712
  0
VERTEX
  8
0
 10
132.30958149
 20
-90.97564946
  0
VERTEX
  8
0
 10
132.51891733
 20
-91.05109100
  0
VERTEX
  8
0
 10
132.73004655
 20
-91.10738106
  0
VERTEX
  8
0
 10
132.94346800
 20
-91.14513867
  0
VERTEX
  8
0
 10
133.15995210
 20
-91.16553691
  0
VERTEX
  8
0
 10
133.60620475
 20
-91.16119209
  0
VERTEX
  8
0
 10
134.07967336
 20
-91.11436438
  0
VERTEX
  8
0
 10
134.59415088
 20
-91.05209162
  0
VERTEX
  8
0
 10
135.16424173
 20
-91.00404464
  0
VERTEX
  8
0
 10
135.80308741
 20
-90.99803662
  0
VERTEX
  8
0
 10
136.15142360
 20
-91.01789592
  0
VERTEX
  8
0
 10
136.52004877
 20
-91.05566011
  0
VERTEX
  8
0
 10
136.90942560
 20
-91.11280199
  0
VERTEX
  8
0
 10
137.31972327
 20
-91.19024552
  0
VERTEX
  8
0
 10
137.75099840
 20
-91.28869043
  0
VERTEX
  8
0
 10
138.20313463
 20
-91.40846618
  0
VERTEX
  8
0
 10
139.16922263
 20
-91.71254833
  0
VERTEX
  8
0
 10
140.21609014
 20
-92.10219362
  0
VERTEX
  8
0
 10
141.34202787
 20
-92.57623545
  0
VERTEX
  8
0
 10
141.56714091
 20
-95.38282762
  0
VERTEX
  8
0
 10
141.79232688
 20
-98.18941395
  0
VERTEX
  8
0
 10
140.75635908
 20
-98.83688762
  0
VERTEX
  8
0
 10
139.78499601
 20
-99.38843890
  0
VERTEX
  8
0
 10
138.87973911
 20
-99.84264361
  0
VERTEX
  8
0
 10
138.45247950
 20
-100.03296604
  0
VERTEX
  8
0
 10
138.04241369
 20
-100.19890480
  0
VERTEX
  8
0
 10
137.64970908
 20
-100.34076657
  0
VERTEX
  8
0
 10
137.27442131
 20
-100.45925119
  0
VERTEX
  8
0
 10
136.91653068
 20
-100.55529775
  0
VERTEX
  8
0
 10
136.57581519
 20
-100.63043398
  0
VERTEX
  8
0
 10
135.94418177
 20
-100.72634601
  0
VERTEX
  8
0
 10
135.37372214
 20
-100.76979599
  0
VERTEX
  8
0
 10
134.85589678
 20
-100.79033638
  0
VERTEX
  8
0
 10
134.38101808
 20
-100.81958674
  0
VERTEX
  8
0
 10
133.93977981
 20
-100.88643801
  0
VERTEX
  8
0
 10
133.72931611
 20
-100.94108674
  0
VERTEX
  8
0
 10
133.52464328
 20
-101.01238461
  0
VERTEX
  8
0
 10
133.32518776
 20
-101.10161249
  0
VERTEX
  8
0
 10
133.13055578
 20
-101.20946104
  0
VERTEX
  8
0
 10
132.94043091
 20
-101.33639596
  0
VERTEX
  8
0
 10
132.75462886
 20
-101.48255081
  0
VERTEX
  8
0
 10
132.57301899
 20
-101.64795570
  0
VERTEX
  8
0
 10
132.39555183
 20
-101.83255489
 42
-0.04625148
  0
VERTEX
  8
0
 10
131.28637452
 20
-106.48354907
  0
VERTEX
  8
0
 10
131.36143258
 20
-106.72837092
  0
VERTEX
  8
0
 10
131.44884983
 20
-106.95793388
  0
VERTEX
  8
0
 10
131.54869554
 20
-107.17221051
  0
VERTEX
  8
0
 10
131.66107271
 20
-107.37128665
  0
VERTEX
  8
0
 10
131.78608553
 20
-107.55536466
  0
VERTEX
  8
0
 10
131.92380619
 20
-107.72500292
  0
VERTEX
  8
0
 10
132.07427441
 20
-107.88099544
  0
VERTEX
  8
0
 10
132.23742394
 20
-108.02474412
  0
VERTEX
  8
0
 10
132.60100374
 20
-108.28352982
  0
VERTEX
  8
0
 10
133.01157253
 20
-108.52394327
  0
VERTEX
  8
0
 10
133.46439659
 20
-108.77596585
  0
VERTEX
  8
0
 10
133.95385108
 20
-109.07218602
  0
VERTEX
  8
0
 10
134.47421952
 20
-109.44282950
  0
VERTEX
  8
0
 10
134.74435642
 20
-109.66364288
  0
VERTEX
  8
0
 10
135.02038321
 20
-109.91086719
  0
VERTEX
  8
0
 10
135.30180853
 20
-110.18596591
  0
VERTEX
  8
0
 10
135.58822615
 20
-110.48978596
  0
VERTEX
  8
0
 10
135.87927059
 20
-110.82292673
  0
VERTEX
  8
0
 10
136.17465407
 20
-111.18558635
  0
VERTEX
  8
0
 10
136.77750067
 20
-111.99944625
  0
VERTEX
  8
0
 10
137.39540652
 20
-112.93000920
  0
VERTEX
  8
0
 10
138.02767449
 20
-113.97532669
  0
VERTEX
  8
0
 10
136.56012127
 20
-116.37822558
  0
VERTEX
  8
0
 10
135.09263050
 20
-118.78116260
  0
VERTEX
  8
0
 10
133.87393947
 20
-118.69605321
  0
VERTEX
  8
0
 10
132.76389653
 20
-118.57131469
  0
VERTEX
  8
0
 10
131.76455348
 20
-118.40667737
  0
VERTEX
  8
0
 10
131.30702448
 20
-118.30951454
  0
VERTEX
  8
0
 10
130.87773792
 20
-118.20273118
  0
VERTEX
  8
0
 10
130.47664895
 20
-118.08667378
  0
VERTEX
  8
0
 10
130.10339126
 20
-117.96194124
  0
VERTEX
  8
0
 10
129.75739690
 20
-117.82928170
  0
VERTEX
  8
0
 10
129.43758832
 20
-117.68980065
  0
VERTEX
  8
0
 10
128.87021047
 20
-117.39613031
  0
VERTEX
  8
0
 10
128.38315967
 20
-117.09597432
  0
VERTEX
  8
0
 10
127.95215682
 20
-116.80822173
  0
VERTEX
  8
0
 10
127.55077895
 20
-116.55275908
  0
VERTEX
  8
0
 10
127.15451551
 20
-116.34748954
  0
VERTEX
  8
0
 10
126.95212507
 20
-116.26799383
  0
VERTEX
  8
0
 10
126.74463344
 20
-116.20537135
  0
VERTEX
  8
0
 10
126.53082370
 20
-116.16032122
  0
VERTEX
  8
0
 10
126.30997133
 20
-116.13317071
  0
VERTEX
  8
0
 10
126.08154661
 20
-116.12411063
  0
VERTEX
  8
0
 10
125.84532193
 20
-116.13314068
  0
VERTEX
  8
0
 10
125.60117390
 20
-116.16020845
  0
VERTEX
  8
0
 10
125.34909528
 20
-116.20523975
 42
-0.04625148
  0
VERTEX
  8
0
 10
121.71796619
 20
-119.31601501
  0
VERTEX
  8
0
 10
121.63478677
 20
-119.55819807
  0
VERTEX
  8
0
 10
121.57057509
 20
-119.79530097
  0
VERTEX
  8
0
 10
121.52540332
 20
-120.02734224
  0
VERTEX
  8
0
 10
121.49930434
 20
-120.25445187
  0
VERTEX
  8
0
 10
121.49224350
 20
-120.47685480
  0
VERTEX
  8
0
 10
121.50395099
 20
-120.69504521
  0
VERTEX
  8
0
 10
121.53399222
 20
-120.90968881
  0
VERTEX
  8
0
 10
121.58148962
 20
-121.12188083
  0
VERTEX
  8
0
 10
121.72352143
 20
-121.54494970
  0
VERTEX
  8
0
 10
121.91436708
 20
-121.98077454
  0
VERTEX
  8
0
 10
122.13257429
 20
-122.45082839
  0
VERTEX
  8
0
 10
122.35443744
 20
-122.97816969
  0
VERTEX
  8
0
 10
122.55756558
 20
-123.58389145
  0
VERTEX
  8
0
 10
122.64632007
 20
-123.92131572
  0
VERTEX
  8
0
 10
122.72431563
 20
-124.28356886
  0
VERTEX
  8
0
 10
122.79029453
 20
-124.67154605
  0
VERTEX
  8
0
 10
122.84343031
 20
-125.08569368
  0
VERTEX
  8
0
 10
122.88307498
 20
-125.52628186
  0
VERTEX
  8
0
 10
122.90887925
 20
-125.99330171
  0
VERTEX
  8
0
 10
122.91821756
 20
-127.00607254
  0
VERTEX
  8
0
 10
122.87114271
 20
-128.12210973
  0
VERTEX
  8
0
 10
122.76823604
 20
-129.33942713
  0
VERTEX
  8
0
 10
120.16857201
 20
-130.42080703
  0
VERTEX
  8
0
 10
117.56893609
 20
-131.50225448
  0
VERTEX
  8
0
 10
116.63302039
 20
-130.71707093
  0
VERTEX
  8
0
 10
115.80829624
 20
-129.96368847
  0
VERTEX
  8
0
 10
115.09658213
 20
-129.24309497
  0
VERTEX
  8
0
 10
114.78354427
 20
-128.89555979
  0
VERTEX
  8
0
 10
114.49900982
 20
-128.55684193
  0
VERTEX
  8
0
 10
114.24273886
 20
-128.22719535
  0
VERTEX
  8
0
 10
114.01408300
 20
-127.90688923
  0
VERTEX
  8
0
 10
113.81214300
 20
-127.59619503
  0
VERTEX
  8
0
 10
113.63539733
 20
-127.29537372
  0
VERTEX
  8
0
 10
113.34899410
 20
-126.72429309
  0
VERTEX
  8
0
 10
113.13138899
 20
-126.19518052
  0
VERTEX
  8
0
 10
112.95183709
 20
-125.70904667
  0
VERTEX
  8
0
 10
112.77727275
 20
-125.26644905
  0
VERTEX
  8
0
 10
112.57734329
 20
-124.86746469
  0
VERTEX
  8
0
 10
112.46033240
 20
-124.68418920
  0
VERTEX
  8
0
 10
112.32927672
 20
-124.51156603
  0
VERTEX
  8
0
 10
112.18278081
 20
-124.34944549
  0
VERTEX
  8
0
 10
112.02006615
 20
-124.19766651
  0
VERTEX
  8
0
 10
111.84059205
 20
-124.05607206
  0
VERTEX
  8
0
 10
111.64417454
 20
-123.92452815
  0
VERTEX
  8
0
 10
111.43074461
 20
-123.80291982
  0
VERTEX
  8
0
 10
111.20033998
 20
-123.69118281
 42
-0.04625148
  0
VERTEX
  8
0
 10
106.43422702
 20
-124.07352874
  0
VERTEX
  8
0
 10
106.22458182
 20
-124.22056731
  0
VERTEX
  8
0
 10
106.03326789
 20
-124.37464491
  0
VERTEX
  8
0
 10
105.86033272
 20
-124.53581894
  0
VERTEX
  8
0
 10
105.70572652
 20
-124.70421389
  0
VERTEX
  8
0
 10
105.56928901
 20
-124.87999138
  0
VERTEX
  8
0
 10
105.45051147
 20
-125.06339262
  0
VERTEX
  8
0
 10
105.34865099
 20
-125.25470074
  0
VERTEX
  8
0
 10
105.26235385
 20
-125.45428595
  0
VERTEX
  8
0
 10
105.12858636
 20
-125.88004006
  0
VERTEX
  8
0
 10
105.02681232
 20
-126.34480603
  0
VERTEX
  8
0
 10
104.92705494
 20
-126.85334656
  0
VERTEX
  8
0
 10
104.79658256
 20
-127.41038252
  0
VERTEX
  8
0
 10
104.60488236
 20
-128.01981745
  0
VERTEX
  8
0
 10
104.47835325
 20
-128.34496799
  0
VERTEX
  8
0
 10
104.32852592
 20
-128.68388158
  0
VERTEX
  8
0
 10
104.15385670
 20
-129.03654314
  0
VERTEX
  8
0
 10
103.95341458
 20
-129.40282805
  0
VERTEX
  8
0
 10
103.72651656
 20
-129.78257392
  0
VERTEX
  8
0
 10
103.47288528
 20
-130.17556829
  0
VERTEX
  8
0
 10
102.88514836
 20
-131.00040602
  0
VERTEX
  8
0
 10
102.19107381
 20
-131.87562917
  0
VERTEX
  8
0
 10
101.39229935
 20
-132.79997261
  0
VERTEX
  8
0
 10
98.65350782
 20
-132.14678315
  0
VERTEX
  8
0
 10
95.91469931
 20
-131.49366486
  0
SEQEND
  0
POLYLINE
  8
Default_Layer
 62
256
 66
   1
 39
0.000000
 70
    1
  0
VERTEX
  8
0
 10
75.83622742
 20
-186.75491071
 42
-0.37573027
  0
VERTEX
  8
0
 10
69.01992117
 20
-180.73932555
  0
VERTEX
  8
0
 10
69.01992117
 20
-144.73932555
 42
-0.37573027
  0
VERTEX
  8
0
 10
75.83622742
 20
-138.72374039
  0
VERTEX
  8
0
 10
85.76542117
 20
-138.68147555
  0
VERTEX
  8
0
 10
105.11545753
 20
-138.66832555
 42
-0.21678593
  0
VERTEX
  8
0
 10
113.81988144
 20
-138.73932555
  0
VERTEX
  8
0
 10
117.43977732
 20
-138.93263679
  0
VERTEX
  8
0
 10
120.77280172
 20
-139.12010585
  0
VERTEX
  8
0
 10
123.81617626
 20
-139.30233314
  0
VERTEX
  8
0
 10
126.56775542
 20
-139.48099231
  0
VERTEX
  8
0
 10
129.02840656
 20
-139.65942519
  0
VERTEX
  8
0
 10
131.20465453
 20
-139.84325967
  0
VERTEX
  8
0
 10
133.11162223
 20
-140.04105541
  0
VERTEX
  8
0
 10
133.97196788
 20
-140.14881939
  0
VERTEX
  8
0
 10
134.77622661
 20
-140.26497799
  0
VERTEX
  8
0
 10
135.52964921
 20
-140.39166705
  0
VERTEX
  8
0
 10
136.23784568
 20
-140.53139418
  0
VERTEX
  8
0
 10
136.90632102
 20
-140.68685584
  0
VERTEX
  8
0
 10
137.53979717
 20
-140.86112870
  0
VERTEX
  8
0
 10
138.14234488
 20
-141.05747833
  0
VERTEX
  8
0
 10
138.71616840
 20
-141.27955360
  0
VERTEX
  8
0
 10
139.26218959
 20
-141.53120692
  0
VERTEX
  8
0
 10
139.77844102
 20
-141.81666405
  0
VERTEX
  8
0
 10
140.26152038
 20
-142.14029498
  0
VERTEX
  8
0
 10
140.48888343
 20
-142.31782703
  0
VERTEX
  8
0
 10
140.70578157
 20
-142.50658294
  0
VERTEX
  8
0
 10
140.91139197
 20
-142.70712402
  0
VERTEX
  8
0
 10
141.10479468
 20
-142.91997730
  0
VERTEX
  8
0
 10
141.28508372
 20
-143.14565095
  0
VERTEX
  8
0
 10
141.45135310
 20
-143.38465314
  0
VERTEX
  8
0
 10
141.60270430
 20
-143.63746689
  0
VERTEX
  8
0
 10
141.73828345
 20
-143.90451650
  0
VERTEX
  8
0
 10
141.85726828
 20
-144.18620968
  0
VERTEX
  8
0
 10
141.95891915
 20
-144.48290051
  0
VERTEX
  8
0
 10
142.04254811
 20
-144.79491343
  0
VERTEX
  8
0
 10
142.10757928
 20
-145.12251223
  0
VERTEX
  8
0
 10
142.15349273
 20
-145.46593134
  0
VERTEX
  8
0
 10
142.17986829
 20
-145.82535256
  0
VERTEX
  8
0
 10
142.18633021
 20
-146.20093425
  0
VERTEX
  8
0
 10
142.17258261
 20
-146.59279282
  0
VERTEX
  8
0
 10
142.13836571
 20
-147.00102593
  0
VERTEX
  8
0
 10
142.08348619
 20
-147.42569742
  0
VERTEX
  8
0
 10
142.00778104
 20
-147.86685608
  0
VERTEX
  8
0
 10
141.91114137
 20
-148.32452451
  0
VERTEX
  8
0
 10
141.79348204
 20
-148.79871413
  0
VERTEX
  8
0
 10
141.65475817
 20
-149.28941810
  0
VERTEX
  8
0
 10
141.31403011
 20
-150.32030276
  0
VERTEX
  8
0
 10
140.88897020
 20
-151.41697646
  0
VERTEX
  8
0
 10
140.37976188
 20
-152.57919613
  0
VERTEX
  8
0
 10
139.78661558
 20
-153.80675978
 42
0.11575258
  0
VERTEX
  8
0
 10
139.36912117
 20
-155.58598819
  0
VERTEX
  8
0
 10
139.36912117
 20
-169.89266291
 42
0.11575258
  0
VERTEX
  8
0
 10
139.78661558
 20
-171.67189132
  0
VERTEX
  8
0
 10
140.37976188
 20
-172.89945497
  0
VERTEX
  8
0
 10
140.88897020
 20
-174.06167464
  0
VERTEX
  8
0
 10
141.31403011
 20
-175.15834834
  0
VERTEX
  8
0
 10
141.65475817
 20
-176.18923300
  0
VERTEX
  8
0
 10
141.79348204
 20
-176.67993697
  0
VERTEX
  8
0
 10
141.91114137
 20
-177.15412659
  0
VERTEX
  8
0
 10
142.00778104
 20
-177.61179501
  0
VERTEX
  8
0
 10
142.08348619
 20
-178.05295368
  0
VERTEX
  8
0
 10
142.13836571
 20
-178.47762517
  0
VERTEX
  8
0
 10
142.17258261
 20
-178.88585828
  0
VERTEX
  8
0
 10
142.18633021
 20
-179.27771685
  0
VERTEX
  8
0
 10
142.17986829
 20
-179.65329854
  0
VERTEX
  8
0
 10
142.15349273
 20
-180.01271976
  0
VERTEX
  8
0
 10
142.10757928
 20
-180.35613887
  0
VERTEX
  8
0
 10
142.04254811
 20
-180.68373767
  0
VERTEX
  8
0
 10
141.95891915
 20
-180.99575058
  0
VERTEX
  8
0
 10
141.85726828
 20
-181.29244142
  0
VERTEX
  8
0
 10
141.73828345
 20
-181.57413460
  0
VERTEX
  8
0
 10
141.60270430
 20
-181.84118421
  0
VERTEX
  8
0
 10
141.45135310
 20
-182.09399796
  0
VERTEX
  8
0
 10
141.28508372
 20
-182.33300015
  0
VERTEX
  8
0
 10
141.10479468
 20
-182.55867380
  0
VERTEX
  8
0
 10
140.91139197
 20
-182.77152708
  0
VERTEX
  8
0
 10
140.70578157
 20
-182.97206816
  0
VERTEX
  8
0
 10
140.48888343
 20
-183.16082407
  0
VERTEX
  8
0
 10
140.26152038
 20
-183.33835612
  0
VERTEX
  8
0
 10
139.77844102
 20
-183.66198705
  0
VERTEX
  8
0
 10
139.26218959
 20
-183.94744418
  0
VERTEX
  8
0
 10
138.71616840
 20
-184.19909750
  0
VERTEX
  8
0
 10
138.14234488
 20
-184.42117277
  0
VERTEX
  8
0
 10
137.53979717
 20
-184.61752240
  0
VERTEX
  8
0
 10
136.90632102
 20
-184.79179526
  0
VERTEX
  8
0
 10
136.23784568
 20
-184.94725691
  0
VERTEX
  8
0
 10
135.52964921
 20
-185.08698404
  0
VERTEX
  8
0
 10
134.77622661
 20
-185.21367311
  0
VERTEX
  8
0
 10
133.97196788
 20
-185.32983171
  0
VERTEX
  8
0
 10
133.11162223
 20
-185.43759569
  0
VERTEX
  8
0
 10
131.20465453
 20
-185.63539143
  0
VERTEX
  8
0
 10
129.02840656
 20
-185.81922591
  0
VERTEX
  8
0
 10
126.56775542
 20
-185.99765879
  0
VERTEX
  8
0
 10
123.81617626
 20
-186.17631796
  0
VERTEX
  8
0
 10
120.77280172
 20
-186.35854525
  0
VERTEX
  8
0
 10
117.43977732
 20
-186.54601431
  0
VERTEX
  8
0
 10
113.81988144
 20
-186.73932555
 42
-0.21678593
  0
VERTEX
  8
0
 10
105.11545753
 20
-186.81032555
  0
VERTEX
  8
0
 10
85.76542117
 20
-186.79717555
  0
VERTEX
  8
0
 10
75.83622742
 20
-186.75491071
  0
SEQEND
  0
POLYLINE
  8
Default_Layer
 62
256
 66
   1
 39
0.000000
 70
    1
  0
VERTEX
  8
0
 10
26.80012117
 20
-188.59212555
  0
VERTEX
  8
0
 10
38.80012117
 20
-188.59212555
  0
VERTEX
  8
0
 10
38.80012117
 20
-182.59212555
  0
VERTEX
  8
0
 10
42.80012117
 20
-182.59212555
  0
VERTEX
  8
0
 10
42.80012117
 20
-176.39212555
  0
VERTEX
  8
0
 10
40.30012117
 20
-176.39212555
  0
VERTEX
  8
0
 10
40.30012117
 20
-171.39212555
  0
VERTEX
  8
0
 10
42.80012117
 20
-171.39212555
  0
VERTEX
  8
0
 10
42.80012117
 20
-163.79212555
  0
VERTEX
  8
0
 10
48.80032117
 20
-163.79212555
  0
VERTEX
  8
0
 10
48.80032117
 20
-171.39212555
  0
VERTEX
  8
0
 10
51.30032117
 20
-171.39212555
  0
VERTEX
  8
0
 10
51.30032117
 20
-176.39212555
  0
VERTEX
  8
0
 10
48.80032117
 20
-176.39212555
  0
VERTEX
  8
0
 10
48.80032117
 20
-182.59212555
  0
VERTEX
  8
0
 10
52.80012117
 20
-182.59212555
  0
VERTEX
  8
0
 10
52.80012117
 20
-188.59212555
  0
VERTEX
  8
0
 10
64.80012117
 20
-188.59212555
  0
VERTEX
  8
0
 10
64.80012117
 20
-85.19212555
  0
VERTEX
  8
0
 10
56.40012117
 20
-85.19192555
  0
VERTEX
  8
0
 10
56.40012117
 20
-90.81703805
  0
VERTEX
  8
0
 10
56.40012117
 20
-91.16866383
  0
VERTEX
  8
0
 10
56.40012117
 20
-91.19065450
  0
VERTEX
  8
0
 10
56.40012117
 20
-91.19203244
  0
VERTEX
  8
0
 10
56.40012117
 20
-91.19212555
  0
VERTEX
  8
0
 10
48.80032117
 20
-91.19212555
  0
VERTEX
  8
0
 10
48.80032117
 20
-99.19212555
  0
VERTEX
  8
0
 10
51.30032117
 20
-99.19212555
  0
VERTEX
  8
0
 10
51.30032117
 20
-104.19212555
  0
VERTEX
  8
0
 10
48.80032117
 20
-104.19212555
  0
VERTEX
  8
0
 10
48.80032117
 20
-111.19212555
  0
VERTEX
  8
0
 10
42.80012117
 20
-111.19212555
  0
VERTEX
  8
0
 10
42.80012117
 20
-104.19212555
  0
VERTEX
  8
0
 10
40.30012117
 20
-104.19212555
  0
VERTEX
  8
0
 10
40.30012117
 20
-99.19212555
  0
VERTEX
  8
0
 10
42.80012117
 20
-99.19212555
  0
VERTEX
  8
0
 10
42.80012117
 20
-91.19212555
  0
VERTEX
  8
0
 10
38.80012117
 20
-91.19212555
  0
VERTEX
  8
0
 10
38.80012117
 20
-85.19212555
  0
VERTEX
  8
0
 10
26.80012117
 20
-85.19212555
  0
VERTEX
  8
0
 10
26.80012117
 20
-188.59212555
  0
SEQEND
  0
POLYLINE
  8
Default_Layer
 62
256
 66
   1
 39
0.000000
 70
    1
  0
VERTEX
  8
0
 10
-4.43976775
 20
14.69646825
  0
VERTEX
  8
0
 10
-4.44247883
 20
20.69647445
  0
VERTEX
  8
0
 10
6.66212117
 20
20.69647445
  0
VERTEX
  8
0
 10
6.66205502
 20
14.69627445
  0
VERTEX
  8
0
 10
-3.74844133
 20
14.69638695
  0
VERTEX
  8
0
 10
-4.39910149
 20
14.69645023
  0
VERTEX
  8
0
 10
-4.43976775
 20
14.69646825
  0
SEQEND
  0
POLYLINE
  8
Default_Layer
 62
256
 66
   1
 39
0.000000
 70
    0
  0
VERTEX
  8
0
 10
-36.12050519
 20
156.98726757
  0
VERTEX
  8
0
 10
123.87947396
 20
156.97257445
  0
SEQEND
  0
POLYLINE
  8
Default_Layer
 62
256
 66
   1
 39
0.000000
 70
    1
  0
VERTEX
  8
0
 10
150.00000000
 20
200.00000000
  0
VERTEX
  8
0
 10
-150.00000000
 20
200.00000000
  0
VERTEX
  8
0
 10
-150.00000000
 20
-200.00000000
  0
VERTEX
  8
0
 10
150.00000000
 20
-200.00000000
  0
VERTEX
  8
0
 10
150.00000000
 20
200.00000000
  0
SEQEND
  0
POLYLINE
  8
Default_Layer
 62
256
 66
   1
 39
0.000000
 70
    1
  0
VERTEX
  8
0
 10
-124.97521239
 20
90.63987445
 42
-0.41421356
  0
VERTEX
  8
0
 10
-122.97521239
 20
88.63987445
 42
-0.41421356
  0
VERTEX
  8
0
 10
-124.97521239
 20
86.63987445
  0
VERTEX
  8
0
 10
-132.73701239
 20
86.63987445
 42
-1.00000000
  0
VERTEX
  8
0
 10
-132.73701239
 20
90.63987445
  0
VERTEX
  8
0
 10
-124.97521239
 20
90.63987445
  0
SEQEND
  0
CIRCLE
  8
Default_Layer
 62
256
 10
131.122397
 20
179.089804
 40
3.000010
  0
POLYLINE
  8
Default_Layer
 62
256
 66
   1
 39
0.000000
 70
    1
  0
VERTEX
  8
0
 10
114.37454210
 20
147.49489468
 42
-0.12695474
  0
VERTEX
  8
0
 10
117.96873880
 20
146.52924117
 42
0.57470383
  0
VERTEX
  8
0
 10
135.87947165
 20
156.98001450
 42
0.57470383
  0
VERTEX
  8
0
 10
117.95579353
 20
167.40857034
 42
-0.12731626
  0
VERTEX
  8
0
 10
114.40423711
 20
166.45236036
  0
VERTEX
  8
0
 10
-36.19841239
 20
164.98687445
 42
0.99022189
  0
VERTEX
  8
0
 10
-36.19981239
 20
148.98767445
  0
VERTEX
  8
0
 10
114.37454210
 20
147.49489468
  0
SEQEND
  0
POLYLINE
  8
Default_Layer
 62
256
 66
   1
 39
0.000000
 70
    1
  0
VERTEX
  8
0
 10
-84.77541239
 20
86.83967445
 42
-0.41421356
  0
VERTEX
  8
0
 10
-86.57541239
 20
88.63967445
 42
-0.41421356
  0
VERTEX
  8
0
 10
-84.77541239
 20
90.43967445
  0
VERTEX
  8
0
 10
-74.77541239
 20
90.43967445
 42
-1.00000000
  0
VERTEX
  8
0
 10
-74.77541239
 20
86.83967445
  0
VERTEX
  8
0
 10
-84.77541239
 20
86.83967445
  0
SEQEND
  0
CIRCLE
  8
Default_Layer
 62
256
 10
131.114378
 20
180.372074
 40
6.717770
  0
CIRCLE
  8
Default_Layer
 62
256
 10
-128.697588
 20
141.550192
 40
2.999549
  0
CIRCLE
  8
Default_Layer
 62
256
 10
-98.880625
 20
178.859674
 40
2.649812
  0
CIRCLE
  8
Default_Layer
 62
256
 10
123.879474
 20
156.972574
 40
3.000033
  0
CIRCLE
  8
Default_Layer
 62
256
 10
-131.388536
 20
181.458648
 40
2.649523
  0
POLYLINE
  8
Default_Layer
 62
256
 66
   1
 39
0.000000
 70
    1
  0
VERTEX
  8
0
 10
-138.95159779
 20
178.85079078
 42
-0.17690411
  0
VERTEX
  8
0
 10
-139.55220469
 20
145.73935969
 42
0.72705926
  0
VERTEX
  8
0
 10
-122.36514305
 20
131.78945704
 42
-0.28585172
  0
VERTEX
  8
0
 10
-52.81395121
 20
133.08706259
 42
0.47602279
  0
VERTEX
  8
0
 10
-41.14983226
 20
137.34964021
 42
0.47602279
  0
VERTEX
  8
0
 10
-47.71165487
 20
147.89306103
 42
-0.17150866
  0
VERTEX
  8
0
 10
-125.62209945
 20
187.00382933
 42
0.80362936
  0
VERTEX
  8
0
 10
-138.95159779
 20
178.85079078
  0
SEQEND
  0
CIRCLE
  8
Default_Layer
 62
256
 10
-108.093430
 20
114.074174
 40
2.650008
  0
CIRCLE
  8
Default_Layer
 62
256
 10
-104.775315
 20
88.639774
 40
7.099898
  0
CIRCLE
  8
Default_Layer
 62
256
 10
-71.893845
 20
114.074374
 40
3.000200
  0
POLYLINE
  8
Default_Layer
 62
256
 66
   1
 39
0.000000
 70
    1
  0
VERTEX
  8
0
 10
35.22458761
 20
85.53967445
  0
VERTEX
  8
0
 10
19.22458761
 20
85.53967445
  0
VERTEX
  8
0
 10
19.22458761
 20
85.63967445
  0
VERTEX
  8
0
 10
19.22458761
 20
91.63967445
  0
VERTEX
  8
0
 10
19.22458761
 20
91.73967445
  0
VERTEX
  8
0
 10
35.22458761
 20
91.73967445
  0
VERTEX
  8
0
 10
35.22458761
 20
91.63967445
  0
VERTEX
  8
0
 10
35.22458761
 20
85.63967445
  0
VERTEX
  8
0
 10
35.22458761
 20
85.53967445
  0
SEQEND
  0
POLYLINE
  8
Default_Layer
 62
256
 66
   1
 39
0.000000
 70
    1
  0
VERTEX
  8
0
 10
97.70098761
 20
84.77367445
  0
VERTEX
  8
0
 10
113.70098761
 20
84.77367445
  0
VERTEX
  8
0
 10
113.70098761
 20
90.77367445
  0
VERTEX
  8
0
 10
97.70098761
 20
90.77367445
  0
VERTEX
  8
0
 10
97.70098761
 20
84.77367445
  0
SEQEND
  0
POLYLINE
  8
Default_Layer
 62
256
 66
   1
 39
0.000000
 70
    1
  0
VERTEX
  8
0
 10
-48.02901239
 20
91.73927445
  0
VERTEX
  8
0
 10
-48.02901239
 20
85.54007445
  0
VERTEX
  8
0
 10
-58.77541239
 20
85.54007445
  0
VERTEX
  8
0
 10
-58.77541239
 20
91.73927445
  0
VERTEX
  8
0
 10
-48.02901239
 20
91.73927445
  0
SEQEND
  0
POLYLINE
  8
Default_Layer
 62
256
 66
   1
 39
0.000000
 70
    1
  0
VERTEX
  8
0
 10
31.04378761
 20
153.87507445
  0
VERTEX
  8
0
 10
20.29718761
 20
153.87507445
  0
VERTEX
  8
0
 10
20.29718761
 20
160.07427445
  0
VERTEX
  8
0
 10
31.04378761
 20
160.07427445
  0
VERTEX
  8
0
 10
31.04378761
 20
153.87507445
  0
SEQEND
  0
CIRCLE
  8
Default_Layer
 62
256
 10
-32.768944
 20
88.639774
 40
2.999668
  0
CIRCLE
  8
Default_Layer
 62
256
 10
55.224687
 20
88.639774
 40
2.649899
  0
CIRCLE
  8
Default_Layer
 62
256
 10
-28.877603
 20
179.089804
 40
3.000005
  0
POLYLINE
  8
Default_Layer
 62
256
 66
   1
 39
0.000000
 70
    1
  0
VERTEX
  8
0
 10
74.67489760
 20
183.10034103
  0
VERTEX
  8
0
 10
74.71566227
 20
176.90114103
  0
VERTEX
  8
0
 10
63.96989460
 20
176.83047907
  0
VERTEX
  8
0
 10
63.92912993
 20
183.02967907
  0
VERTEX
  8
0
 10
74.67489760
 20
183.10034103
  0
SEQEND
  0
CIRCLE
  8
Default_Layer
 62
256
 10
-48.713262
 20
139.956074
 40
2.649703
  0
CIRCLE
  8
Default_Layer
 62
256
 10
60.984756
 20
124.445074
 40
2.999782
  0
CIRCLE
  8
Default_Layer
 62
256
 10
-36.120429
 20
156.987174
 40
2.999733
  0
CIRCLE
  8
Default_Layer
 62
256
 10
78.603711
 20
124.445174
 40
2.649812
  0
CIRCLE
  8
Default_Layer
 62
256
 10
19.057277
 20
124.866972
 40
3.000100
  0
POLYLINE
  8
Default_Layer
 62
256
 66
   1
 39
0.000000
 70
    1
  0
VERTEX
  8
0
 10
106.62092117
 20
-73.38252555
 42
-0.41362793
  0
VERTEX
  8
0
 10
100.61968592
 20
-79.38252542
  0
VERTEX
  8
0
 10
42.09832720
 20
-79.43501944
 42
-0.30783660
  0
VERTEX
  8
0
 10
35.88996040
 20
-79.49707753
  0
VERTEX
  8
0
 10
10.90679824
 20
-78.31772952
 42
-0.37386908
  0
VERTEX
  8
0
 10
5.24912117
 20
-72.91092555
  0
VERTEX
  8
0
 10
5.22092117
 20
-38.43912555
 42
-0.40196732
  0
VERTEX
  8
0
 10
10.90679824
 20
-32.44752157
  0
VERTEX
  8
0
 10
35.88996040
 20
-31.26817356
 42
-0.30783660
  0
VERTEX
  8
0
 10
42.09832720
 20
-31.33023166
  0
VERTEX
  8
0
 10
100.61968592
 20
-31.38272567
 42
-0.41362793
  0
VERTEX
  8
0
 10
106.62092117
 20
-37.38272555
  0
VERTEX
  8
0
 10
106.62092117
 20
-73.38252555
  0
SEQEND
  0
POLYLINE
  8
Default_Layer
 62
256
 66
   1
 39
0.000000
 70
    1
  0
VERTEX
  8
0
 10
-35.55247883
 20
2.30427445
  0
VERTEX
  8
0
 10
-35.55247883
 20
-7.69572555
 42
0.41421356
  0
VERTEX
  8
0
 10
-33.75247883
 20
-9.49572555
 42
0.41421356
  0
VERTEX
  8
0
 10
-31.95247883
 20
-7.69572555
  0
VERTEX
  8
0
 10
-31.95247883
 20
2.30427445
 42
0.41421356
  0
VERTEX
  8
0
 10
-33.75247883
 20
4.10427445
 42
0.41421356
  0
VERTEX
  8
0
 10
-35.55247883
 20
2.30427445
  0
SEQEND
  0
POLYLINE
  8
Default_Layer
 62
256
 66
   1
 39
0.000000
 70
    1
  0
VERTEX
  8
0
 10
-31.92587883
 20
41.77887445
  0
VERTEX
  8
0
 10
-31.92587883
 20
51.77887445
 42
0.41421356
  0
VERTEX
  8
0
 10
-33.72577883
 20
53.57877445
 42
0.41421356
  0
VERTEX
  8
0
 10
-35.52567883
 20
51.77887445
  0
VERTEX
  8
0
 10
-35.52567883
 20
41.77887445
 42
0.41421356
  0
VERTEX
  8
0
 10
-33.72577883
 20
39.97897445
 42
0.41421356
  0
VERTEX
  8
0
 10
-31.92587883
 20
41.77887445
  0
SEQEND
  0
CIRCLE
  8
Default_Layer
 62
256
 10
-33.752520
 20
21.904207
 40
7.100029
  0
CIRCLE
  8
Default_Layer
 62
256
 10
100.620745
 20
-73.482626
 40
2.999976
  0
CIRCLE
  8
Default_Layer
 62
256
 10
101.721992
 20
24.349174
 40
2.999729
  0
CIRCLE
  8
Default_Layer
 62
256
 10
83.446262
 20
55.762451
 40
2.650009
  0
CIRCLE
  8
Default_Layer
 62
256
 10
100.620766
 20
-37.282826
 40
3.000045
  0
CIRCLE
  8
Default_Layer
 62
256
 10
70.020512
 20
-38.383026
 40
2.649991
  0
CIRCLE
  8
Default_Layer
 62
256
 10
70.020481
 20
-72.382826
 40
2.650023
  0
POLYLINE
  8
Default_Layer
 62
256
 66
   1
 39
0.000000
 70
    1
  0
VERTEX
  8
0
 10
36.80172609
 20
53.21148638
  0
VERTEX
  8
0
 10
36.77472117
 20
65.21367445
  0
VERTEX
  8
0
 10
41.57472117
 20
65.22447445
  0
VERTEX
  8
0
 10
41.60152117
 20
53.22447445
  0
VERTEX
  8
0
 10
47.60075059
 20
53.23787273
  0
VERTEX
  8
0
 10
47.65475149
 20
29.23787273
  0
VERTEX
  8
0
 10
41.65512117
 20
29.22447356
  0
VERTEX
  8
0
 10
41.68232117
 20
17.22447445
  0
VERTEX
  8
0
 10
36.88232117
 20
17.21367445
  0
VERTEX
  8
0
 10
36.85552606
 20
29.21148593
  0
VERTEX
  8
0
 10
30.85552654
 20
29.19808593
  0
VERTEX
  8
0
 10
30.80152564
 20
53.19808593
  0
VERTEX
  8
0
 10
36.80172609
 20
53.21148638
  0
SEQEND
  0
CIRCLE
  8
Default_Layer
 62
256
 10
39.228400
 20
41.216876
 40
2.650004
  0
POLYLINE
  8
Default_Layer
 62
256
 66
   1
 39
0.000000
 70
    1
  0
VERTEX
  8
0
 10
-13.28627883
 20
-44.09392555
  0
VERTEX
  8
0
 10
-13.28627883
 20
-51.49412555
  0
VERTEX
  8
0
 10
-9.28587883
 20
-51.49412555
  0
VERTEX
  8
0
 10
-9.28587883
 20
-61.49412555
  0
VERTEX
  8
0
 10
-13.28627883
 20
-61.49412555
  0
VERTEX
  8
0
 10
-13.28627883
 20
-68.89392555
  0
VERTEX
  8
0
 10
-59.28627883
 20
-68.89392555
  0
VERTEX
  8
0
 10
-59.28627883
 20
-44.09392555
  0
VERTEX
  8
0
 10
-13.28627883
 20
-44.09392555
  0
SEQEND
  0
POLYLINE
  8
Default_Layer
 62
256
 66
   1
 39
0.000000
 70
    1
  0
VERTEX
  8
0
 10
-103.32467883
 20
6.34367445
  0
VERTEX
  8
0
 10
-103.32467883
 20
3.84367445
  0
VERTEX
  8
0
 10
-108.32467883
 20
3.84367445
  0
VERTEX
  8
0
 10
-108.32467883
 20
-2.15632555
  0
VERTEX
  8
0
 10
-103.32467883
 20
-2.15632555
  0
VERTEX
  8
0
 10
-103.32467883
 20
-4.65632555
  0
VERTEX
  8
0
 10
-98.32467883
 20
-4.65632555
  0
VERTEX
  8
0
 10
-98.32467883
 20
-2.15632555
  0
VERTEX
  8
0
 10
-90.32467883
 20
-2.15632555
  0
VERTEX
  8
0
 10
-90.32467883
 20
-14.41632555
  0
VERTEX
  8
0
 10
-90.41247883
 20
-14.41672555
  0
VERTEX
  8
0
 10
-84.41247883
 20
-14.41672555
  0
VERTEX
  8
0
 10
-84.32467883
 20
-14.41632555
  0
VERTEX
  8
0
 10
-84.32467883
 20
-25.16252555
  0
VERTEX
  8
0
 10
-90.37168407
 20
-25.16252555
  0
VERTEX
  8
0
 10
-90.37168407
 20
-32.81848630
 42
-0.36135954
  0
VERTEX
  8
0
 10
-92.33313357
 20
-35.17807810
  0
VERTEX
  8
0
 10
-98.23382933
 20
-36.27477334
 42
0.36135954
  0
VERTEX
  8
0
 10
-100.19527883
 20
-38.63436514
  0
VERTEX
  8
0
 10
-100.19527883
 20
-51.16252555
  0
VERTEX
  8
0
 10
-134.92487883
 20
-51.16252555
  0
VERTEX
  8
0
 10
-134.92487883
 20
-36.16252555
  0
VERTEX
  8
0
 10
-128.92487883
 20
-36.16252555
  0
VERTEX
  8
0
 10
-128.92487883
 20
21.83747445
  0
VERTEX
  8
0
 10
-120.92487883
 20
21.83747445
  0
VERTEX
  8
0
 10
-120.92487883
 20
19.33747445
  0
VERTEX
  8
0
 10
-115.92487883
 20
19.33747445
  0
VERTEX
  8
0
 10
-115.92487883
 20
21.83747445
  0
VERTEX
  8
0
 10
-110.92487883
 20
21.83747445
  0
VERTEX
  8
0
 10
-110.92487883
 20
27.83747445
  0
VERTEX
  8
0
 10
-115.92487883
 20
27.83747445
  0
VERTEX
  8
0
 10
-115.92487883
 20
30.33747445
  0
VERTEX
  8
0
 10
-120.92487883
 20
30.33747445
  0
VERTEX
  8
0
 10
-120.92487883
 20
27.83747445
  0
VERTEX
  8
0
 10
-128.92487883
 20
27.83747445
  0
VERTEX
  8
0
 10
-128.92487883
 20
58.83747445
  0
VERTEX
  8
0
 10
-134.92487883
 20
58.83747445
  0
VERTEX
  8
0
 10
-134.92487883
 20
68.83747445
  0
VERTEX
  8
0
 10
-84.32467883
 20
68.83747445
  0
VERTEX
  8
0
 10
-84.32467883
 20
52.83747445
  0
VERTEX
  8
0
 10
-90.32467883
 20
52.83747445
  0
VERTEX
  8
0
 10
-90.32467883
 20
3.84367445
  0
VERTEX
  8
0
 10
-98.32467883
 20
3.84367445
  0
VERTEX
  8
0
 10
-98.32467883
 20
6.34367445
  0
VERTEX
  8
0
 10
-103.32467883
 20
6.34367445
  0
SEQEND
  0
CIRCLE
  8
Default_Layer
 62
256
 10
-24.749962
 20
-56.631638
 40
2.999991
  0
POLYLINE
  8
Default_Layer
 62
256
 66
   1
 39
0.000000
 70
    1
  0
VERTEX
  8
0
 10
-4.88627883
 20
-73.29392555
  0
VERTEX
  8
0
 10
-4.88627883
 20
-39.69392555
 42
0.41421356
  0
VERTEX
  8
0
 10
-12.88627883
 20
-31.69392555
  0
VERTEX
  8
0
 10
-59.68627883
 20
-31.69392555
 42
0.41421356
  0
VERTEX
  8
0
 10
-67.68627883
 20
-39.69392555
  0
VERTEX
  8
0
 10
-67.68627883
 20
-73.29392555
 42
0.41421356
  0
VERTEX
  8
0
 10
-59.68627883
 20
-81.29392555
  0
VERTEX
  8
0
 10
-12.88627883
 20
-81.29392555
 42
0.41421356
  0
VERTEX
  8
0
 10
-4.88627883
 20
-73.29392555
  0
SEQEND
  0
CIRCLE
  8
Default_Layer
 62
256
 10
10.820671
 20
-72.382626
 40
2.650023
  0
CIRCLE
  8
Default_Layer
 62
256
 10
-36.286279
 20
-36.693926
 40
2.999818
  0
CIRCLE
  8
Default_Layer
 62
256
 10
10.820685
 20
-38.382826
 40
2.650036
  0
CIRCLE
  8
Default_Layer
 62
256
 10
-24.749962
 20
-56.631638
 40
9.999987
  0
CIRCLE
  8
Default_Layer
 62
256
 10
-36.286096
 20
-76.293926
 40
2.999818
  0
POLYLINE
  8
Default_Layer
 62
256
 66
   1
 39
0.000000
 70
    1
  0
VERTEX
  8
0
 10
15.22092117
 20
-67.78252555
  0
VERTEX
  8
0
 10
20.62092117
 20
-67.78252555
  0
VERTEX
  8
0
 10
20.62092117
 20
-73.78252555
  0
VERTEX
  8
0
 10
55.62092117
 20
-73.78252555
  0
VERTEX
  8
0
 10
55.62092117
 20
-67.78252555
  0
VERTEX
  8
0
 10
55.72092117
 20
-67.78252555
  0
VERTEX
  8
0
 10
61.22092117
 20
-67.78252555
  0
VERTEX
  8
0
 10
61.22092117
 20
-42.98272555
  0
VERTEX
  8
0
 10
50.22112117
 20
-42.98272555
  0
VERTEX
  8
0
 10
50.22112117
 20
-36.98272555
  0
VERTEX
  8
0
 10
26.22092117
 20
-36.98272555
  0
VERTEX
  8
0
 10
26.22092117
 20
-42.98272555
  0
VERTEX
  8
0
 10
15.22092117
 20
-42.98272555
  0
VERTEX
  8
0
 10
15.22092117
 20
-67.78252555
  0
SEQEND
  0
CIRCLE
  8
Default_Layer
 62
256
 10
27.228398
 20
-55.305047
 40
2.999991
  0
CIRCLE
  8
Default_Layer
 62
256
 10
48.911223
 20
-55.515560
 40
2.999991
  0
CIRCLE
  8
Default_Layer
 62
256
 10
63.700463
 20
20.975781
 40
2.649990
  0
CIRCLE
  8
Default_Layer
 62
256
 10
27.228398
 20
-55.305047
 40
9.999987
  0
CIRCLE
  8
Default_Layer
 62
256
 10
48.911223
 20
-55.515560
 40
9.999987
  0
POLYLINE
  8
Default_Layer
 62
256
 66
   1
 39
0.000000
 70
    1
  0
VERTEX
  8
0
 10
-118.92467883
 20
45.44187445
  0
VERTEX
  8
0
 10
-102.92467883
 20
45.44187445
  0
VERTEX
  8
0
 10
-102.92467883
 20
51.44187445
  0
VERTEX
  8
0
 10
-118.92467883
 20
51.44187445
  0
VERTEX
  8
0
 10
-118.92467883
 20
45.44187445
  0
SEQEND
  0
POLYLINE
  8
Default_Layer
 62
256
 66
   1
 39
0.000000
 70
    1
  0
VERTEX
  8
0
 10
-102.92467883
 20
-15.19692555
  0
VERTEX
  8
0
 10
-118.92467883
 20
-15.19692555
  0
VERTEX
  8
0
 10
-118.92467883
 20
-21.19692555
  0
VERTEX
  8
0
 10
-102.92467883
 20
-21.19692555
  0
VERTEX
  8
0
 10
-102.92467883
 20
-15.19692555
  0
SEQEND
  0
CIRCLE
  8
Default_Layer
 62
256
 10
-46.554771
 20
-56.182751
 40
9.999987
  0
CIRCLE
  8
Default_Layer
 62
256
 10
-46.554771
 20
-56.182751
 40
2.999991
  0
POLYLINE
  8
Default_Layer
 62
256
 66
   1
 39
0.000000
 70
    1
  0
VERTEX
  8
0
 10
-14.95738411
 20
-94.29787052
  0
VERTEX
  8
0
 10
-14.95738411
 20
-85.53732555
  0
VERTEX
  8
0
 10
-10.46347883
 20
-85.53732555
  0
VERTEX
  8
0
 10
-10.46347883
 20
-91.53732555
  0
VERTEX
  8
0
 10
-7.46347883
 20
-91.53732555
  0
VERTEX
  8
0
 10
-7.46347883
 20
-85.53732555
  0
VERTEX
  8
0
 10
-2.95727883
 20
-85.53732555
  0
VERTEX
  8
0
 10
-2.95727883
 20
-91.53732555
  0
VERTEX
  8
0
 10
1.04272117
 20
-91.53732555
  0
VERTEX
  8
0
 10
1.04272117
 20
-97.73732555
  0
VERTEX
  8
0
 10
-1.45727883
 20
-97.73732555
  0
VERTEX
  8
0
 10
-1.45727883
 20
-102.73732555
  0
VERTEX
  8
0
 10
1.04272117
 20
-102.73732555
  0
VERTEX
  8
0
 10
1.04272117
 20
-110.33732555
  0
VERTEX
  8
0
 10
7.04272117
 20
-110.33732555
  0
VERTEX
  8
0
 10
7.04272117
 20
-102.73732555
  0
VERTEX
  8
0
 10
9.54272117
 20
-102.73732555
  0
VERTEX
  8
0
 10
9.54272117
 20
-97.73732555
  0
VERTEX
  8
0
 10
7.04272117
 20
-97.73732555
  0
VERTEX
  8
0
 10
7.04272117
 20
-91.53732555
  0
VERTEX
  8
0
 10
11.04272117
 20
-91.53732555
  0
VERTEX
  8
0
 10
11.04272117
 20
-85.53732555
  0
VERTEX
  8
0
 10
17.04252117
 20
-85.53732555
  0
VERTEX
  8
0
 10
17.04252117
 20
-91.53732555
  0
VERTEX
  8
0
 10
23.04272117
 20
-91.53732555
  0
VERTEX
  8
0
 10
23.04272117
 20
-188.93732555
  0
VERTEX
  8
0
 10
14.44272117
 20
-188.93732555
  0
VERTEX
  8
0
 10
14.44272117
 20
-182.93732555
  0
VERTEX
  8
0
 10
7.04272117
 20
-182.93732555
  0
VERTEX
  8
0
 10
7.04272117
 20
-174.93732555
  0
VERTEX
  8
0
 10
9.54272117
 20
-174.93732555
  0
VERTEX
  8
0
 10
9.54272117
 20
-169.73732555
  0
VERTEX
  8
0
 10
7.04272117
 20
-169.73732555
  0
VERTEX
  8
0
 10
7.04272117
 20
-162.73732555
  0
VERTEX
  8
0
 10
1.04272117
 20
-162.73732555
  0
VERTEX
  8
0
 10
1.04272117
 20
-169.73732555
  0
VERTEX
  8
0
 10
-1.45727883
 20
-169.73732555
  0
VERTEX
  8
0
 10
-1.45727883
 20
-169.88678877
  0
VERTEX
  8
0
 10
-1.45727883
 20
-174.93732555
  0
VERTEX
  8
0
 10
1.04272117
 20
-174.93732555
  0
VERTEX
  8
0
 10
1.04272117
 20
-182.93732555
  0
VERTEX
  8
0
 10
-2.95727883
 20
-182.93732555
  0
VERTEX
  8
0
 10
-2.95727883
 20
-188.93732555
  0
VERTEX
  8
0
 10
-7.46347883
 20
-188.93732555
  0
VERTEX
  8
0
 10
-7.46347883
 20
-182.93732555
  0
VERTEX
  8
0
 10
-10.46347883
 20
-182.93732555
  0
VERTEX
  8
0
 10
-10.46347883
 20
-188.93732555
  0
VERTEX
  8
0
 10
-14.95727883
 20
-188.93732555
  0
VERTEX
  8
0
 10
-14.95727883
 20
-179.97752555
 42
0.70684034
  0
VERTEX
  8
0
 10
-14.82043216
 20
-154.70567932
  0
VERTEX
  8
0
 10
-14.82043216
 20
-117.64777895
 42
0.76516814
  0
VERTEX
  8
0
 10
-14.95738411
 20
-94.29787052
  0
SEQEND
  0
CIRCLE
  8
Default_Layer
 62
256
 10
89.383725
 20
-93.584057
 40
3.059810
  0
POLYLINE
  8
Default_Layer
 62
256
 66
   1
 39
0.000000
 70
    1
  0
VERTEX
  8
0
 10
-91.38927883
 20
-97.52732555
  0
VERTEX
  8
0
 10
-91.38927883
 20
-104.92752555
  0
VERTEX
  8
0
 10
-95.38947883
 20
-104.92752555
  0
VERTEX
  8
0
 10
-95.38947883
 20
-114.92752555
  0
VERTEX
  8
0
 10
-91.38927883
 20
-114.92752555
  0
VERTEX
  8
0
 10
-91.38927883
 20
-122.32732555
  0
VERTEX
  8
0
 10
-45.38927883
 20
-122.32732555
  0
VERTEX
  8
0
 10
-45.38927883
 20
-97.52732555
  0
VERTEX
  8
0
 10
-91.38927883
 20
-97.52732555
  0
SEQEND
  0
POLYLINE
  8
Default_Layer
 62
256
 66
   1
 39
0.000000
 70
    1
  0
VERTEX
  8
0
 10
94.81992117
 20
-144.33932555
  0
VERTEX
  8
0
 10
118.81992117
 20
-144.33932555
  0
VERTEX
  8
0
 10
118.81992117
 20
-150.33932555
  0
VERTEX
  8
0
 10
129.81992117
 20
-150.33932555
  0
VERTEX
  8
0
 10
129.81992117
 20
-175.13932555
  0
VERTEX
  8
0
 10
124.41992117
 20
-175.13932555
  0
VERTEX
  8
0
 10
124.41992117
 20
-181.13892555
  0
VERTEX
  8
0
 10
94.81992117
 20
-181.13892555
  0
VERTEX
  8
0
 10
94.81992117
 20
-175.13932555
  0
VERTEX
  8
0
 10
83.81992117
 20
-175.13932555
  0
VERTEX
  8
0
 10
83.81992117
 20
-167.73932555
  0
VERTEX
  8
0
 10
80.82012117
 20
-167.73932555
  0
VERTEX
  8
0
 10
80.82012117
 20
-157.73932555
  0
VERTEX
  8
0
 10
83.81992117
 20
-157.73932555
  0
VERTEX
  8
0
 10
83.81992117
 20
-150.33932555
  0
VERTEX
  8
0
 10
94.81992117
 20
-150.33932555
  0
VERTEX
  8
0
 10
94.81992117
 20
-144.33932555
  0
SEQEND
  0
POLYLINE
  8
Default_Layer
 62
256
 66
   1
 39
0.000000
 70
    1
  0
VERTEX
  8
0
 10
-91.90687883
 20
-188.51576994
  0
VERTEX
  8
0
 10
-28.62687883
 20
-188.51576994
 42
0.41421356
  0
VERTEX
  8
0
 10
-20.62687883
 20
-180.51576994
  0
VERTEX
  8
0
 10
-20.62687883
 20
-144.91916994
 42
0.41421356
  0
VERTEX
  8
0
 10
-28.62687883
 20
-136.91916994
  0
VERTEX
  8
0
 10
-91.90687883
 20
-136.91916994
 42
0.41421356
  0
VERTEX
  8
0
 10
-99.90687883
 20
-144.91916994
  0
VERTEX
  8
0
 10
-99.90687883
 20
-180.51576994
 42
0.41421356
  0
VERTEX
  8
0
 10
-91.90687883
 20
-188.51576994
  0
SEQEND
  0
CIRCLE
  8
Default_Layer
 62
256
 10
-68.389346
 20
-89.327608
 40
3.000068
  0
CIRCLE
  8
Default_Layer
 62
256
 10
119.631545
 20
-96.124110
 40
6.000000
  0
POLYLINE
  8
Default_Layer
 62
256
 66
   1
 39
0.000000
 70
    1
  0
VERTEX
  8
0
 10
-28.62687883
 20
-83.69652555
  0
VERTEX
  8
0
 10
-91.90687883
 20
-83.69652555
 42
0.41421356
  0
VERTEX
  8
0
 10
-99.90687883
 20
-91.69652555
  0
VERTEX
  8
0
 10
-99.90687883
 20
-127.29312555
 42
0.41421356
  0
VERTEX
  8
0
 10
-91.90687883
 20
-135.29312555
  0
VERTEX
  8
0
 10
-28.62687883
 20
-135.29312555
 42
0.41421356
  0
VERTEX
  8
0
 10
-20.62687883
 20
-127.29312555
  0
VERTEX
  8
0
 10
-20.62687883
 20
-91.69652555
 42
0.41421356
  0
VERTEX
  8
0
 10
-28.62687883
 20
-83.69652555
  0
SEQEND
  0
POLYLINE
  8
Default_Layer
 62
256
 66
   1
 39
0.000000
 70
    1
  0
VERTEX
  8
0
 10
-25.51807883
 20
-117.92752555
  0
VERTEX
  8
0
 10
-25.51807883
 20
-101.92752555
  0
VERTEX
  8
0
 10
-31.51827883
 20
-101.92752555
  0
VERTEX
  8
0
 10
-31.51827883
 20
-117.92752555
  0
VERTEX
  8
0
 10
-25.51807883
 20
-117.92752555
  0
SEQEND
  0
CIRCLE
  8
Default_Layer
 62
256
 10
106.755036
 20
-98.175516
 40
2.631582
  0
CIRCLE
  8
Default_Layer
 62
256
 10
-119.029838
 20
-78.492799
 40
2.999553
  0
POLYLINE
  8
Default_Layer
 62
256
 66
   1
 39
0.000000
 70
    1
  0
VERTEX
  8
0
 10
-117.02987883
 20
-118.49132555
  0
VERTEX
  8
0
 10
-117.02987883
 20
-128.49132555
 42
-0.41421356
  0
VERTEX
  8
0
 10
-119.02987883
 20
-130.49132555
 42
-0.41421356
  0
VERTEX
  8
0
 10
-121.02987883
 20
-128.49132555
  0
VERTEX
  8
0
 10
-121.02987883
 20
-118.49132555
 42
-0.41421356
  0
VERTEX
  8
0
 10
-119.02987883
 20
-116.49132555
 42
-0.41421356
  0
VERTEX
  8
0
 10
-117.02987883
 20
-118.49132555
  0
SEQEND
  0
POLYLINE
  8
Default_Layer
 62
256
 66
   1
 39
0.000000
 70
    1
  0
VERTEX
  8
0
 10
-91.38927883
 20
-175.54996994
  0
VERTEX
  8
0
 10
-45.38927883
 20
-175.54996994
  0
VERTEX
  8
0
 10
-45.38927883
 20
-150.74996994
  0
VERTEX
  8
0
 10
-91.38927883
 20
-150.74996994
  0
VERTEX
  8
0
 10
-91.38927883
 20
-158.15016994
  0
VERTEX
  8
0
 10
-95.38947883
 20
-158.15016994
  0
VERTEX
  8
0
 10
-95.38947883
 20
-168.15016994
  0
VERTEX
  8
0
 10
-91.38927883
 20
-168.15016994
  0
VERTEX
  8
0
 10
-91.38927883
 20
-175.54996994
  0
SEQEND
  0
CIRCLE
  8
Default_Layer
 62
256
 10
-68.389346
 20
-142.550252
 40
3.000068
  0
CIRCLE
  8
Default_Layer
 62
256
 10
75.020000
 20
-145.739426
 40
2.999902
  0
CIRCLE
  8
Default_Layer
 62
256
 10
103.758340
 20
-110.851143
 40
5.999742
  0
CIRCLE
  8
Default_Layer
 62
256
 10
-119.029880
 20
-148.691226
 40
7.100001
  0
CIRCLE
  8
Default_Layer
 62
256
 10
134.220121
 20
-145.739426
 40
2.999800
  0
POLYLINE
  8
Default_Layer
 62
256
 66
   1
 39
0.000000
 70
    1
  0
VERTEX
  8
0
 10
11.64272117
 20
-138.53732555
  0
VERTEX
  8
0
 10
11.64272117
 20
-144.53732555
  0
VERTEX
  8
0
 10
-5.95707883
 20
-144.53732555
  0
VERTEX
  8
0
 10
-5.95707883
 20
-138.53732555
  0
VERTEX
  8
0
 10
11.64272117
 20
-138.53732555
  0
SEQEND
  0
CIRCLE
  8
Default_Layer
 62
256
 10
-68.389346
 20
-128.927599
 40
3.000062
  0
CIRCLE
  8
Default_Layer
 62
256
 10
75.019890
 20
-179.739026
 40
3.000031
  0
POLYLINE
  8
Default_Layer
 62
256
 66
   1
 39
0.000000
 70
    1
  0
VERTEX
  8
0
 10
-121.02989936
 20
-168.89112555
 42
-0.41421381
  0
VERTEX
  8
0
 10
-119.02988742
 20
-166.89111529
 42
-0.41421381
  0
VERTEX
  8
0
 10
-117.02987883
 20
-168.89112891
  0
VERTEX
  8
0
 10
-117.02989125
 20
-176.29112555
 42
-1.00000000
  0
VERTEX
  8
0
 10
-121.02987883
 20
-176.29113110
  0
VERTEX
  8
0
 10
-121.02989936
 20
-168.89112555
  0
SEQEND
  0
CIRCLE
  8
Default_Layer
 62
256
 10
134.219914
 20
-179.739026
 40
3.000007
  0
CIRCLE
  8
Default_Layer
 62
256
 10
-68.389346
 20
-182.150244
 40
3.000062
  0
POLYLINE
  8
Default_Layer
 62
256
 66
   1
 39
0.000000
 70
    1
  0
VERTEX
  8
0
 10
-25.51807883
 20
-171.15016994
  0
VERTEX
  8
0
 10
-25.51807883
 20
-155.15016994
  0
VERTEX
  8
0
 10
-31.51827883
 20
-155.15016994
  0
VERTEX
  8
0
 10
-31.51827883
 20
-171.15016994
  0
VERTEX
  8
0
 10
-25.51807883
 20
-171.15016994
  0
SEQEND
  0
POLYLINE
  8
Default_Layer
 62
256
 66
   1
 39
0.000000
 70
    1
  0
VERTEX
  8
0
 10
58.80032117
 20
-149.58352555
  0
VERTEX
  8
0
 10
52.20012117
 20
-149.58352555
  0
VERTEX
  8
0
 10
52.20012117
 20
-142.98352555
  0
VERTEX
  8
0
 10
58.80032117
 20
-142.98352555
  0
VERTEX
  8
0
 10
58.80032117
 20
-149.58352555
  0
SEQEND
  0
POLYLINE
  8
Default_Layer
 62
256
 66
   1
 39
0.000000
 70
    1
  0
VERTEX
  8
0
 10
53.40012117
 20
-135.59212555
  0
VERTEX
  8
0
 10
40.40012117
 20
-135.59212555
  0
VERTEX
  8
0
 10
40.40012117
 20
-129.59212555
  0
VERTEX
  8
0
 10
53.40012117
 20
-129.59212555
  0
VERTEX
  8
0
 10
53.40012117
 20
-135.59212555
  0
SEQEND
  0
POLYLINE
  8
Default_Layer
 62
256
 66
   1
 39
0.000000
 70
    1
  0
VERTEX
  8
0
 10
33.08232117
 20
-154.28352555
  0
VERTEX
  8
0
 10
33.08232117
 20
-138.28352555
  0
VERTEX
  8
0
 10
39.08232117
 20
-138.28352555
  0
VERTEX
  8
0
 10
39.08232117
 20
-154.28352555
  0
VERTEX
  8
0
 10
33.08232117
 20
-154.28352555
  0
SEQEND
  0
ENDSEC
  0
EOF
